<svg width="194" height="190" viewBox="0 0 194 190" fill="none" xmlns="http://www.w3.org/2000/svg">
<circle cx="49.2308" cy="27.3846" r="15.2308" fill="url(#paint0_linear)"/>
<circle cx="6.23077" cy="14.2308" r="6.23077" fill="url(#paint1_linear)"/>
<circle cx="172.231" cy="158.231" r="6.23077" fill="url(#paint2_linear)"/>
<circle cx="159.231" cy="27.2308" r="24.2308" fill="url(#paint3_linear)"/>
<path d="M164.16 18.6614V28.5014H166.248V31.7414H164.16V35.4614H160.272V31.7414H150.816V28.5974L159.624 18.6614H164.16ZM155.256 28.5014H160.272V22.8614L155.256 28.5014Z" fill="white"/>
<g filter="url(#filter0_bd)">
<rect x="25" y="21" width="148" height="148" rx="74" fill="url(#paint4_linear)"/>
<rect x="25.5" y="21.5" width="147" height="147" rx="73.5" stroke="url(#paint5_angular)" stroke-opacity="0.25"/>
</g>
<g filter="url(#filter1_d)">
<path d="M75.8293 51.532C75.8611 51.8013 75.8415 52.078 75.7705 52.362C75.6995 52.646 75.5844 52.8982 75.4277 53.121C75.4131 53.8164 75.1903 54.3526 74.7642 54.7321C74.3064 55.1581 73.6355 55.3711 72.7492 55.3711H72.2277C71.5642 55.3711 70.957 55.3001 70.4036 55.1581C70.0878 55.0797 69.6936 54.9451 69.2186 54.7541C68.9346 54.6439 68.7289 54.5656 68.6016 54.5166C68.3959 54.4529 68.1976 54.4211 68.0091 54.4211C67.9626 54.5803 67.872 54.7125 67.7373 54.8251C67.6027 54.9353 67.4484 54.9916 67.2746 54.9916H65.759C65.5533 54.9916 65.3771 54.9157 65.2253 54.7663C65.0759 54.617 65 54.4383 65 54.2326V48.545C65 48.3393 65.0759 48.163 65.2253 48.0112C65.3746 47.8618 65.5533 47.7859 65.759 47.7859H68.1046C68.2613 47.6439 68.5306 47.3232 68.9101 46.8262C69.2896 46.3291 69.5663 45.9937 69.7401 45.8199C69.8038 45.7562 69.8748 45.5285 69.9531 45.1319C70.0951 44.5638 70.2371 44.1525 70.3791 43.9003C70.6313 43.4572 70.979 43.2368 71.4222 43.2368C72.1322 43.2368 72.6855 43.4351 73.0797 43.8293C73.4911 44.2554 73.6967 44.887 73.6967 45.7244C73.6967 46.0868 73.6257 46.4516 73.4837 46.8139H74.3358C74.9038 46.8139 75.3861 47.0196 75.7803 47.4309C76.1745 47.8423 76.3728 48.3148 76.3728 48.8534C76.3728 49.2648 76.2626 49.659 76.0398 50.0385C76.1549 50.56 76.0839 51.057 75.8293 51.532ZM66.9195 53.072C66.8094 52.9619 66.6747 52.9056 66.5156 52.9056C66.3564 52.9056 66.2242 52.9619 66.1116 53.072C66.0014 53.1822 65.9451 53.3169 65.9451 53.476C65.9451 53.6327 66.0014 53.7674 66.1116 53.88C66.2218 53.9902 66.3564 54.0465 66.5156 54.0465C66.6747 54.0465 66.8069 53.9902 66.9195 53.88C67.0297 53.7698 67.086 53.6352 67.086 53.476C67.086 53.3169 67.0297 53.1822 66.9195 53.072ZM74.965 50.5012C74.9723 50.1927 74.8891 49.9454 74.7153 49.7545C74.8254 49.7545 74.9405 49.659 75.058 49.4704C75.1756 49.2819 75.2368 49.0763 75.2368 48.8534C75.2368 48.6331 75.1486 48.4274 74.9772 48.2365C74.8034 48.0479 74.5904 47.9524 74.3382 47.9524H71.8727C71.8727 47.7639 71.9118 47.5656 71.9902 47.3599C72.022 47.2497 72.093 47.0833 72.2032 46.8629C72.3134 46.6425 72.3917 46.4687 72.4407 46.3414C72.519 46.1357 72.5582 45.9301 72.5582 45.7244C72.5582 45.3131 72.5117 45.0144 72.4162 44.8234C72.2424 44.5222 71.9118 44.3729 71.4222 44.3729C71.3438 44.4684 71.2728 44.603 71.2091 44.7744C71.1773 44.8699 71.1381 45.0364 71.0916 45.2714C71.028 45.5873 70.9741 45.8248 70.9251 45.9815C70.8296 46.2337 70.695 46.4467 70.5211 46.6205C70.3938 46.7478 70.1661 47.0318 69.8331 47.4726C69.4855 47.9475 69.2259 48.2707 69.0521 48.4446C68.751 48.7604 68.4988 48.9196 68.2931 48.9196H68.0336V53.3267C68.3029 53.3267 68.5943 53.3659 68.9101 53.4442C69.0986 53.4907 69.3851 53.5862 69.7621 53.7282C70.2371 53.8849 70.5995 53.9975 70.8517 54.0588C71.2777 54.1689 71.6964 54.2252 72.1077 54.2252H72.9842C73.4421 54.2252 73.7824 54.1077 74.0028 53.8702C74.255 53.618 74.3431 53.2141 74.2623 52.6607C74.4508 52.5505 74.5855 52.3571 74.6663 52.0804C74.7446 51.8038 74.7226 51.5467 74.5953 51.3092C74.8352 51.0815 74.9577 50.8097 74.965 50.5012Z" fill="white"/>
<path d="M148.425 66.4669L149.096 65.7961C149.152 65.7398 149.213 65.7251 149.284 65.7545C149.355 65.7814 149.39 65.8377 149.39 65.921V68.9594C149.39 69.2385 149.292 69.476 149.096 69.6719C148.9 69.8678 148.662 69.9657 148.383 69.9657H141.006C140.727 69.9657 140.49 69.8678 140.294 69.6719C140.098 69.476 140 69.2385 140 68.9594V61.5848C140 61.3057 140.098 61.0682 140.294 60.8723C140.49 60.6765 140.727 60.5785 141.006 60.5785H146.748C146.819 60.5785 146.868 60.6128 146.895 60.6838C146.922 60.7548 146.909 60.816 146.853 60.8723L146.182 61.5432C146.153 61.5701 146.119 61.5848 146.077 61.5848H141.006V68.9619H148.383V66.5722C148.383 66.5306 148.396 66.4963 148.425 66.4669ZM151.716 62.2337L146.204 67.745L144.319 67.9556C144.04 67.9825 143.802 67.8993 143.606 67.7034C143.411 67.5075 143.327 67.27 143.354 66.9909L143.565 65.1056L149.076 59.5943C149.314 59.3568 149.603 59.2368 149.945 59.2368C150.288 59.2368 150.577 59.3568 150.815 59.5943L151.716 60.4953C151.953 60.7328 152.073 61.0217 152.073 61.3645C152.071 61.7073 151.953 61.9962 151.716 62.2337ZM149.639 62.8825L148.425 61.6681L144.527 65.5659L144.38 66.9272L145.741 66.7803L149.639 62.8825ZM151.003 61.2078L150.102 60.3068C150.06 60.2651 150.009 60.2431 149.945 60.2431C149.882 60.2431 149.83 60.2651 149.789 60.3068L149.14 60.9556L150.354 62.17L151.003 61.5212C151.045 61.4796 151.067 61.4281 151.067 61.3645C151.064 61.3008 151.045 61.2494 151.003 61.2078Z" fill="white"/>
<path d="M51.6663 111.106C52.653 111.686 53.4365 112.47 54.0168 113.456C54.597 114.443 54.8884 115.518 54.8884 116.679C54.8884 117.839 54.597 118.914 54.0168 119.901C53.4365 120.887 52.653 121.671 51.6663 122.251C50.6796 122.831 49.6047 123.12 48.4442 123.12C47.2836 123.12 46.2088 122.831 45.2221 122.251C44.2354 121.671 43.4519 120.887 42.8716 119.901C42.2914 118.914 42 117.839 42 116.679C42 115.518 42.2914 114.443 42.8716 113.456C43.4519 112.47 44.2354 111.686 45.2221 111.106C46.2088 110.526 47.2836 110.237 48.4442 110.237C49.6047 110.237 50.6796 110.526 51.6663 111.106ZM45.9591 112.379C45.1976 112.827 44.5904 113.432 44.1448 114.193C43.6967 114.955 43.4739 115.785 43.4739 116.681C43.4739 117.577 43.6967 118.405 44.1448 119.169C44.5929 119.93 45.1976 120.535 45.9591 120.983C46.7205 121.431 47.5505 121.654 48.4442 121.654C49.3403 121.654 50.1679 121.431 50.9293 120.983C51.6908 120.535 52.298 119.93 52.7436 119.169C53.1916 118.407 53.4144 117.577 53.4144 116.681C53.4144 115.785 53.1916 114.957 52.7436 114.193C52.2955 113.432 51.6908 112.827 50.9293 112.379C50.1679 111.931 49.3379 111.708 48.4442 111.708C47.5505 111.708 46.7205 111.931 45.9591 112.379ZM52.0262 115.163C52.0262 115.246 51.9919 115.312 51.9258 115.361L47.6509 119.614C47.5848 119.68 47.5089 119.715 47.4281 119.715C47.3449 119.715 47.2788 119.68 47.2298 119.614L44.9675 117.352C44.9014 117.286 44.8671 117.21 44.8671 117.129C44.8671 117.046 44.9014 116.98 44.9675 116.931L45.5404 116.36C45.5894 116.311 45.6555 116.284 45.7387 116.284C45.822 116.284 45.8954 116.309 45.9615 116.36L47.4281 117.876L50.9587 114.37C51.0077 114.321 51.0738 114.294 51.157 114.294C51.2403 114.294 51.3137 114.328 51.3798 114.394L51.9258 114.94C51.9919 115.006 52.0262 115.08 52.0262 115.163Z" fill="white"/>
<path d="M156.011 113.602C156.256 113.847 156.376 114.143 156.376 114.49V122.014C156.376 122.362 156.253 122.658 156.011 122.903C155.768 123.148 155.47 123.268 155.122 123.268H144.254C143.906 123.268 143.61 123.146 143.365 122.903C143.12 122.658 143 122.362 143 122.014V114.49C143 114.143 143.122 113.847 143.365 113.602C143.61 113.357 143.906 113.237 144.254 113.237H155.122C155.472 113.234 155.768 113.357 156.011 113.602ZM144.256 114.488V115.558C144.866 116.045 146.041 116.968 147.782 118.327L148.017 118.535C148.364 118.831 148.644 119.04 148.852 119.162C149.182 119.387 149.461 119.502 149.689 119.502C149.917 119.502 150.193 119.39 150.524 119.162C150.732 119.04 151.011 118.831 151.361 118.535L151.596 118.327C153.337 116.985 154.515 116.062 155.122 115.558V114.488H144.256ZM155.125 122.012V117.154L152.093 119.559C151.658 119.923 151.3 120.185 151.021 120.342C150.551 120.621 150.108 120.761 149.689 120.761C149.27 120.761 148.817 120.621 148.33 120.342C148.068 120.185 147.713 119.923 147.26 119.559L144.256 117.154V122.012H155.125Z" fill="white"/>
<path d="M102.505 41.6063H97.6042C97.2703 41.6063 97 41.336 97 41.0053V36.1049C97 35.771 97.2703 35.5039 97.6042 35.5039H102.505C102.838 35.5039 103.109 35.7742 103.109 36.1049V41.0053C103.109 41.336 102.838 41.6063 102.505 41.6063ZM98.2052 40.4011H101.9V36.7059H98.2052V40.4011Z" fill="url(#paint6_linear)"/>
<path d="M104.772 35.9905C104.772 36.0636 104.743 36.1209 104.686 36.1622L100.969 39.8574C100.911 39.9146 100.845 39.9432 100.775 39.9432C100.701 39.9432 100.644 39.9146 100.603 39.8574L98.6376 37.8921C98.5804 37.8349 98.5518 37.7713 98.5518 37.6981C98.5518 37.625 98.5804 37.5678 98.6376 37.5264L99.1337 37.0303C99.1782 36.9858 99.2355 36.9667 99.3054 36.9667C99.3786 36.9667 99.4422 36.989 99.4994 37.0303L100.775 38.3469L103.843 35.3004C103.888 35.2559 103.945 35.2368 104.015 35.2368C104.088 35.2368 104.152 35.2654 104.209 35.3227L104.686 35.7997C104.743 35.8537 104.772 35.9173 104.772 35.9905Z" fill="#1D262D"/>
<path d="M56.5014 67.6063H51.601C51.2671 67.6063 51 67.336 51 67.0021V62.1018C51 61.7679 51.2703 61.4976 51.601 61.4976H56.5014C56.8353 61.4976 57.1056 61.7679 57.1056 62.1018V67.0021C57.1024 67.336 56.8321 67.6063 56.5014 67.6063ZM52.202 66.4011H55.8972V62.706H52.202V66.4011Z" fill="url(#paint7_linear)"/>
<path d="M58.7689 61.9905C58.7689 62.0636 58.7403 62.1209 58.6831 62.1622L54.9656 65.8574C54.9084 65.9146 54.8448 65.9432 54.7717 65.9432C54.6985 65.9432 54.6413 65.9146 54.5999 65.8574L52.6347 63.8921C52.5774 63.8349 52.5488 63.7713 52.5488 63.6981C52.5488 63.625 52.5774 63.5678 52.6347 63.5264L53.1308 63.0303C53.1753 62.9858 53.2325 62.9667 53.3025 62.9667C53.3756 62.9667 53.4392 62.989 53.4965 63.0303L54.7717 64.3469L57.8404 61.3004C57.8849 61.2559 57.9421 61.2368 58.0121 61.2368C58.0852 61.2368 58.1488 61.2654 58.2061 61.3227L58.6799 61.7965C58.7403 61.8537 58.7689 61.9173 58.7689 61.9905Z" fill="#1D262D"/>
<path d="M157.501 93.6032H152.601C152.267 93.6032 152 93.3329 152 93.0022V88.1018C152 87.7679 152.27 87.4976 152.601 87.4976H157.501C157.835 87.4976 158.102 87.7679 158.102 88.1018V93.0022C158.106 93.3329 157.835 93.6032 157.501 93.6032ZM153.202 92.398H156.897V88.7028H153.202V92.398Z" fill="url(#paint8_linear)"/>
<path d="M159.769 87.9873C159.769 88.0604 159.74 88.1177 159.683 88.159L155.966 91.8542C155.908 91.9114 155.845 91.9401 155.772 91.9401C155.699 91.9401 155.641 91.9114 155.6 91.8542L153.635 89.8889C153.577 89.8317 153.549 89.7681 153.549 89.695C153.549 89.6218 153.577 89.5646 153.635 89.5232L154.131 89.0272C154.175 88.9826 154.233 88.9636 154.302 88.9636C154.376 88.9636 154.439 88.9858 154.496 89.0272L155.772 90.3469L158.84 87.3004C158.882 87.2559 158.942 87.2368 159.012 87.2368C159.085 87.2368 159.149 87.2654 159.206 87.3227L159.68 87.7965C159.74 87.8506 159.769 87.9142 159.769 87.9873Z" fill="#1D262D"/>
<path d="M122.934 52.6103C122.759 52.4132 122.66 52.1492 122.68 51.863C122.711 51.3765 122.549 50.9027 122.225 50.537C121.9 50.1713 121.455 49.9518 120.966 49.92C120.396 49.8851 119.967 49.3953 120.002 48.8261C120.037 48.2569 120.527 47.8276 121.096 47.8626C122.133 47.9262 123.083 48.3936 123.77 49.1727C124.457 49.9518 124.801 50.9535 124.737 51.9902C124.702 52.5594 124.212 52.9887 123.643 52.9538C123.357 52.9379 123.109 52.8075 122.934 52.6103Z" fill="url(#paint9_linear)"/>
<path d="M126.244 52.8169C126.069 52.6197 125.97 52.3558 125.99 52.0696C126.075 50.6958 125.621 49.3729 124.711 48.3394C123.802 47.3091 122.542 46.6922 121.169 46.6063C120.599 46.5713 120.17 46.0816 120.205 45.5124C120.24 44.9432 120.73 44.5139 121.296 44.5489C123.22 44.6697 124.978 45.5315 126.253 46.9752C127.529 48.4189 128.161 50.2729 128.044 52.1968C128.009 52.766 127.519 53.1953 126.95 53.1603C126.67 53.1476 126.419 53.014 126.244 52.8169Z" fill="url(#paint10_linear)"/>
<path d="M129.558 53.0236C129.383 52.8264 129.284 52.5593 129.303 52.2763C129.447 50.0216 128.702 47.8433 127.201 46.1452C125.704 44.4471 123.637 43.4359 121.379 43.2959C120.81 43.261 120.377 42.7712 120.412 42.2052C120.447 41.636 120.934 41.2067 121.503 41.2385C124.308 41.4102 126.88 42.6695 128.744 44.781C130.607 46.8925 131.536 49.6019 131.355 52.4066C131.32 52.9759 130.83 53.4052 130.261 53.3702C129.981 53.3543 129.733 53.2207 129.558 53.0236Z" fill="url(#paint11_linear)"/>
<g opacity="0.2">
<path opacity="0.2" d="M140.737 134.908C140.954 134.679 141.256 134.533 141.593 134.523C142.175 134.508 142.712 134.263 143.113 133.84C143.514 133.417 143.723 132.863 143.708 132.282C143.689 131.604 144.22 131.041 144.897 131.022C145.574 131.003 146.137 131.534 146.156 132.212C146.191 133.445 145.746 134.622 144.897 135.522C144.048 136.422 142.9 136.937 141.666 136.972C140.989 136.991 140.426 136.46 140.407 135.783C140.397 135.446 140.524 135.137 140.737 134.908Z" fill="url(#paint12_linear)"/>
<path opacity="0.2" d="M140.855 138.851C141.071 138.622 141.373 138.476 141.71 138.467C143.345 138.419 144.865 137.738 145.988 136.549C147.11 135.36 147.702 133.805 147.654 132.17C147.635 131.493 148.166 130.93 148.843 130.911C149.521 130.892 150.083 131.423 150.102 132.1C150.169 134.39 149.342 136.568 147.772 138.231C146.201 139.898 144.076 140.852 141.784 140.918C141.109 140.937 140.543 140.406 140.524 139.729C140.512 139.389 140.639 139.08 140.855 138.851Z" fill="url(#paint13_linear)"/>
<path opacity="0.2" d="M140.969 142.794C141.185 142.566 141.488 142.419 141.825 142.41C144.509 142.337 147.005 141.214 148.856 139.255C150.703 137.296 151.676 134.74 151.594 132.052C151.571 131.375 152.106 130.812 152.78 130.79C153.457 130.768 154.02 131.302 154.042 131.976C154.144 135.315 152.935 138.498 150.636 140.934C148.337 143.37 145.234 144.763 141.895 144.855C141.217 144.874 140.654 144.34 140.635 143.666C140.626 143.332 140.753 143.023 140.969 142.794Z" fill="url(#paint14_linear)"/>
</g>
<g opacity="0.2">
<path opacity="0.2" d="M110.512 39.1997C110.417 38.9802 110.407 38.729 110.503 38.4905C110.665 38.0803 110.658 37.6319 110.484 37.2281C110.309 36.8242 109.988 36.5094 109.577 36.3472C109.1 36.1564 108.868 35.619 109.059 35.142C109.247 34.665 109.787 34.4328 110.264 34.6236C111.135 34.9703 111.819 35.6349 112.188 36.4935C112.557 37.3553 112.573 38.3061 112.226 39.1774C112.035 39.6544 111.498 39.8865 111.021 39.6957C110.783 39.6003 110.604 39.4191 110.512 39.1997Z" fill="url(#paint15_linear)"/>
<path opacity="0.2" d="M113.288 40.3063C113.196 40.0869 113.183 39.8357 113.279 39.5972C113.737 38.446 113.721 37.1836 113.228 36.0451C112.738 34.9067 111.832 34.029 110.681 33.5711C110.204 33.3803 109.972 32.8429 110.162 32.3659C110.353 31.8889 110.891 31.6567 111.368 31.8475C112.98 32.4899 114.246 33.7205 114.932 35.3137C115.619 36.9069 115.645 38.6718 115.002 40.2841C114.815 40.7611 114.274 40.9932 113.797 40.8024C113.559 40.707 113.384 40.5226 113.288 40.3063Z" fill="url(#paint16_linear)"/>
<path opacity="0.2" d="M116.064 41.4098C115.972 41.1903 115.959 40.9359 116.055 40.6974C116.808 38.8085 116.78 36.7352 115.972 34.859C115.164 32.9859 113.676 31.539 111.784 30.7917C111.307 30.6041 111.075 30.0635 111.262 29.5865C111.45 29.1095 111.99 28.8774 112.467 29.065C114.821 29.9967 116.671 31.7934 117.676 34.1244C118.681 36.4553 118.716 39.0343 117.778 41.3843C117.587 41.8613 117.05 42.0935 116.573 41.9027C116.338 41.8104 116.159 41.6292 116.064 41.4098Z" fill="url(#paint17_linear)"/>
</g>
<g opacity="0.2">
<path opacity="0.2" d="M51.2966 132.186C51.6019 132.256 51.8817 132.443 52.0598 132.73C52.3683 133.223 52.8516 133.563 53.4177 133.693C53.9837 133.824 54.5688 133.725 55.0617 133.417C55.6341 133.057 56.391 133.229 56.7503 133.801C57.1096 134.374 56.9379 135.131 56.3655 135.49C55.3193 136.148 54.0791 136.358 52.8739 136.081C51.6687 135.805 50.6447 135.077 49.9864 134.03C49.6271 133.458 49.7988 132.701 50.3744 132.342C50.6574 132.164 50.9913 132.116 51.2966 132.186Z" fill="url(#paint18_linear)"/>
<path opacity="0.2" d="M47.9548 134.285C48.2601 134.355 48.5399 134.542 48.718 134.828C49.5861 136.215 50.944 137.178 52.5372 137.541C54.1304 137.907 55.7712 137.627 57.1577 136.759C57.7301 136.399 58.487 136.571 58.8463 137.143C59.2056 137.716 59.0339 138.473 58.4615 138.832C56.5217 140.05 54.2258 140.441 51.9934 139.929C49.761 139.42 47.8626 138.069 46.6446 136.129C46.2853 135.557 46.457 134.8 47.0326 134.44C47.3156 134.259 47.6495 134.215 47.9548 134.285Z" fill="url(#paint19_linear)"/>
<path opacity="0.2" d="M44.6122 136.38C44.9175 136.45 45.1974 136.638 45.3786 136.924C46.8033 139.201 49.0356 140.785 51.6591 141.386C54.2858 141.987 56.9824 141.529 59.2561 140.098C59.8285 139.739 60.5854 139.91 60.9447 140.483C61.3041 141.055 61.1323 141.812 60.5599 142.171C57.7329 143.952 54.378 144.521 51.1122 143.774C47.8495 143.027 45.0733 141.058 43.3021 138.225C42.9427 137.652 43.1176 136.896 43.69 136.536C43.9762 136.358 44.307 136.311 44.6122 136.38Z" fill="url(#paint20_linear)"/>
</g>
<path d="M44.4601 94.1328H39.0763V92.8131L40.8889 90.9814C41.4073 90.4408 41.7443 90.0719 41.9033 89.8716C42.0623 89.6744 42.1736 89.5027 42.2372 89.3628C42.3008 89.2197 42.3326 89.0702 42.3326 88.9176C42.3326 88.7236 42.269 88.571 42.145 88.4597C42.021 88.3484 41.8429 88.2911 41.6171 88.2911C41.385 88.2911 41.1465 88.3579 40.908 88.4915C40.6695 88.625 40.3992 88.8222 40.1003 89.0829L39 87.795C39.3816 87.4548 39.7028 87.2099 39.9635 87.0605C40.2243 86.9142 40.5073 86.7997 40.8126 86.7234C41.1179 86.6439 41.4645 86.6057 41.8461 86.6057C42.3263 86.6057 42.7556 86.6916 43.1308 86.8601C43.5092 87.0287 43.8018 87.2703 44.0085 87.582C44.2152 87.8936 44.3201 88.2466 44.3201 88.6346C44.3201 88.9239 44.2852 89.1942 44.212 89.4423C44.1389 89.6903 44.0276 89.932 43.8749 90.1705C43.7223 90.409 43.522 90.6602 43.2676 90.9241C43.0163 91.1881 42.4789 91.6905 41.6553 92.4251V92.476H44.4601V94.1328Z" fill="url(#paint21_linear)"/>
<path d="M50.7888 92.6954H49.9715V94.1328H47.9935V92.6954H45.0361V91.2231L48.1207 86.7107H49.9747V91.1977H50.7919V92.6954H50.7888ZM47.9935 91.1977V90.3359C47.9935 90.1737 47.9999 89.9543 48.0126 89.6776C48.0253 89.401 48.0349 89.2579 48.0412 89.2452H47.984C47.8695 89.5059 47.7391 89.7508 47.5929 89.9766L46.7692 91.2009H47.9935V91.1977Z" fill="url(#paint22_linear)"/>
<path d="M55.2497 94.1328V90.9973C55.2497 90.2245 55.0207 89.8398 54.566 89.8398C54.2416 89.8398 54.0031 89.9765 53.8473 90.2468C53.6947 90.5203 53.6152 90.9718 53.6152 91.6047V94.1328H51.6309V86.2368H53.6152V87.3594C53.6152 87.8682 53.5866 88.4469 53.5357 89.0956H53.6279C53.8187 88.7967 54.0413 88.5868 54.3021 88.466C54.5628 88.3452 54.8649 88.2847 55.2115 88.2847C55.8539 88.2847 56.3532 88.4692 56.7125 88.8412C57.0687 89.2101 57.2467 89.7316 57.2467 90.3963V94.1359H55.2497V94.1328Z" fill="url(#paint23_linear)"/>
<path d="M119.423 122.525C110.891 119.863 105.682 117.023 105.682 117.023L99.8561 117.57L94.0303 117.023C94.0303 117.023 88.8215 119.866 80.2895 122.525C71.7576 125.186 68.4122 135.725 69.5825 145.761C69.5825 145.761 77.6978 153.177 98.8957 153.603V153.622C99.2201 153.622 99.5381 153.619 99.8561 153.615C100.174 153.619 100.492 153.622 100.816 153.622V153.603C122.014 153.177 130.13 145.761 130.13 145.761C131.297 135.725 127.951 125.186 119.423 122.525Z" fill="#1B428D"/>
<path d="M107.329 107.451L100.152 106.733L92.9745 107.451C92.9745 107.451 94.1702 114.269 92.2559 119.532C92.2559 119.532 94.6472 122.521 100.152 122.521C105.653 122.521 108.048 119.532 108.048 119.532C106.133 114.269 107.329 107.451 107.329 107.451Z" fill="white"/>
<path d="M107.329 107.451L100.152 106.733L92.9746 107.451C92.9746 107.451 93.3467 109.579 93.3435 112.377C94.1798 113.614 95.1243 114.705 96.1642 115.554C97.6333 116.75 100.384 117.023 101.109 117.023C101.834 117.023 104.585 116.75 106.054 115.554C106.397 115.274 106.731 114.966 107.052 114.635C106.741 110.813 107.329 107.451 107.329 107.451Z" fill="white"/>
<path d="M99.7919 81.1973C92.5256 81.1973 87.7715 87.0898 87.7715 94.3561C87.7715 99.8066 90.4459 107.661 94.8502 111.248C96.3193 112.444 99.07 112.717 99.7951 112.717C100.52 112.717 103.271 112.444 104.74 111.248C109.144 107.661 111.819 99.8066 111.819 94.3561C111.815 87.0866 107.061 81.1973 99.7919 81.1973Z" fill="white"/>
<path d="M108.226 84.6349C108.226 82.3071 104.451 80.4182 99.7927 80.4182C95.134 80.4182 91.3594 82.3071 91.3594 84.6349C91.3594 86.9627 95.134 88.8516 99.7927 88.8516C104.451 88.8516 108.226 86.9627 108.226 84.6349Z" fill="url(#paint24_linear)"/>
<path d="M94.0521 85.9801C94.0521 85.9801 88.0324 88.6227 88.3059 99.0086C88.3059 99.0086 86.9639 95.5806 87.2342 90.6452C87.5045 85.7098 92.6656 82.3804 92.6656 82.3804L94.0521 85.9801Z" fill="url(#paint25_linear)"/>
<path d="M105.535 85.9801C105.535 85.9801 111.555 88.6227 111.281 99.0086C111.281 99.0086 112.623 95.5806 112.353 90.6452C112.083 85.7098 106.922 82.3804 106.922 82.3804L105.535 85.9801Z" fill="url(#paint26_linear)"/>
<path d="M90.106 83.8272C90.106 83.8272 89.6131 80.8157 93.9156 78.7138C100.342 75.5751 110.296 79.3402 111.857 89.5766C111.857 89.5798 101.198 81.9446 90.106 83.8272Z" fill="url(#paint27_linear)"/>
<path d="M92.1664 82.3835C92.1664 82.3835 90.694 81.2005 88.22 83.8304C85.7428 86.4571 87.2501 93.5294 87.2501 93.5294C87.2501 93.5294 90.3728 83.9989 94.0521 83.5569C97.7314 83.1117 91.6671 82.3867 91.6671 82.3867" fill="url(#paint28_linear)"/>
<path d="M107.268 82.3835C107.268 82.3835 108.74 81.2005 111.214 83.8304C113.691 86.4571 112.184 93.5294 112.184 93.5294C112.184 93.5294 109.061 83.9989 105.382 83.5569C101.703 83.1117 107.767 82.3867 107.767 82.3867" fill="url(#paint29_linear)"/>
<path d="M116.284 99.7718C115.915 103.12 112.773 105.521 111.097 105.337C109.421 105.152 109.851 102.453 110.219 99.104C110.588 95.7555 110.76 93.027 112.433 93.2115C114.109 93.3959 116.652 96.4233 116.284 99.7718Z" fill="#01063D"/>
<path d="M111.654 99.104C111.952 96.3819 112.121 94.0732 113.072 93.3991C112.849 93.2973 112.633 93.2337 112.433 93.2115C110.757 93.027 110.588 95.7555 110.219 99.104C109.851 102.453 109.421 105.152 111.097 105.337C111.39 105.369 111.727 105.321 112.086 105.203C110.944 104.599 111.323 102.112 111.654 99.104Z" fill="white"/>
<path d="M83.4247 99.7718C83.7936 103.12 86.9354 105.521 88.6113 105.337C90.2872 105.152 89.8579 102.453 89.489 99.104C89.1201 95.7555 88.9484 93.027 87.2757 93.2115C85.5999 93.3959 83.0559 96.4233 83.4247 99.7718Z" fill="#01063D"/>
<path d="M89.4892 99.104C89.1203 95.7555 88.9486 93.027 87.2759 93.2115C87.0724 93.2337 86.8561 93.2973 86.6367 93.3991C87.5875 94.0732 87.7561 96.3819 88.055 99.104C88.3857 102.112 88.7641 104.599 87.6225 105.206C87.9819 105.324 88.3189 105.372 88.6115 105.34C90.2842 105.152 89.858 102.453 89.4892 99.104Z" fill="white"/>
<path d="M113.645 95.2976L112.621 94.9637C112.652 94.8651 115.769 85.0548 111.419 79.0669C109.158 75.9568 105.246 74.3764 99.7957 74.3764C94.342 74.3764 90.4306 75.9536 88.1696 79.07C83.8162 85.0675 86.9358 94.8651 86.9676 94.9637L85.9436 95.2976C85.8069 94.8746 82.6237 84.8735 87.2983 78.4372C89.7724 75.0283 93.9763 73.3015 99.7957 73.3015C105.612 73.3015 109.816 75.0283 112.29 78.4372C116.961 84.8735 113.781 94.8746 113.645 95.2976Z" fill="#01063D"/>
<path d="M89.0126 78.9141C88.5833 78.9141 88.154 78.7424 87.836 78.4053C87.2254 77.7566 87.2541 76.7326 87.9028 76.1221C90.6503 73.5336 94.6476 72.2234 99.7928 72.2234C104.83 72.2234 108.776 73.4827 111.514 75.9694C112.176 76.5673 112.223 77.5912 111.626 78.2495C111.028 78.9109 110.004 78.9586 109.346 78.3608C107.218 76.4305 104.003 75.4511 99.7928 75.4511C95.4998 75.4511 92.2467 76.4687 90.1192 78.4721C89.8076 78.7678 89.4101 78.9141 89.0126 78.9141Z" fill="url(#paint30_linear)"/>
<path d="M101.108 110.682V109.964C106.184 109.964 109.946 108.663 111.987 106.205C113.504 104.38 113.549 102.561 113.549 102.542L114.267 102.551C114.267 102.637 114.216 104.643 112.54 106.663C111.017 108.498 107.799 110.682 101.108 110.682Z" fill="#01063D"/>
<path d="M102.906 110.205C102.906 110.997 101.863 111.64 100.571 111.64C99.2835 111.64 98.2373 110.997 98.2373 110.205C98.2373 109.414 99.2803 108.771 100.571 108.771C101.859 108.768 102.906 109.41 102.906 110.205Z" fill="#01063D"/>
<path opacity="0.5" d="M124.561 141.713C123.693 143.016 124.488 136.793 124.126 133.537C124.126 133.537 123.661 142.225 122.008 150.067C122.561 149.863 123.083 149.659 123.572 149.456C124.428 146.381 125.652 141.449 126.151 136.936C126.151 136.939 125.429 140.412 124.561 141.713ZM76.5815 141.713C75.7133 140.409 74.9883 136.936 74.9883 136.936C75.5193 141.77 76.8899 147.084 77.7422 150.079C78.2192 150.254 78.7216 150.429 79.2463 150.598C77.5005 142.622 77.0139 133.534 77.0139 133.534C76.6546 136.793 77.4496 143.016 76.5815 141.713Z" fill="url(#paint31_linear)"/>
</g>
<defs>
<filter id="filter0_bd" x="4" y="0" width="190" height="190" filterUnits="userSpaceOnUse" color-interpolation-filters="sRGB">
<feFlood flood-opacity="0" result="BackgroundImageFix"/>
<feGaussianBlur in="BackgroundImage" stdDeviation="6.5"/>
<feComposite in2="SourceAlpha" operator="in" result="effect1_backgroundBlur"/>
<feColorMatrix in="SourceAlpha" type="matrix" values="0 0 0 0 0 0 0 0 0 0 0 0 0 0 0 0 0 0 127 0" result="hardAlpha"/>
<feOffset/>
<feGaussianBlur stdDeviation="10.5"/>
<feColorMatrix type="matrix" values="0 0 0 0 0 0 0 0 0 0 0 0 0 0 0 0 0 0 0.59 0"/>
<feBlend mode="normal" in2="effect1_backgroundBlur" result="effect2_dropShadow"/>
<feBlend mode="normal" in="SourceGraphic" in2="effect2_dropShadow" result="shape"/>
</filter>
<filter id="filter1_d" x="27" y="28" width="144.769" height="148.622" filterUnits="userSpaceOnUse" color-interpolation-filters="sRGB">
<feFlood flood-opacity="0" result="BackgroundImageFix"/>
<feColorMatrix in="SourceAlpha" type="matrix" values="0 0 0 0 0 0 0 0 0 0 0 0 0 0 0 0 0 0 127 0" result="hardAlpha"/>
<feOffset dy="11"/>
<feGaussianBlur stdDeviation="6"/>
<feColorMatrix type="matrix" values="0 0 0 0 0 0 0 0 0 0 0 0 0 0 0 0 0 0 0.34 0"/>
<feBlend mode="normal" in2="BackgroundImageFix" result="effect1_dropShadow"/>
<feBlend mode="normal" in="SourceGraphic" in2="effect1_dropShadow" result="shape"/>
</filter>
<linearGradient id="paint0_linear" x1="49.2308" y1="12.1538" x2="68.0511" y2="39.1445" gradientUnits="userSpaceOnUse">
<stop stop-color="#2EDAE1"/>
<stop offset="1" stop-color="#04276B"/>
</linearGradient>
<linearGradient id="paint1_linear" x1="6.23077" y1="8" x2="13.93" y2="19.0416" gradientUnits="userSpaceOnUse">
<stop stop-color="#2EDAE1"/>
<stop offset="1" stop-color="#04276B"/>
</linearGradient>
<linearGradient id="paint2_linear" x1="172.231" y1="152" x2="179.93" y2="163.042" gradientUnits="userSpaceOnUse">
<stop stop-color="#2EDAE1"/>
<stop offset="1" stop-color="#04276B"/>
</linearGradient>
<linearGradient id="paint3_linear" x1="159.231" y1="3" x2="189.172" y2="45.9397" gradientUnits="userSpaceOnUse">
<stop stop-color="#2EDAE1"/>
<stop offset="1" stop-color="#04276B"/>
</linearGradient>
<linearGradient id="paint4_linear" x1="99" y1="21" x2="190.44" y2="152.136" gradientUnits="userSpaceOnUse">
<stop stop-color="#2EDAE1"/>
<stop offset="1" stop-color="#04276B"/>
</linearGradient>
<radialGradient id="paint5_angular" cx="0" cy="0" r="1" gradientUnits="userSpaceOnUse" gradientTransform="translate(99 95) rotate(85.5375) scale(149.775 167.523)">
<stop offset="0.351733" stop-color="white" stop-opacity="0"/>
<stop offset="0.491186" stop-color="white"/>
<stop offset="0.891676" stop-color="white" stop-opacity="0"/>
<stop offset="0.898828" stop-color="white" stop-opacity="0"/>
<stop offset="1" stop-color="white"/>
</radialGradient>
<linearGradient id="paint6_linear" x1="103.062" y1="35.9263" x2="94.9027" y2="44.7154" gradientUnits="userSpaceOnUse">
<stop stop-color="#FFD571"/>
<stop offset="0.2509" stop-color="#FFBD60"/>
<stop offset="0.7782" stop-color="#FF8035"/>
<stop offset="1" stop-color="#FF6421"/>
</linearGradient>
<linearGradient id="paint7_linear" x1="57.0589" y1="61.9204" x2="48.8901" y2="70.7059" gradientUnits="userSpaceOnUse">
<stop stop-color="#FFD571"/>
<stop offset="0.2509" stop-color="#FFBD60"/>
<stop offset="0.7782" stop-color="#FF8035"/>
<stop offset="1" stop-color="#FF6421"/>
</linearGradient>
<linearGradient id="paint8_linear" x1="158.056" y1="87.9202" x2="149.891" y2="96.7012" gradientUnits="userSpaceOnUse">
<stop stop-color="#FFD571"/>
<stop offset="0.2509" stop-color="#FFBD60"/>
<stop offset="0.7782" stop-color="#FF8035"/>
<stop offset="1" stop-color="#FF6421"/>
</linearGradient>
<linearGradient id="paint9_linear" x1="124.708" y1="48.2133" x2="117.877" y2="55.0584" gradientUnits="userSpaceOnUse">
<stop stop-color="#FFD571"/>
<stop offset="0.2509" stop-color="#FFBD60"/>
<stop offset="0.7782" stop-color="#FF8035"/>
<stop offset="1" stop-color="#FF6421"/>
</linearGradient>
<linearGradient id="paint10_linear" x1="127.998" y1="45.1432" x2="116.449" y2="56.4733" gradientUnits="userSpaceOnUse">
<stop stop-color="#FFD571"/>
<stop offset="0.2509" stop-color="#FFBD60"/>
<stop offset="0.7782" stop-color="#FF8035"/>
<stop offset="1" stop-color="#FF6421"/>
</linearGradient>
<linearGradient id="paint11_linear" x1="131.293" y1="42.0768" x2="115.029" y2="57.8927" gradientUnits="userSpaceOnUse">
<stop stop-color="#FFD571"/>
<stop offset="0.2509" stop-color="#FFBD60"/>
<stop offset="0.7782" stop-color="#FF8035"/>
<stop offset="1" stop-color="#FF6421"/>
</linearGradient>
<linearGradient id="paint12_linear" x1="146.114" y1="131.434" x2="138.142" y2="139.726" gradientUnits="userSpaceOnUse">
<stop stop-color="#FFD571"/>
<stop offset="0.2509" stop-color="#FFBD60"/>
<stop offset="0.7782" stop-color="#FF8035"/>
<stop offset="1" stop-color="#FF6421"/>
</linearGradient>
<linearGradient id="paint13_linear" x1="150.033" y1="131.603" x2="136.62" y2="145.423" gradientUnits="userSpaceOnUse">
<stop stop-color="#FFD571"/>
<stop offset="0.2509" stop-color="#FFBD60"/>
<stop offset="0.7782" stop-color="#FF8035"/>
<stop offset="1" stop-color="#FF6421"/>
</linearGradient>
<linearGradient id="paint14_linear" x1="153.946" y1="131.763" x2="135.092" y2="151.109" gradientUnits="userSpaceOnUse">
<stop stop-color="#FFD571"/>
<stop offset="0.2509" stop-color="#FFBD60"/>
<stop offset="0.7782" stop-color="#FF8035"/>
<stop offset="1" stop-color="#FF6421"/>
</linearGradient>
<linearGradient id="paint15_linear" x1="112.449" y1="34.9172" x2="105.83" y2="39.684" gradientUnits="userSpaceOnUse">
<stop stop-color="#FFD571"/>
<stop offset="0.2509" stop-color="#FFBD60"/>
<stop offset="0.7782" stop-color="#FF8035"/>
<stop offset="1" stop-color="#FF6421"/>
</linearGradient>
<linearGradient id="paint16_linear" x1="115.425" y1="32.4098" x2="104.39" y2="39.4272" gradientUnits="userSpaceOnUse">
<stop stop-color="#FFD571"/>
<stop offset="0.2509" stop-color="#FFBD60"/>
<stop offset="0.7782" stop-color="#FF8035"/>
<stop offset="1" stop-color="#FF6421"/>
</linearGradient>
<linearGradient id="paint17_linear" x1="118.401" y1="29.8977" x2="103.03" y2="39.1558" gradientUnits="userSpaceOnUse">
<stop stop-color="#FFD571"/>
<stop offset="0.2509" stop-color="#FFBD60"/>
<stop offset="0.7782" stop-color="#FF8035"/>
<stop offset="1" stop-color="#FF6421"/>
</linearGradient>
<linearGradient id="paint18_linear" x1="56.8835" y1="132.435" x2="52.4115" y2="140.928" gradientUnits="userSpaceOnUse">
<stop stop-color="#FFD571"/>
<stop offset="0.2509" stop-color="#FFBD60"/>
<stop offset="0.7782" stop-color="#FF8035"/>
<stop offset="1" stop-color="#FF6421"/>
</linearGradient>
<linearGradient id="paint19_linear" x1="58.9379" y1="134.661" x2="53.1498" y2="147.949" gradientUnits="userSpaceOnUse">
<stop stop-color="#FFD571"/>
<stop offset="0.2509" stop-color="#FFBD60"/>
<stop offset="0.7782" stop-color="#FF8035"/>
<stop offset="1" stop-color="#FF6421"/>
</linearGradient>
<linearGradient id="paint20_linear" x1="60.9947" y1="136.886" x2="53.84" y2="154.796" gradientUnits="userSpaceOnUse">
<stop stop-color="#FFD571"/>
<stop offset="0.2509" stop-color="#FFBD60"/>
<stop offset="0.7782" stop-color="#FF8035"/>
<stop offset="1" stop-color="#FF6421"/>
</linearGradient>
<linearGradient id="paint21_linear" x1="44.4183" y1="87.1267" x2="34.6283" y2="94.7685" gradientUnits="userSpaceOnUse">
<stop stop-color="#FFD571"/>
<stop offset="0.2509" stop-color="#FFBD60"/>
<stop offset="0.7782" stop-color="#FF8035"/>
<stop offset="1" stop-color="#FF6421"/>
</linearGradient>
<linearGradient id="paint22_linear" x1="50.7479" y1="87.2244" x2="40.9573" y2="95.3945" gradientUnits="userSpaceOnUse">
<stop stop-color="#FFD571"/>
<stop offset="0.2509" stop-color="#FFBD60"/>
<stop offset="0.7782" stop-color="#FF8035"/>
<stop offset="1" stop-color="#FF6421"/>
</linearGradient>
<linearGradient id="paint23_linear" x1="57.2038" y1="86.7836" x2="46.9818" y2="94.6037" gradientUnits="userSpaceOnUse">
<stop stop-color="#FFD571"/>
<stop offset="0.2509" stop-color="#FFBD60"/>
<stop offset="0.7782" stop-color="#FF8035"/>
<stop offset="1" stop-color="#FF6421"/>
</linearGradient>
<linearGradient id="paint24_linear" x1="108.097" y1="81.002" x2="99.4551" y2="99.6007" gradientUnits="userSpaceOnUse">
<stop stop-color="#FFD571"/>
<stop offset="0.2509" stop-color="#FFBD60"/>
<stop offset="0.7782" stop-color="#FF8035"/>
<stop offset="1" stop-color="#FF6421"/>
</linearGradient>
<linearGradient id="paint25_linear" x1="93.9997" y1="83.5313" x2="77.4739" y2="90.8611" gradientUnits="userSpaceOnUse">
<stop stop-color="#FFD571"/>
<stop offset="0.2509" stop-color="#FFBD60"/>
<stop offset="0.7782" stop-color="#FF8035"/>
<stop offset="1" stop-color="#FF6421"/>
</linearGradient>
<linearGradient id="paint26_linear" x1="112.337" y1="83.5313" x2="95.8108" y2="90.8611" gradientUnits="userSpaceOnUse">
<stop stop-color="#FFD571"/>
<stop offset="0.2509" stop-color="#FFBD60"/>
<stop offset="0.7782" stop-color="#FF8035"/>
<stop offset="1" stop-color="#FF6421"/>
</linearGradient>
<linearGradient id="paint27_linear" x1="111.691" y1="78.4648" x2="98.7395" y2="103.877" gradientUnits="userSpaceOnUse">
<stop stop-color="#FFD571"/>
<stop offset="0.2509" stop-color="#FFBD60"/>
<stop offset="0.7782" stop-color="#FF8035"/>
<stop offset="1" stop-color="#FF6421"/>
</linearGradient>
<linearGradient id="paint28_linear" x1="95.1724" y1="82.908" x2="80.2625" y2="94.776" gradientUnits="userSpaceOnUse">
<stop stop-color="#FFD571"/>
<stop offset="0.2509" stop-color="#FFBD60"/>
<stop offset="0.7782" stop-color="#FF8035"/>
<stop offset="1" stop-color="#FF6421"/>
</linearGradient>
<linearGradient id="paint29_linear" x1="112.574" y1="82.908" x2="97.6639" y2="94.776" gradientUnits="userSpaceOnUse">
<stop stop-color="#FFD571"/>
<stop offset="0.2509" stop-color="#FFBD60"/>
<stop offset="0.7782" stop-color="#FF8035"/>
<stop offset="1" stop-color="#FF6421"/>
</linearGradient>
<linearGradient id="paint30_linear" x1="111.856" y1="72.6865" x2="107.6" y2="89.5544" gradientUnits="userSpaceOnUse">
<stop stop-color="#FFD571"/>
<stop offset="0.2509" stop-color="#FFBD60"/>
<stop offset="0.7782" stop-color="#FF8035"/>
<stop offset="1" stop-color="#FF6421"/>
</linearGradient>
<linearGradient id="paint31_linear" x1="125.76" y1="134.715" x2="112.821" y2="176.462" gradientUnits="userSpaceOnUse">
<stop stop-color="#FFD571"/>
<stop offset="0.2509" stop-color="#FFBD60"/>
<stop offset="0.7782" stop-color="#FF8035"/>
<stop offset="1" stop-color="#FF6421"/>
</linearGradient>
</defs>
</svg>
