<svg width="52" height="16" viewBox="0 0 52 16" fill="none" xmlns="http://www.w3.org/2000/svg">
<path d="M0.63 7V-4.76837e-07H4.05C4.40333 -4.76837e-07 4.72667 0.053333 5.02 0.16C5.32 0.266666 5.57667 0.416666 5.79 0.609999C6.00333 0.796666 6.17 1.02333 6.29 1.29C6.41 1.55667 6.47 1.85 6.47 2.17C6.47 2.61 6.34333 3.00333 6.09 3.35C5.84333 3.69667 5.51333 3.95333 5.1 4.12L6.65 7H5.03L3.66 4.32H2.08V7H0.63ZM3.92 1.25H2.08V3.13H3.92C4.24667 3.13 4.50667 3.04333 4.7 2.87C4.9 2.69667 5 2.47 5 2.19C5 1.91 4.9 1.68333 4.7 1.51C4.50667 1.33667 4.24667 1.25 3.92 1.25ZM11.6944 6.35C11.3744 6.61 11.0444 6.8 10.7044 6.92C10.371 7.04 9.99771 7.1 9.58438 7.1C9.19104 7.1 8.82104 7.03 8.47438 6.89C8.13438 6.75 7.83771 6.56 7.58438 6.32C7.33771 6.08 7.14104 5.79667 6.99438 5.47C6.85438 5.13667 6.78438 4.78 6.78438 4.4C6.78438 4.02667 6.85104 3.67667 6.98438 3.35C7.12438 3.01667 7.31438 2.73 7.55438 2.49C7.79438 2.24333 8.07771 2.05 8.40438 1.91C8.73771 1.77 9.09104 1.7 9.46438 1.7C9.83104 1.7 10.171 1.77333 10.4844 1.92C10.8044 2.06 11.0777 2.25333 11.3044 2.5C11.5377 2.74667 11.7177 3.04333 11.8444 3.39C11.9777 3.73 12.0444 4.1 12.0444 4.5V4.86H8.16438C8.25771 5.18667 8.43771 5.45 8.70438 5.65C8.97104 5.85 9.28438 5.95 9.64438 5.95C9.87104 5.95 10.0844 5.91333 10.2844 5.84C10.4844 5.76667 10.6544 5.66333 10.7944 5.53L11.6944 6.35ZM9.43438 2.83C9.12104 2.83 8.85104 2.92667 8.62438 3.12C8.39771 3.30667 8.24104 3.56 8.15438 3.88H10.7044C10.6177 3.57333 10.4577 3.32333 10.2244 3.13C9.99771 2.93 9.73438 2.83 9.43438 2.83ZM12.8838 9.09V1.79H14.2338V2.22C14.4404 2.05333 14.6704 1.93 14.9238 1.85C15.1771 1.76333 15.4404 1.72 15.7138 1.72C16.0804 1.72 16.4238 1.79 16.7438 1.93C17.0704 2.07 17.3538 2.26 17.5938 2.5C17.8338 2.74 18.0204 3.02333 18.1538 3.35C18.2938 3.67667 18.3638 4.02667 18.3638 4.4C18.3638 4.77333 18.2938 5.12333 18.1538 5.45C18.0138 5.77667 17.8238 6.06 17.5838 6.3C17.3438 6.54 17.0571 6.73 16.7238 6.87C16.3971 7.00333 16.0471 7.07 15.6738 7.07C15.4204 7.07 15.1704 7.03667 14.9238 6.97C14.6838 6.89667 14.4604 6.79333 14.2538 6.66V9.09H12.8838ZM15.4938 2.89C15.2471 2.89 15.0171 2.93333 14.8038 3.02C14.5904 3.1 14.4071 3.22 14.2538 3.38V5.43C14.4004 5.57667 14.5804 5.69333 14.7938 5.78C15.0138 5.86667 15.2471 5.91 15.4938 5.91C15.9204 5.91 16.2804 5.76667 16.5738 5.48C16.8671 5.18667 17.0138 4.82667 17.0138 4.4C17.0138 3.97333 16.8638 3.61667 16.5638 3.33C16.2704 3.03667 15.9138 2.89 15.4938 2.89ZM23.9112 6.35C23.5912 6.61 23.2612 6.8 22.9212 6.92C22.5878 7.04 22.2145 7.1 21.8012 7.1C21.4078 7.1 21.0378 7.03 20.6912 6.89C20.3512 6.75 20.0545 6.56 19.8012 6.32C19.5545 6.08 19.3578 5.79667 19.2112 5.47C19.0712 5.13667 19.0012 4.78 19.0012 4.4C19.0012 4.02667 19.0678 3.67667 19.2012 3.35C19.3412 3.01667 19.5312 2.73 19.7712 2.49C20.0112 2.24333 20.2945 2.05 20.6212 1.91C20.9545 1.77 21.3078 1.7 21.6812 1.7C22.0478 1.7 22.3878 1.77333 22.7012 1.92C23.0212 2.06 23.2945 2.25333 23.5212 2.5C23.7545 2.74667 23.9345 3.04333 24.0612 3.39C24.1945 3.73 24.2612 4.1 24.2612 4.5V4.86H20.3812C20.4745 5.18667 20.6545 5.45 20.9212 5.65C21.1878 5.85 21.5012 5.95 21.8612 5.95C22.0878 5.95 22.3012 5.91333 22.5012 5.84C22.7012 5.76667 22.8712 5.66333 23.0112 5.53L23.9112 6.35ZM21.6512 2.83C21.3378 2.83 21.0678 2.92667 20.8412 3.12C20.6145 3.30667 20.4578 3.56 20.3712 3.88H22.9212C22.8345 3.57333 22.6745 3.32333 22.4412 3.13C22.2145 2.93 21.9512 2.83 21.6512 2.83ZM26.731 7.09C26.171 7.09 25.7143 6.94333 25.361 6.65C25.0077 6.35 24.831 5.96333 24.831 5.49C24.831 4.99667 25.021 4.61 25.401 4.33C25.781 4.05 26.3043 3.91 26.971 3.91C27.1843 3.91 27.3977 3.92667 27.611 3.96C27.8243 3.99333 28.0343 4.04333 28.241 4.11V3.74C28.241 3.44 28.1477 3.21333 27.961 3.06C27.7743 2.90667 27.501 2.83 27.141 2.83C26.921 2.83 26.681 2.86667 26.421 2.94C26.1677 3.00667 25.8777 3.11333 25.551 3.26L25.051 2.25C25.4577 2.06333 25.851 1.92333 26.231 1.83C26.6177 1.73667 26.9977 1.69 27.371 1.69C28.071 1.69 28.6143 1.86 29.001 2.2C29.3943 2.53333 29.591 3.00667 29.591 3.62V7H28.241V6.64C28.021 6.79333 27.7877 6.90667 27.541 6.98C27.301 7.05333 27.031 7.09 26.731 7.09ZM26.141 5.46C26.141 5.66 26.2277 5.82 26.401 5.94C26.5743 6.05333 26.8043 6.11 27.091 6.11C27.3177 6.11 27.5243 6.08333 27.711 6.03C27.9043 5.97 28.081 5.88667 28.241 5.78V5C28.0743 4.93333 27.8977 4.88667 27.711 4.86C27.531 4.82667 27.341 4.81 27.141 4.81C26.8277 4.81 26.581 4.87 26.401 4.99C26.2277 5.10333 26.141 5.26 26.141 5.46ZM31.1426 5.53V2.94H30.0726V1.79H31.1426V0.46L32.5126 0.149999V1.79H33.9926V2.94H32.5126V5.25C32.5126 5.49667 32.5659 5.67 32.6726 5.77C32.7792 5.87 32.9659 5.92 33.2326 5.92C33.3592 5.92 33.4792 5.91333 33.5926 5.9C33.7059 5.88 33.8292 5.84667 33.9626 5.8V6.92C33.8159 6.96667 33.6392 7.00333 33.4326 7.03C33.2259 7.06333 33.0492 7.08 32.9026 7.08C32.3226 7.08 31.8826 6.95 31.5826 6.69C31.2892 6.42333 31.1426 6.03667 31.1426 5.53ZM4.13 13.76C4.49667 13.76 4.84 13.6833 5.16 13.53C5.48 13.3767 5.76333 13.1567 6.01 12.87L6.96 13.81C6.62667 14.2033 6.2 14.5167 5.68 14.75C5.16667 14.9833 4.63667 15.1 4.09 15.1C3.56333 15.1 3.07 15.0067 2.61 14.82C2.15667 14.6333 1.76333 14.38 1.43 14.06C1.09667 13.74 0.833333 13.36 0.64 12.92C0.453333 12.48 0.36 12.0067 0.36 11.5C0.36 10.9933 0.456667 10.52 0.65 10.08C0.843333 9.63333 1.10667 9.25 1.44 8.93C1.77333 8.61 2.16667 8.35667 2.62 8.17C3.08 7.98333 3.57 7.89 4.09 7.89C4.65 7.89 5.19333 8.01 5.72 8.25C6.24667 8.48333 6.67333 8.8 7 9.2L6.02 10.17C5.77333 9.86333 5.48333 9.63 5.15 9.47C4.81667 9.30333 4.46333 9.22 4.09 9.22C3.77667 9.22 3.48 9.28 3.2 9.4C2.92667 9.51333 2.69 9.67333 2.49 9.88C2.29 10.08 2.13333 10.32 2.02 10.6C1.90667 10.8733 1.85 11.1733 1.85 11.5C1.85 11.82 1.90667 12.12 2.02 12.4C2.14 12.6733 2.3 12.91 2.5 13.11C2.70667 13.31 2.94667 13.47 3.22 13.59C3.5 13.7033 3.80333 13.76 4.13 13.76ZM8.85242 9.79V12.82C8.85242 13.1533 8.94909 13.42 9.14242 13.62C9.34242 13.82 9.60576 13.92 9.93242 13.92C10.1658 13.92 10.3724 13.8767 10.5524 13.79C10.7391 13.6967 10.8924 13.5667 11.0124 13.4V9.79H12.3824V15H11.0124V14.58C10.8124 14.7467 10.5891 14.8767 10.3424 14.97C10.0958 15.0567 9.82909 15.1 9.54242 15.1C8.94242 15.1 8.44909 14.9067 8.06242 14.52C7.67576 14.1267 7.48242 13.6267 7.48242 13.02V9.79H8.85242ZM13.0102 14.38L13.6902 13.47C13.9968 13.67 14.2868 13.82 14.5602 13.92C14.8335 14.0133 15.1068 14.06 15.3802 14.06C15.6868 14.06 15.9302 14.01 16.1102 13.91C16.2968 13.81 16.3902 13.6767 16.3902 13.51C16.3902 13.3767 16.3368 13.27 16.2302 13.19C16.1302 13.11 15.9668 13.0533 15.7402 13.02L14.7402 12.87C14.2268 12.79 13.8335 12.6233 13.5602 12.37C13.2935 12.1167 13.1602 11.78 13.1602 11.36C13.1602 10.86 13.3568 10.46 13.7502 10.16C14.1435 9.86 14.6702 9.71 15.3302 9.71C15.7102 9.71 16.0802 9.76667 16.4402 9.88C16.8002 9.98667 17.1435 10.1467 17.4702 10.36L16.8102 11.24C16.5235 11.0733 16.2502 10.95 15.9902 10.87C15.7302 10.7833 15.4668 10.74 15.2002 10.74C14.9535 10.74 14.7535 10.7867 14.6002 10.88C14.4535 10.9733 14.3802 11.0967 14.3802 11.25C14.3802 11.39 14.4335 11.5 14.5402 11.58C14.6535 11.6533 14.8368 11.7067 15.0902 11.74L16.0902 11.89C16.5968 11.9633 16.9868 12.13 17.2602 12.39C17.5402 12.65 17.6802 12.98 17.6802 13.38C17.6802 13.6267 17.6202 13.8567 17.5002 14.07C17.3868 14.2767 17.2302 14.4567 17.0302 14.61C16.8302 14.7633 16.5902 14.8833 16.3102 14.97C16.0302 15.0567 15.7268 15.1 15.4002 15.1C14.9268 15.1 14.4835 15.04 14.0702 14.92C13.6568 14.7933 13.3035 14.6133 13.0102 14.38ZM18.9746 13.53V10.94H17.9046V9.79H18.9746V8.46L20.3446 8.15V9.79H21.8246V10.94H20.3446V13.25C20.3446 13.4967 20.3979 13.67 20.5046 13.77C20.6113 13.87 20.7979 13.92 21.0646 13.92C21.1913 13.92 21.3113 13.9133 21.4246 13.9C21.5379 13.88 21.6613 13.8467 21.7946 13.8V14.92C21.6479 14.9667 21.4713 15.0033 21.2646 15.03C21.0579 15.0633 20.8813 15.08 20.7346 15.08C20.1546 15.08 19.7146 14.95 19.4146 14.69C19.1213 14.4233 18.9746 14.0367 18.9746 13.53ZM22.2141 12.4C22.2141 12.02 22.2841 11.6667 22.4241 11.34C22.5707 11.0067 22.7674 10.72 23.0141 10.48C23.2674 10.2333 23.5641 10.04 23.9041 9.9C24.2441 9.76 24.6074 9.69 24.9941 9.69C25.3807 9.69 25.7441 9.76 26.0841 9.9C26.4241 10.04 26.7174 10.2333 26.9641 10.48C27.2174 10.72 27.4141 11.0067 27.5541 11.34C27.7007 11.6667 27.7741 12.02 27.7741 12.4C27.7741 12.78 27.7007 13.1367 27.5541 13.47C27.4141 13.7967 27.2174 14.08 26.9641 14.32C26.7174 14.56 26.4241 14.75 26.0841 14.89C25.7441 15.03 25.3807 15.1 24.9941 15.1C24.6074 15.1 24.2441 15.03 23.9041 14.89C23.5641 14.75 23.2674 14.56 23.0141 14.32C22.7674 14.08 22.5707 13.7967 22.4241 13.47C22.2841 13.1367 22.2141 12.78 22.2141 12.4ZM24.9941 13.91C25.3941 13.91 25.7341 13.7633 26.0141 13.47C26.2941 13.1767 26.4341 12.82 26.4341 12.4C26.4341 11.9733 26.2941 11.6133 26.0141 11.32C25.7341 11.0267 25.3941 10.88 24.9941 10.88C24.5941 10.88 24.2541 11.0267 23.9741 11.32C23.6941 11.6133 23.5541 11.9733 23.5541 12.4C23.5541 12.82 23.6941 13.1767 23.9741 13.47C24.2541 13.7633 24.5941 13.91 24.9941 13.91ZM28.6162 15V9.79H29.9862V10.18C30.1728 10.02 30.3795 9.9 30.6062 9.82C30.8328 9.73333 31.0795 9.69 31.3462 9.69C31.6795 9.69 31.9795 9.76 32.2462 9.9C32.5195 10.0333 32.7428 10.2233 32.9162 10.47C33.1228 10.2167 33.3728 10.0233 33.6662 9.89C33.9595 9.75667 34.2828 9.69 34.6362 9.69C35.2162 9.69 35.6928 9.88333 36.0662 10.27C36.4395 10.6567 36.6262 11.1533 36.6262 11.76V15H35.2562V11.96C35.2562 11.6333 35.1662 11.37 34.9862 11.17C34.8128 10.97 34.5762 10.87 34.2762 10.87C34.0695 10.87 33.8795 10.9167 33.7062 11.01C33.5395 11.0967 33.3962 11.2233 33.2762 11.39C33.2828 11.45 33.2895 11.51 33.2962 11.57C33.3028 11.63 33.3062 11.6933 33.3062 11.76V15H31.9362V11.96C31.9362 11.6333 31.8462 11.37 31.6662 11.17C31.4928 10.97 31.2562 10.87 30.9562 10.87C30.7495 10.87 30.5662 10.91 30.4062 10.99C30.2462 11.07 30.1062 11.1867 29.9862 11.34V15H28.6162ZM42.3487 14.35C42.0287 14.61 41.6987 14.8 41.3587 14.92C41.0253 15.04 40.652 15.1 40.2387 15.1C39.8453 15.1 39.4753 15.03 39.1287 14.89C38.7887 14.75 38.492 14.56 38.2387 14.32C37.992 14.08 37.7953 13.7967 37.6487 13.47C37.5087 13.1367 37.4387 12.78 37.4387 12.4C37.4387 12.0267 37.5053 11.6767 37.6387 11.35C37.7787 11.0167 37.9687 10.73 38.2087 10.49C38.4487 10.2433 38.732 10.05 39.0587 9.91C39.392 9.77 39.7453 9.7 40.1187 9.7C40.4853 9.7 40.8253 9.77333 41.1387 9.92C41.4587 10.06 41.732 10.2533 41.9587 10.5C42.192 10.7467 42.372 11.0433 42.4987 11.39C42.632 11.73 42.6987 12.1 42.6987 12.5V12.86H38.8187C38.912 13.1867 39.092 13.45 39.3587 13.65C39.6253 13.85 39.9387 13.95 40.2987 13.95C40.5253 13.95 40.7387 13.9133 40.9387 13.84C41.1387 13.7667 41.3087 13.6633 41.4487 13.53L42.3487 14.35ZM40.0887 10.83C39.7753 10.83 39.5053 10.9267 39.2787 11.12C39.052 11.3067 38.8953 11.56 38.8087 11.88H41.3587C41.272 11.5733 41.112 11.3233 40.8787 11.13C40.652 10.93 40.3887 10.83 40.0887 10.83ZM43.538 15V9.79H44.908V10.36C45.0747 10.1333 45.2747 9.96333 45.508 9.85C45.748 9.73 46.0114 9.67 46.298 9.67C46.4314 9.67667 46.5414 9.69 46.628 9.71C46.7214 9.72333 46.8014 9.75 46.868 9.79V10.99C46.768 10.9433 46.658 10.91 46.538 10.89C46.418 10.8633 46.2947 10.85 46.168 10.85C45.9014 10.85 45.6547 10.9167 45.428 11.05C45.208 11.1833 45.0347 11.3767 44.908 11.63V15H43.538ZM47.2289 14.38L47.9089 13.47C48.2156 13.67 48.5056 13.82 48.7789 13.92C49.0522 14.0133 49.3256 14.06 49.5989 14.06C49.9056 14.06 50.1489 14.01 50.3289 13.91C50.5156 13.81 50.6089 13.6767 50.6089 13.51C50.6089 13.3767 50.5556 13.27 50.4489 13.19C50.3489 13.11 50.1856 13.0533 49.9589 13.02L48.9589 12.87C48.4456 12.79 48.0522 12.6233 47.7789 12.37C47.5122 12.1167 47.3789 11.78 47.3789 11.36C47.3789 10.86 47.5756 10.46 47.9689 10.16C48.3622 9.86 48.8889 9.71 49.5489 9.71C49.9289 9.71 50.2989 9.76667 50.6589 9.88C51.0189 9.98667 51.3622 10.1467 51.6889 10.36L51.0289 11.24C50.7422 11.0733 50.4689 10.95 50.2089 10.87C49.9489 10.7833 49.6856 10.74 49.4189 10.74C49.1722 10.74 48.9722 10.7867 48.8189 10.88C48.6722 10.9733 48.5989 11.0967 48.5989 11.25C48.5989 11.39 48.6522 11.5 48.7589 11.58C48.8722 11.6533 49.0556 11.7067 49.3089 11.74L50.3089 11.89C50.8156 11.9633 51.2056 12.13 51.4789 12.39C51.7589 12.65 51.8989 12.98 51.8989 13.38C51.8989 13.6267 51.8389 13.8567 51.7189 14.07C51.6056 14.2767 51.4489 14.4567 51.2489 14.61C51.0489 14.7633 50.8089 14.8833 50.5289 14.97C50.2489 15.0567 49.9456 15.1 49.6189 15.1C49.1456 15.1 48.7022 15.04 48.2889 14.92C47.8756 14.7933 47.5222 14.6133 47.2289 14.38Z" fill="#F9BC4C" fill-opacity="0.48"/>
</svg>
