<svg width="46" height="46" viewBox="0 0 46 46" fill="none" xmlns="http://www.w3.org/2000/svg">
<path d="M23 46C35.7025 46 46 35.7025 46 23C46 10.2975 35.7025 0 23 0C10.2975 0 0 10.2975 0 23C0 35.7025 10.2975 46 23 46Z" fill="url(#paint0_linear)"/>
<path d="M9.57262 22.7997L25.0611 16.4182C26.59 15.7535 31.7749 13.6263 31.7749 13.6263C31.7749 13.6263 34.168 12.6957 33.9686 14.9558C33.9021 15.8864 33.3703 19.1437 32.8385 22.6668L31.1767 33.1032C31.1767 33.1032 31.0437 34.6321 29.9137 34.898C28.7836 35.1639 26.9223 33.9674 26.59 33.7015C26.3241 33.5021 21.6044 30.5107 19.8761 29.0483C19.4108 28.6495 18.879 27.8518 19.9426 26.9211C22.3356 24.7275 25.194 22.0021 26.9223 20.2737C27.72 19.476 28.5177 17.6148 25.194 19.8749L15.8212 26.1899C15.8212 26.1899 14.7576 26.8547 12.7634 26.2564C10.7692 25.6581 8.44257 24.8604 8.44257 24.8604C8.44257 24.8604 6.84719 23.8633 9.57262 22.7997Z" fill="white"/>
<defs>
<linearGradient id="paint0_linear" x1="30.6684" y1="7.66844" x2="19.1684" y2="34.5" gradientUnits="userSpaceOnUse">
<stop stop-color="#37AEE2"/>
<stop offset="1" stop-color="#1E96C8"/>
</linearGradient>
</defs>
</svg>
