<svg width="52" height="52" viewBox="0 0 52 52" fill="none" xmlns="http://www.w3.org/2000/svg">
<g clip-path="url(#clip0)">
<path d="M44.4236 7.55667C39.5353 2.68652 33.0353 0.00297139 26.11 0C11.8394 0 0.226001 11.5586 0.220288 25.7658C0.218625 30.3072 1.41047 34.7403 3.67585 38.6479L0.00292969 52L13.7274 48.4171C17.5087 50.4702 21.7663 51.5521 26.0989 51.5539H26.1099H26.11C40.3783 51.5539 51.9935 39.9932 51.9996 25.7867C52.002 18.9012 49.3113 12.4272 44.4236 7.55667ZM26.11 47.2019H26.1016C22.2397 47.1999 18.4526 46.1676 15.1494 44.2161L14.3633 43.7522L6.21888 45.8781L8.39332 37.9753L7.88113 37.165C5.72694 33.7549 4.58971 29.814 4.59133 25.7675C4.59607 13.9589 14.2487 4.35211 26.1182 4.35211C31.866 4.35449 37.2683 6.58507 41.3313 10.633C45.3941 14.6809 47.6298 20.062 47.6281 25.7849C47.6231 37.5938 37.9701 47.2019 26.11 47.2019Z" fill="#E0E0E0"/>
<path d="M1.19043 50.5181L4.69558 37.7759C2.53312 34.0468 1.39594 29.8159 1.3973 25.4828C1.40297 11.9248 12.486 0.894531 26.1035 0.894531C32.7128 0.897503 38.916 3.45833 43.58 8.10614C48.2449 12.7539 50.8124 18.9318 50.8098 25.502C50.8041 39.0603 39.7204 50.0916 26.1045 50.0916C26.1035 50.0916 26.1052 50.0916 26.1045 50.0916H26.0935C21.9588 50.0903 17.8961 49.0569 14.2877 47.099L1.19043 50.5181Z" fill="url(#paint0_linear)"/>
<path fill-rule="evenodd" clip-rule="evenodd" d="M19.7114 14.8269C19.2324 13.7666 18.7281 13.7454 18.2724 13.7269C17.8997 13.7109 17.473 13.7119 17.047 13.7119C16.6206 13.7119 15.9278 13.8714 15.3419 14.5085C14.7557 15.1456 13.1035 16.6856 13.1035 19.8179C13.1035 22.9504 15.3952 25.9772 15.7146 26.4023C16.0344 26.8268 20.1384 33.4601 26.6381 36.0119C32.0398 38.1327 33.1391 37.7109 34.3116 37.6047C35.4841 37.4986 38.0948 36.065 38.6278 34.5783C39.1607 33.0919 39.1607 31.8178 39.0008 31.5515C38.841 31.2862 38.4146 31.127 37.7751 30.8087C37.1355 30.4903 33.9918 28.9499 33.4056 28.7376C32.8193 28.5254 32.393 28.4193 31.9666 29.0567C31.5402 29.6934 30.3154 31.127 29.9424 31.5515C29.5693 31.977 29.1962 32.03 28.5567 31.7117C27.9172 31.3923 25.8576 30.7208 23.4144 28.5519C21.5135 26.8646 20.23 24.7806 19.857 24.1432C19.4839 23.5065 19.817 23.1616 20.1378 22.8442C20.4249 22.559 20.7773 22.101 21.0971 21.7293C21.4162 21.3575 21.5227 21.0922 21.7359 20.6677C21.9491 20.2426 21.8425 19.8709 21.6826 19.5525C21.5227 19.2341 20.28 16.0857 19.7114 14.8269Z" fill="white"/>
<path d="M44.2105 7.47581C39.3783 2.66156 32.9529 0.00887321 26.1072 0.00585938C12.0004 0.00585938 0.520318 11.4318 0.514647 25.4759C0.512985 29.9652 1.69114 34.3473 3.93051 38.2101L0.299805 51.4089L13.8667 47.8671C17.6047 49.8966 21.8133 50.9662 26.0962 50.9678H26.1071H26.1072C40.2117 50.9678 51.6935 39.5399 51.6995 25.4964C51.7018 18.6901 49.0421 12.2904 44.2105 7.47581ZM26.1072 46.666H26.0989C22.2813 46.664 18.5377 45.6436 15.2724 43.7145L14.4952 43.2558L6.44437 45.3574L8.59382 37.5452L8.08752 36.7443C5.95807 33.3733 4.83389 29.4777 4.83555 25.4776C4.8402 13.8046 14.382 4.30809 26.1152 4.30809C31.7972 4.31043 37.1373 6.51541 41.1538 10.5169C45.1699 14.5183 47.3799 19.8376 47.3783 25.4949C47.3733 37.1681 37.8311 46.666 26.1072 46.666Z" fill="white"/>
</g>
<defs>
<linearGradient id="paint0_linear" x1="26.0001" y1="50.5181" x2="26.0001" y2="0.894614" gradientUnits="userSpaceOnUse">
<stop stop-color="#20B038"/>
<stop offset="1" stop-color="#60D66A"/>
</linearGradient>
<clipPath id="clip0">
<rect width="52" height="52" fill="white"/>
</clipPath>
</defs>
</svg>
