<svg width="0" height="0" class="hidden">
  <symbol fill="none" xmlns="http://www.w3.org/2000/svg" viewBox="0 0 157 38" id="logo">
    <path d="M68.79 28.85h-3.024V15.107h3.024v1.82a6.572 6.572 0 015.037-2.183c3.247 0 5.099 2.157 5.099 5.71v8.396h-3.021v-7.724c0-2.686-1.428-3.556-3.222-3.556a4.847 4.847 0 00-3.887 2.23l-.006 9.05zm13.794 0V15.107h3.024V28.85h-3.024zm0-16.356v-2.9h3.024v2.9h-3.024zm6.125 15.321v-2.868a9.7 9.7 0 005.599 1.65c1.911 0 3.023-.614 3.023-1.621 0-.532-.337-.838-.84-1.093a10.899 10.899 0 00-1.314-.418l-1.708-.42c-3.135-.784-4.617-1.912-4.617-4.283 0-2.492 2.154-4.03 5.819-4.03 2.1 0 3.808.42 5.066 1.232v2.77a10.078 10.078 0 00-4.951-1.4c-1.877 0-2.83.616-2.83 1.51 0 .533.366.842.87 1.094.319.14.956.319 1.316.42l1.593.335c3.136.701 4.703 2.157 4.703 4.34 0 2.488-2.406 4.168-5.99 4.168-2.323.012-4.534-.574-5.739-1.386zm16.598-10.047h-2.938v-2.66h2.938v-4.003h3.024v4.002h4.337v2.66h-4.337v6.466c0 1.568.698 2.212 2.154 2.212a4.365 4.365 0 002.071-.504v2.603c-.637.446-1.679.67-3.049.67-2.575 0-4.2-1.428-4.2-4.114v-7.332zm11.646 9.349a6.898 6.898 0 01-2.129-5.14 6.883 6.883 0 012.129-5.134c1.427-1.398 3.221-2.1 5.416-2.1 2.196 0 3.977.702 5.417 2.1a6.877 6.877 0 012.123 5.134 7.019 7.019 0 01-2.123 5.14c-1.427 1.398-3.218 2.096-5.417 2.096-2.198 0-3.992-.698-5.416-2.096zm8.651-1.877a4.437 4.437 0 001.274-3.276 4.52 4.52 0 10-9.043 0 4.454 4.454 0 001.285 3.266 4.459 4.459 0 003.249 1.326 4.382 4.382 0 003.232-1.316h.003zm7.017 3.61V15.107h3.024v2.38c.924-1.593 2.938-2.743 5.066-2.743a.852.852 0 01.281.028v3.024a7.28 7.28 0 00-.841-.057c-2.154 0-3.862 1.259-4.506 2.686v8.425h-3.024zM48.862 9.594h-7.205l1.73 2.9h5.475v-2.9zm10.272 0v11.427c0 3.668-2.042 5.656-5.149 5.656s-5.124-1.995-5.124-5.656V15.05h-3.078v5.853c0 2.772.755 4.898 2.269 6.411 1.514 1.514 3.505 2.23 5.933 2.23s4.394-.748 5.93-2.258c1.536-1.51 2.294-3.64 2.294-6.373V9.594h-3.075z" fill="#fff"></path>
    <path d="M15.35 9.746a1.115 1.115 0 01-.323-.032l-1.132-.508c.156-.089.327-.152.507-.184a1.41 1.41 0 01.4.009l1.074.538a1.44 1.44 0 01-.526.177z" stroke="#0CC0D8"></path>
    <path d="M35.625 19.11a19.224 19.224 0 00-.927-5.469.777.777 0 00-1.497.105 11.373 11.373 0 01-2.913 5.736c-.825.85-3.83 3.639-8.042 3.355-.864-.06-2.868-.197-4.65-1.727a7.01 7.01 0 01-1.911-2.667c-.126-.3-.233-.61-.319-.924a5.57 5.57 0 00.609-.022.726.726 0 00.344-.115 9.42 9.42 0 018.715-.637.78.78 0 00.92-.236l2.097-2.68a.769.769 0 00.08-.825l-.8-1.593a.777.777 0 00-.338-.341l-7.816-4.034 2.55-5.962a.777.777 0 00-1.234-.88L15.13 5.127l-.88-.424.214-1.657a.776.776 0 00-.956-.85 17.787 17.787 0 00-5.872 2.65 18.016 18.016 0 00-3.062 2.735A17.312 17.312 0 00.01 18.736a18.481 18.481 0 00.468 4.809 17.69 17.69 0 0012.787 13.227c2.875.761 5.894.802 8.788.117.58-.136 1.152-.303 1.715-.5a18.386 18.386 0 009.157-7.24 17.24 17.24 0 002.231-5.283c.36-1.558.518-3.157.468-4.757zM22.14 24.385c1.44.096 2.883-.104 4.242-.59 1.9-.69 3.619-1.8 5.028-3.25a12.487 12.487 0 002.453-3.715c.376 2.374.259 4.8-.344 7.128a12.945 12.945 0 01-2.622 1.43 11.99 11.99 0 01-5.417.851 11.847 11.847 0 01-6.268-2.428c.185.067.373.131.564.188.772.214 1.565.344 2.364.386zm-.446 10.993a16.448 16.448 0 01-15.208-4.161 16.225 16.225 0 01-4.493-8.02 16.93 16.93 0 01-.418-4.407A15.767 15.767 0 015.718 8.619a16.936 16.936 0 012.797-2.498 16.08 16.08 0 013.878-1.988l.382-.128-.133 1.046a.771.771 0 00.433.809l1.858.895a.784.784 0 00.863-.127l3.082-2.836-1.415 3.295a.78.78 0 00.357.997l8.224 4.254.468.924-1.42 1.823a10.965 10.965 0 00-9.417.876 4.901 4.901 0 01-1.086-.067.41.41 0 00-.083 0 3.923 3.923 0 01-2.725-1.912 3.967 3.967 0 01-.296-2.804.777.777 0 10-1.504-.382 5.439 5.439 0 00.437 3.932 5.416 5.416 0 003.294 2.555c.026.121.055.246.083.367-.034 1.427.12 2.852.462 4.238a14.36 14.36 0 001.303 3.393 12.396 12.396 0 002.639 3.352 13.42 13.42 0 005.901 3.008c1.442.32 2.927.398 4.394.23a16.081 16.081 0 01-6.8 3.508zm8.763-5.493a11.724 11.724 0 01-11.213-2.41 11.05 11.05 0 01-2.842-4.056c1.733 1.791 4.712 4.038 8.947 4.369 1.87.143 3.75-.107 5.52-.733.203-.07.404-.146.605-.226a15.5 15.5 0 001.239-.574c-.314.714-.68 1.403-1.096 2.062-.353.546-.74 1.07-1.16 1.568z" fill="#2EDAE1"></path>
    <path d="M157 27.82c0-.394-.022-.793-.035-1.19V14.924h-3.021v9.04a4.84 4.84 0 01-3.89 2.23c-1.794 0-3.219-.866-3.219-3.552v-7.718h-3.023v8.396c0 2.084.637 3.687 1.813 4.66 1.058.866 2.291.955 3.278 1.05a6.78 6.78 0 003.783-.617 6.23 6.23 0 001.23-.823v.192c.017.428-.024.857-.121 1.274-.345 1.456-1.485 3.107-3.117 3.505a3.405 3.405 0 01-.879.099s-5.417 0-5.873-.026l2.17 2.967c.456.026 3.703.045 3.703.045a7.241 7.241 0 004.815-1.912 8.222 8.222 0 002.214-4.178A8.441 8.441 0 00157 27.82z" fill="#fff"></path>
  </symbol>
  
  <symbol version="1.1" id="slider-arrow" xmlns="http://www.w3.org/2000/svg" xmlns:xlink="http://www.w3.org/1999/xlink" x="0px" y="0px" xml:space="preserve" viewBox="0 0 492.004 492.004">
    <g>
      <g>
        <path d="M382.678,226.804L163.73,7.86C158.666,2.792,151.906,0,144.698,0s-13.968,2.792-19.032,7.86l-16.124,16.12
			c-10.492,10.504-10.492,27.576,0,38.064L293.398,245.9l-184.06,184.06c-5.064,5.068-7.86,11.824-7.86,19.028
			c0,7.212,2.796,13.968,7.86,19.04l16.124,16.116c5.068,5.068,11.824,7.86,19.032,7.86s13.968-2.792,19.032-7.86L382.678,265
			c5.076-5.084,7.864-11.872,7.848-19.088C390.542,238.668,387.754,231.884,382.678,226.804z"></path>
      </g>
    </g>
    <g></g>
    <g></g>
    <g></g>
    <g></g>
    <g></g>
    <g></g>
    <g></g>
    <g></g>
    <g></g>
    <g></g>
    <g></g>
    <g></g>
    <g></g>
    <g></g>
    <g></g>
  </symbol>
</svg>