<svg width="28" height="35" viewBox="0 0 28 35" fill="none" xmlns="http://www.w3.org/2000/svg">
<path d="M2.2615 35V29.576L15.7495 17.864C16.9655 16.776 17.8455 15.784 18.3895 14.888C18.9655 13.992 19.2535 13.048 19.2535 12.056C19.2535 10.776 18.7415 9.72 17.7175 8.888C16.6935 8.024 15.3975 7.592 13.8295 7.592C12.2615 7.592 10.7895 7.912 9.4135 8.552C8.0695 9.192 6.5815 10.248 4.9495 11.72L0.6295 6.536C2.6455 4.712 4.7895 3.336 7.0615 2.408C9.3655 1.448 11.7175 0.967998 14.1175 0.967998C16.0055 0.967998 17.7335 1.224 19.3015 1.736C20.8695 2.248 22.1975 2.968 23.2855 3.896C24.4055 4.824 25.2695 5.944 25.8775 7.256C26.5175 8.568 26.8375 10.008 26.8375 11.576C26.8375 13.432 26.3415 15.192 25.3495 16.856C24.3895 18.488 22.8055 20.264 20.5975 22.184L13.2055 28.52H27.1735V35H2.2615Z" fill="white" fill-opacity="0.73"/>
</svg>
