<svg width="20" height="20" viewBox="0 0 20 20" fill="none" xmlns="http://www.w3.org/2000/svg">
<path fill-rule="evenodd" clip-rule="evenodd" d="M0 10C0 15.52 4.49 20 10 20L10.2798 19.9962C15.6706 19.8478 20 15.4264 20 10C20 4.49 15.52 0 10 0C4.49 0 0 4.49 0 10ZM11.98 6C12.27 6.3 12.27 6.77 11.97 7.06L9.02 10L11.97 12.94C12.27 13.23 12.27 13.71 11.98 14C11.68 14.3 11.21 14.3 10.92 14L7.43 10.53C7.29 10.39 7.21 10.2 7.21 10C7.21 9.8 7.29 9.61 7.43 9.47L10.92 6C11.06 5.85 11.25 5.78 11.44 5.78C11.64 5.78 11.83 5.85 11.98 6Z" fill="white"/>
</svg>
