<svg width="162" height="161" viewBox="0 0 162 161" fill="none" xmlns="http://www.w3.org/2000/svg">
<circle cx="40.7145" cy="25.6711" r="12.2868" fill="url(#paint0_linear)"/>
<circle cx="139.94" cy="131.226" r="5.02641" fill="url(#paint1_linear)"/>
<circle cx="129.452" cy="25.5472" r="19.5472" fill="url(#paint2_linear)"/>
<path d="M134.523 19.6392V29.4792H136.611V32.7192H134.523V36.4392H130.635V32.7192H121.179V29.5752L129.987 19.6392H134.523ZM125.619 29.4792H130.635V23.8392L125.619 29.4792Z" fill="white"/>
<g filter="url(#filter0_bd)">
<rect x="21" y="21" width="120" height="119" rx="59.5" fill="url(#paint3_linear)"/>
<rect x="21.5" y="21.5" width="119" height="118" rx="59" stroke="url(#paint4_angular)" stroke-opacity="0.25"/>
</g>
<g filter="url(#filter1_d)">
<path d="M62.1217 46.4695C62.1464 46.6783 62.1312 46.8928 62.0762 47.113C62.0211 47.3332 61.9319 47.5288 61.8104 47.7015C61.799 48.2406 61.6263 48.6563 61.296 48.9506C60.941 49.2809 60.4209 49.446 59.7337 49.446H59.3294C58.8149 49.446 58.3441 49.391 57.9151 49.2809C57.6702 49.2201 57.3646 49.1157 56.9964 48.9677C56.7761 48.8822 56.6167 48.8215 56.518 48.7835C56.3585 48.7342 56.2048 48.7095 56.0586 48.7095C56.0225 48.8329 55.9523 48.9354 55.8479 49.0227C55.7435 49.1081 55.6239 49.1518 55.4891 49.1518H54.3141C54.1546 49.1518 54.0179 49.093 53.9002 48.9772C53.7844 48.8614 53.7256 48.7228 53.7256 48.5633V44.1536C53.7256 43.9941 53.7844 43.8575 53.9002 43.7398C54.016 43.624 54.1546 43.5651 54.3141 43.5651H56.1326C56.2541 43.455 56.4629 43.2063 56.7572 42.821C57.0514 42.4356 57.2659 42.1756 57.4007 42.0408C57.45 41.9914 57.5051 41.8149 57.5658 41.5074C57.6759 41.067 57.786 40.748 57.8961 40.5525C58.0917 40.2089 58.3612 40.0381 58.7048 40.0381C59.2553 40.0381 59.6843 40.1918 59.99 40.4975C60.3089 40.8278 60.4683 41.3175 60.4683 41.9668C60.4683 42.2477 60.4133 42.5305 60.3032 42.8115H60.9638C61.4042 42.8115 61.7782 42.971 62.0838 43.2899C62.3894 43.6088 62.5432 43.9752 62.5432 44.3928C62.5432 44.7117 62.4577 45.0173 62.285 45.3116C62.3742 45.7159 62.3192 46.1012 62.1217 46.4695ZM55.2139 47.6635C55.1284 47.5781 55.024 47.5345 54.9006 47.5345C54.7772 47.5345 54.6747 47.5781 54.5874 47.6635C54.502 47.749 54.4583 47.8534 54.4583 47.9768C54.4583 48.0982 54.502 48.2027 54.5874 48.29C54.6728 48.3754 54.7772 48.4191 54.9006 48.4191C55.024 48.4191 55.1265 48.3754 55.2139 48.29C55.2993 48.2046 55.3429 48.1001 55.3429 47.9768C55.3429 47.8534 55.2993 47.749 55.2139 47.6635ZM61.4517 45.6703C61.4573 45.4311 61.3928 45.2394 61.258 45.0913C61.3435 45.0913 61.4327 45.0173 61.5238 44.8711C61.6149 44.725 61.6624 44.5655 61.6624 44.3928C61.6624 44.2219 61.594 44.0625 61.4611 43.9144C61.3264 43.7682 61.1612 43.6942 60.9657 43.6942H59.0541C59.0541 43.548 59.0845 43.3943 59.1452 43.2348C59.1699 43.1494 59.2249 43.0203 59.3104 42.8495C59.3958 42.6786 59.4565 42.5438 59.4945 42.4451C59.5553 42.2857 59.5856 42.1262 59.5856 41.9668C59.5856 41.6478 59.5496 41.4162 59.4755 41.2682C59.3407 41.0347 59.0845 40.9189 58.7048 40.9189C58.6441 40.9929 58.589 41.0973 58.5397 41.2302C58.515 41.3042 58.4846 41.4333 58.4485 41.6156C58.3992 41.8604 58.3574 42.0446 58.3195 42.1661C58.2454 42.3616 58.141 42.5268 58.0062 42.6615C57.9075 42.7602 57.731 42.9804 57.4728 43.3221C57.2033 43.6904 57.002 43.941 56.8673 44.0758C56.6338 44.3206 56.4383 44.444 56.2788 44.444H56.0776V47.861C56.2864 47.861 56.5123 47.8913 56.7572 47.9521C56.9033 47.9881 57.1254 48.0622 57.4178 48.1723C57.786 48.2938 58.067 48.3811 58.2625 48.4286C58.5928 48.514 58.9174 48.5576 59.2363 48.5576H59.9159C60.2709 48.5576 60.5348 48.4665 60.7056 48.2824C60.9011 48.0869 60.9695 47.7736 60.9068 47.3446C61.053 47.2592 61.1574 47.1092 61.2201 46.8947C61.2808 46.6802 61.2637 46.4809 61.165 46.2968C61.351 46.1202 61.446 45.9095 61.4517 45.6703Z" fill="white"/>
<path d="M118.407 58.0488L118.927 57.5286C118.971 57.485 119.018 57.4736 119.073 57.4964C119.128 57.5173 119.155 57.5609 119.155 57.6255V59.9812C119.155 60.1977 119.079 60.3818 118.927 60.5336C118.775 60.6855 118.591 60.7614 118.375 60.7614H112.655C112.439 60.7614 112.255 60.6855 112.103 60.5336C111.951 60.3818 111.875 60.1977 111.875 59.9812V54.2636C111.875 54.0472 111.951 53.863 112.103 53.7112C112.255 53.5593 112.439 53.4834 112.655 53.4834H117.107C117.162 53.4834 117.2 53.51 117.221 53.565C117.241 53.6201 117.232 53.6675 117.188 53.7112L116.668 54.2313C116.645 54.2522 116.619 54.2636 116.587 54.2636H112.655V59.9831H118.375V58.1304C118.375 58.0981 118.384 58.0716 118.407 58.0488ZM120.958 54.7666L116.685 59.0397L115.224 59.2029C115.007 59.2238 114.823 59.1593 114.671 59.0074C114.519 58.8556 114.455 58.6714 114.476 58.455L114.639 56.9933L118.912 52.7203C119.096 52.5361 119.32 52.4431 119.586 52.4431C119.852 52.4431 120.076 52.5361 120.26 52.7203L120.958 53.4188C121.142 53.603 121.235 53.827 121.235 54.0927C121.234 54.3585 121.142 54.5825 120.958 54.7666ZM119.349 55.2697L118.407 54.3281L115.385 57.3502L115.271 58.4057L116.326 58.2918L119.349 55.2697ZM120.406 53.9712L119.707 53.2727C119.675 53.2404 119.635 53.2233 119.586 53.2233C119.537 53.2233 119.497 53.2404 119.464 53.2727L118.961 53.7757L119.903 54.7173L120.406 54.2142C120.438 54.182 120.455 54.1421 120.455 54.0927C120.453 54.0434 120.438 54.0035 120.406 53.9712Z" fill="white"/>
<path d="M43.388 92.6585C44.153 93.1084 44.7605 93.7159 45.2104 94.4809C45.6603 95.2459 45.8862 96.0792 45.8862 96.979C45.8862 97.8788 45.6603 98.7122 45.2104 99.4772C44.7605 100.242 44.153 100.85 43.388 101.3C42.623 101.749 41.7897 101.973 40.8899 101.973C39.9901 101.973 39.1567 101.749 38.3917 101.3C37.6267 100.85 37.0192 100.242 36.5693 99.4772C36.1195 98.7122 35.8936 97.8788 35.8936 96.979C35.8936 96.0792 36.1195 95.2459 36.5693 94.4809C37.0192 93.7159 37.6267 93.1084 38.3917 92.6585C39.1567 92.2086 39.9901 91.9846 40.8899 91.9846C41.7897 91.9846 42.623 92.2086 43.388 92.6585ZM38.9631 93.6456C38.3727 93.993 37.902 94.4619 37.5565 95.0523C37.2091 95.6426 37.0363 96.2862 37.0363 96.9809C37.0363 97.6757 37.2091 98.3173 37.5565 98.9096C37.9038 99.5 38.3727 99.9688 38.9631 100.316C39.5535 100.664 40.197 100.836 40.8899 100.836C41.5846 100.836 42.2263 100.664 42.8166 100.316C43.407 99.9688 43.8778 99.5 44.2233 98.9096C44.5707 98.3192 44.7434 97.6757 44.7434 96.9809C44.7434 96.2862 44.5707 95.6445 44.2233 95.0523C43.8759 94.4619 43.407 93.993 42.8166 93.6456C42.2263 93.2982 41.5827 93.1255 40.8899 93.1255C40.197 93.1255 39.5535 93.2982 38.9631 93.6456ZM43.6671 95.804C43.6671 95.8685 43.6405 95.9198 43.5892 95.9578L40.2748 99.2551C40.2236 99.3063 40.1647 99.3329 40.1021 99.3329C40.0375 99.3329 39.9863 99.3063 39.9483 99.2551L38.1943 97.5011C38.143 97.4498 38.1165 97.391 38.1165 97.3283C38.1165 97.2638 38.143 97.2125 38.1943 97.1746L38.6385 96.7323C38.6765 96.6943 38.7277 96.6734 38.7923 96.6734C38.8568 96.6734 38.9137 96.6924 38.965 96.7323L40.1021 97.9073L42.8394 95.1889C42.8774 95.151 42.9286 95.1301 42.9932 95.1301C43.0577 95.1301 43.1147 95.1567 43.1659 95.2079L43.5892 95.6312C43.6405 95.6825 43.6671 95.7394 43.6671 95.804Z" fill="white"/>
<path d="M124.289 94.5934C124.479 94.7832 124.572 95.0129 124.572 95.2825V101.116C124.572 101.386 124.477 101.615 124.289 101.805C124.101 101.995 123.869 102.088 123.6 102.088H115.173C114.904 102.088 114.674 101.993 114.484 101.805C114.294 101.615 114.201 101.386 114.201 101.116V95.2825C114.201 95.0129 114.296 94.7832 114.484 94.5934C114.674 94.4036 114.904 94.3106 115.173 94.3106H123.6C123.871 94.3087 124.101 94.4036 124.289 94.5934ZM115.175 95.2806V96.1102C115.648 96.4879 116.559 97.2036 117.909 98.2571L118.091 98.4185C118.36 98.6482 118.577 98.8095 118.738 98.9045C118.994 99.0791 119.211 99.1683 119.387 99.1683C119.564 99.1683 119.778 99.081 120.035 98.9045C120.196 98.8095 120.412 98.6482 120.684 98.4185L120.866 98.2571C122.216 97.2169 123.129 96.5012 123.6 96.1102V95.2806H115.175ZM123.602 101.114V97.3479L121.251 99.212C120.914 99.4948 120.636 99.6979 120.42 99.8194C120.056 100.036 119.712 100.144 119.387 100.144C119.063 100.144 118.712 100.036 118.334 99.8194C118.131 99.6979 117.855 99.4948 117.504 99.212L115.175 97.3479V101.114H123.602Z" fill="white"/>
<path d="M82.8039 38.7738H79.0046C78.7457 38.7738 78.5361 38.5642 78.5361 38.3078V34.5085C78.5361 34.2496 78.7457 34.0425 79.0046 34.0425H82.8039C83.0628 34.0425 83.2724 34.252 83.2724 34.5085V38.3078C83.2724 38.5642 83.0628 38.7738 82.8039 38.7738ZM79.4706 37.8394H82.3355V34.9744H79.4706V37.8394Z" fill="url(#paint5_linear)"/>
<path d="M84.5618 34.4198C84.5618 34.4765 84.5396 34.5209 84.4952 34.5529L81.613 37.4178C81.5687 37.4622 81.5169 37.4844 81.4627 37.4844C81.4059 37.4844 81.3616 37.4622 81.3295 37.4178L79.8058 35.8942C79.7614 35.8498 79.7393 35.8005 79.7393 35.7438C79.7393 35.6871 79.7614 35.6427 79.8058 35.6106L80.1904 35.226C80.225 35.1915 80.2693 35.1767 80.3236 35.1767C80.3803 35.1767 80.4296 35.194 80.474 35.226L81.4627 36.2467L83.8419 33.8848C83.8764 33.8502 83.9208 33.8354 83.975 33.8354C84.0317 33.8354 84.081 33.8576 84.1254 33.902L84.4952 34.2718C84.5396 34.3138 84.5618 34.3631 84.5618 34.4198Z" fill="#1D262D"/>
<path d="M47.1364 58.9323H43.3371C43.0782 58.9323 42.8711 58.7227 42.8711 58.4639V54.6645C42.8711 54.4056 43.0807 54.196 43.3371 54.196H47.1364C47.3953 54.196 47.6049 54.4056 47.6049 54.6645V58.4639C47.6024 58.7227 47.3929 58.9323 47.1364 58.9323ZM43.8031 57.9979H46.668V55.1329H43.8031V57.9979Z" fill="url(#paint6_linear)"/>
<path d="M48.8938 54.5782C48.8938 54.6349 48.8717 54.6793 48.8273 54.7114L45.9451 57.5763C45.9007 57.6207 45.8514 57.6429 45.7947 57.6429C45.738 57.6429 45.6936 57.6207 45.6615 57.5763L44.1379 56.0526C44.0935 56.0082 44.0713 55.9589 44.0713 55.9022C44.0713 55.8455 44.0935 55.8011 44.1379 55.7691L44.5225 55.3844C44.557 55.3499 44.6014 55.3351 44.6556 55.3351C44.7123 55.3351 44.7616 55.3524 44.806 55.3844L45.7947 56.4052L48.1739 54.0432C48.2084 54.0087 48.2528 53.9939 48.3071 53.9939C48.3638 53.9939 48.4131 54.0161 48.4574 54.0605L48.8248 54.4278C48.8717 54.4722 48.8938 54.5215 48.8938 54.5782Z" fill="#1D262D"/>
<path d="M125.444 79.0881H121.645C121.386 79.0881 121.179 78.8785 121.179 78.6221V74.8227C121.179 74.5638 121.388 74.3542 121.645 74.3542H125.444C125.703 74.3542 125.91 74.5638 125.91 74.8227V78.6221C125.912 78.8785 125.703 79.0881 125.444 79.0881ZM122.111 78.1536H124.976V75.2887H122.111V78.1536Z" fill="url(#paint7_linear)"/>
<path d="M127.202 74.734C127.202 74.7907 127.18 74.8351 127.136 74.8671L124.254 77.732C124.209 77.7764 124.16 77.7986 124.103 77.7986C124.047 77.7986 124.002 77.7764 123.97 77.732L122.446 76.2084C122.402 76.164 122.38 76.1147 122.38 76.058C122.38 76.0012 122.402 75.9569 122.446 75.9248L122.831 75.5402C122.866 75.5057 122.91 75.4909 122.964 75.4909C123.021 75.4909 123.07 75.5081 123.115 75.5402L124.103 76.5634L126.483 74.2014C126.515 74.1669 126.561 74.1521 126.616 74.1521C126.672 74.1521 126.722 74.1743 126.766 74.2187L127.133 74.586C127.18 74.6279 127.202 74.6773 127.202 74.734Z" fill="#1D262D"/>
<path d="M98.6429 47.3056C98.5073 47.1527 98.4309 46.9481 98.4457 46.7262C98.4703 46.349 98.3446 45.9816 98.0931 45.6981C97.8416 45.4146 97.4965 45.2444 97.1168 45.2198C96.6754 45.1927 96.3426 44.813 96.3697 44.3716C96.3968 43.9303 96.7765 43.5975 97.2179 43.6246C98.0216 43.6739 98.7588 44.0363 99.2914 44.6404C99.8239 45.2444 100.09 46.0211 100.041 46.8248C100.014 47.2662 99.6341 47.599 99.1927 47.5719C98.9708 47.5596 98.7785 47.4585 98.6429 47.3056Z" fill="url(#paint8_linear)"/>
<path d="M101.209 47.4656C101.073 47.3127 100.997 47.1081 101.012 46.8862C101.078 45.8211 100.726 44.7954 100.021 43.9942C99.3154 43.1953 98.3391 42.717 97.274 42.6504C96.8327 42.6233 96.4998 42.2436 96.5269 41.8023C96.5541 41.361 96.9338 41.0281 97.3726 41.0553C98.8643 41.1489 100.228 41.8171 101.216 42.9364C102.205 44.0558 102.696 45.4932 102.604 46.9848C102.577 47.4262 102.198 47.759 101.756 47.7319C101.539 47.722 101.345 47.6185 101.209 47.4656Z" fill="url(#paint9_linear)"/>
<path d="M103.779 47.6261C103.643 47.4732 103.567 47.2661 103.582 47.0467C103.693 45.2986 103.116 43.6097 101.952 42.2931C100.791 40.9765 99.1881 40.1925 97.4376 40.084C96.9962 40.0569 96.6609 39.6772 96.6881 39.2384C96.7152 38.797 97.0924 38.4642 97.5337 38.4888C99.7083 38.622 101.703 39.5983 103.148 41.2354C104.593 42.8725 105.312 44.9732 105.172 47.1477C105.145 47.5891 104.765 47.9219 104.324 47.8948C104.107 47.8825 103.914 47.7789 103.779 47.6261Z" fill="url(#paint10_linear)"/>
<g opacity="0.2">
<path opacity="0.2" d="M112.446 111.113C112.614 110.935 112.848 110.822 113.109 110.815C113.561 110.802 113.977 110.612 114.288 110.284C114.599 109.957 114.761 109.528 114.749 109.076C114.734 108.551 115.146 108.115 115.671 108.1C116.196 108.085 116.633 108.497 116.647 109.022C116.675 109.979 116.329 110.891 115.671 111.589C115.013 112.286 114.123 112.686 113.166 112.713C112.641 112.728 112.205 112.316 112.19 111.791C112.182 111.53 112.281 111.29 112.446 111.113Z" fill="url(#paint11_linear)"/>
<path opacity="0.2" d="M112.537 114.17C112.705 113.993 112.939 113.879 113.201 113.872C114.468 113.835 115.646 113.307 116.517 112.385C117.387 111.463 117.846 110.257 117.809 108.99C117.794 108.465 118.206 108.029 118.731 108.014C119.256 107.999 119.692 108.411 119.707 108.936C119.759 110.711 119.118 112.4 117.9 113.689C116.682 114.981 115.035 115.721 113.257 115.773C112.735 115.788 112.296 115.376 112.281 114.851C112.271 114.587 112.37 114.348 112.537 114.17Z" fill="url(#paint12_linear)"/>
<path opacity="0.2" d="M112.625 117.227C112.793 117.05 113.027 116.936 113.289 116.929C115.37 116.872 117.305 116.002 118.74 114.483C120.172 112.964 120.927 110.982 120.863 108.899C120.846 108.374 121.26 107.937 121.782 107.92C122.308 107.903 122.744 108.317 122.761 108.84C122.84 111.428 121.903 113.896 120.121 115.785C118.338 117.674 115.932 118.753 113.343 118.825C112.818 118.84 112.381 118.426 112.367 117.903C112.359 117.644 112.458 117.405 112.625 117.227Z" fill="url(#paint13_linear)"/>
</g>
<g opacity="0.2">
<path opacity="0.2" d="M89.0125 36.908C88.9385 36.7379 88.9311 36.5431 89.0051 36.3582C89.1308 36.0401 89.1259 35.6925 88.9903 35.3794C88.8547 35.0662 88.6057 34.8222 88.2876 34.6964C87.9178 34.5485 87.7378 34.1318 87.8857 33.762C88.0312 33.3922 88.4504 33.2122 88.8202 33.3601C89.4957 33.6289 90.0258 34.1441 90.3118 34.8098C90.5978 35.478 90.6101 36.2152 90.3414 36.8907C90.1935 37.2606 89.7768 37.4405 89.407 37.2926C89.2221 37.2186 89.084 37.0781 89.0125 36.908Z" fill="url(#paint14_linear)"/>
<path opacity="0.2" d="M91.1648 37.766C91.0933 37.5959 91.0835 37.4011 91.1574 37.2162C91.5125 36.3237 91.5001 35.3449 91.118 34.4623C90.7383 33.5796 90.0356 32.8991 89.1431 32.5441C88.7733 32.3961 88.5933 31.9795 88.7412 31.6096C88.8891 31.2398 89.3058 31.0598 89.6756 31.2078C90.9257 31.7058 91.9069 32.66 92.4395 33.8952C92.972 35.1304 92.9918 36.4988 92.4937 37.7488C92.3483 38.1186 91.9291 38.2986 91.5593 38.1507C91.3744 38.0767 91.2388 37.9337 91.1648 37.766Z" fill="url(#paint15_linear)"/>
<path opacity="0.2" d="M93.3173 38.6215C93.2458 38.4514 93.2359 38.2542 93.3099 38.0693C93.8942 36.6047 93.872 34.9972 93.2458 33.5426C92.6195 32.0904 91.4657 30.9686 89.9987 30.3892C89.6289 30.2437 89.4489 29.8246 89.5943 29.4547C89.7398 29.0849 90.1589 28.9049 90.5288 29.0504C92.3533 29.7728 93.7882 31.1658 94.5673 32.973C95.3464 34.7803 95.3735 36.7798 94.6462 38.6018C94.4983 38.9716 94.0816 39.1516 93.7118 39.0037C93.5293 38.9322 93.3912 38.7917 93.3173 38.6215Z" fill="url(#paint16_linear)"/>
</g>
<g opacity="0.2">
<path opacity="0.2" d="M43.1017 109.002C43.3384 109.056 43.5553 109.202 43.6934 109.424C43.9326 109.806 44.3073 110.07 44.7462 110.171C45.185 110.272 45.6387 110.196 46.0209 109.956C46.4646 109.678 47.0514 109.811 47.33 110.255C47.6086 110.698 47.4755 111.285 47.0317 111.564C46.2206 112.074 45.259 112.237 44.3246 112.022C43.3901 111.808 42.5963 111.243 42.0859 110.432C41.8073 109.988 41.9404 109.402 42.3867 109.123C42.6061 108.985 42.865 108.948 43.1017 109.002Z" fill="url(#paint17_linear)"/>
<path opacity="0.2" d="M40.5109 110.629C40.7476 110.684 40.9645 110.829 41.1026 111.051C41.7757 112.126 42.8284 112.873 44.0637 113.154C45.2989 113.438 46.5711 113.221 47.6461 112.548C48.0899 112.269 48.6767 112.402 48.9553 112.846C49.2339 113.29 49.1007 113.876 48.6569 114.155C47.153 115.099 45.3729 115.403 43.6421 115.006C41.9113 114.611 40.4394 113.563 39.4951 112.059C39.2165 111.616 39.3496 111.029 39.7959 110.75C40.0153 110.61 40.2742 110.575 40.5109 110.629Z" fill="url(#paint18_linear)"/>
<path opacity="0.2" d="M37.9194 112.254C38.1561 112.309 38.3731 112.454 38.5136 112.676C39.6182 114.441 41.349 115.669 43.383 116.135C45.4196 116.601 47.5103 116.246 49.2732 115.137C49.717 114.858 50.3037 114.991 50.5823 115.435C50.861 115.879 50.7278 116.466 50.284 116.744C48.0922 118.125 45.4911 118.566 42.959 117.987C40.4293 117.407 38.2769 115.881 36.9037 113.684C36.625 113.241 36.7607 112.654 37.2044 112.375C37.4263 112.237 37.6828 112.2 37.9194 112.254Z" fill="url(#paint19_linear)"/>
</g>
<path d="M37.8007 79.499H33.6266V78.4758L35.0319 77.0556C35.4338 76.6365 35.6951 76.3505 35.8184 76.1952C35.9417 76.0423 36.028 75.9092 36.0773 75.8007C36.1266 75.6897 36.1512 75.5739 36.1512 75.4555C36.1512 75.3051 36.1019 75.1868 36.0058 75.1005C35.9096 75.0142 35.7716 74.9698 35.5965 74.9698C35.4165 74.9698 35.2316 75.0216 35.0467 75.1251C34.8618 75.2287 34.6522 75.3816 34.4205 75.5837L33.5674 74.5852C33.8632 74.3214 34.1123 74.1315 34.3144 74.0157C34.5166 73.9022 34.736 73.8135 34.9727 73.7543C35.2094 73.6927 35.4782 73.6631 35.774 73.6631C36.1463 73.6631 36.4792 73.7297 36.7701 73.8603C37.0635 73.991 37.2903 74.1784 37.4506 74.42C37.6108 74.6616 37.6922 74.9353 37.6922 75.2361C37.6922 75.4604 37.6651 75.67 37.6084 75.8623C37.5517 76.0546 37.4654 76.242 37.347 76.4269C37.2287 76.6118 37.0733 76.8066 36.8761 77.0113C36.6813 77.2159 36.2647 77.6054 35.6261 78.175V78.2144H37.8007V79.499Z" fill="url(#paint20_linear)"/>
<path d="M42.7072 78.3845H42.0736V79.4989H40.54V78.3845H38.2471V77.243L40.6386 73.7444H42.076V77.2232H42.7097V78.3845H42.7072ZM40.54 77.2232V76.5551C40.54 76.4293 40.5449 76.2592 40.5548 76.0447C40.5647 75.8302 40.5721 75.7193 40.577 75.7094H40.5326C40.4438 75.9116 40.3428 76.1014 40.2293 76.2765L39.5908 77.2257H40.54V77.2232Z" fill="url(#paint21_linear)"/>
<path d="M46.1661 79.4988V77.0678C46.1661 76.4687 45.9886 76.1704 45.636 76.1704C45.3845 76.1704 45.1996 76.2764 45.0788 76.486C44.9605 76.698 44.8988 77.0481 44.8988 77.5387V79.4988H43.3604V73.377H44.8988V74.2473C44.8988 74.6418 44.8766 75.0905 44.8372 75.5935H44.9087C45.0566 75.3617 45.2292 75.199 45.4314 75.1053C45.6336 75.0116 45.8678 74.9647 46.1365 74.9647C46.6346 74.9647 47.0216 75.1077 47.3002 75.3962C47.5764 75.6822 47.7145 76.0866 47.7145 76.6019V79.5013H46.1661V79.4988Z" fill="url(#paint22_linear)"/>
<path d="M95.9208 101.511C89.3058 99.4478 85.2673 97.2461 85.2673 97.2461L80.7505 97.6702L76.2337 97.2461C76.2337 97.2461 72.1951 99.4503 65.5802 101.511C58.9652 103.575 56.3714 111.746 57.2788 119.527C57.2788 119.527 63.5708 125.277 80.0059 125.607V125.622C80.2574 125.622 80.5039 125.619 80.7505 125.617C80.997 125.619 81.2436 125.622 81.4951 125.622V125.607C97.9302 125.277 104.222 119.527 104.222 119.527C105.127 111.746 102.533 103.575 95.9208 101.511Z" fill="#1B428D"/>
<path d="M86.5449 89.825L80.9803 89.2678L75.4156 89.825C75.4156 89.825 76.3426 95.1111 74.8584 99.1915C74.8584 99.1915 76.7125 101.509 80.9803 101.509C85.2456 101.509 87.1021 99.1915 87.1021 99.1915C85.6179 95.1111 86.5449 89.825 86.5449 89.825Z" fill="white"/>
<path d="M86.5454 89.825L80.9807 89.2678L75.416 89.825C75.416 89.825 75.7045 91.4745 75.702 93.6441C76.3504 94.6032 77.0827 95.4489 77.8889 96.1072C79.028 97.0342 81.1607 97.2462 81.7228 97.2462C82.285 97.2462 84.4176 97.0342 85.5567 96.1072C85.823 95.8902 86.0819 95.651 86.3309 95.3946C86.0892 92.4311 86.5454 89.825 86.5454 89.825Z" fill="white"/>
<path d="M80.7015 69.4695C75.0678 69.4695 71.3818 74.0381 71.3818 79.6718C71.3818 83.8977 73.4553 89.9875 76.8701 92.7686C78.0092 93.6957 80.1418 93.9077 80.704 93.9077C81.2661 93.9077 83.3988 93.6957 84.5379 92.7686C87.9526 89.9875 90.0261 83.8977 90.0261 79.6718C90.0236 74.0356 86.3377 69.4695 80.7015 69.4695Z" fill="white"/>
<path d="M87.2402 72.1348C87.2402 70.33 84.3136 68.8655 80.7016 68.8655C77.0897 68.8655 74.1631 70.33 74.1631 72.1348C74.1631 73.9395 77.0897 75.404 80.7016 75.404C84.3136 75.404 87.2402 73.9395 87.2402 72.1348Z" fill="url(#paint23_linear)"/>
<path d="M76.2515 73.1779C76.2515 73.1779 71.5842 75.2268 71.7963 83.2792C71.7963 83.2792 70.7558 80.6213 70.9654 76.7948C71.175 72.9684 75.1765 70.387 75.1765 70.387L76.2515 73.1779Z" fill="url(#paint24_linear)"/>
<path d="M85.1543 73.1779C85.1543 73.1779 89.8215 75.2268 89.6095 83.2792C89.6095 83.2792 90.6499 80.6213 90.4404 76.7948C90.2308 72.9684 86.2293 70.387 86.2293 70.387L85.1543 73.1779Z" fill="url(#paint25_linear)"/>
<path d="M73.191 71.5087C73.191 71.5087 72.8089 69.1739 76.1447 67.5442C81.1275 65.1107 88.8446 68.0299 90.0552 75.9664C90.0552 75.9689 81.7907 70.0491 73.191 71.5087Z" fill="url(#paint26_linear)"/>
<path d="M74.7888 70.3893C74.7888 70.3893 73.6473 69.4721 71.7291 71.5111C69.8085 73.5476 70.9771 79.031 70.9771 79.031C70.9771 79.031 73.3983 71.6418 76.2509 71.2991C79.1035 70.9539 74.4017 70.3918 74.4017 70.3918" fill="url(#paint27_linear)"/>
<path d="M86.4979 70.3893C86.4979 70.3893 87.6394 69.4721 89.5576 71.5111C91.4782 73.5476 90.3096 79.031 90.3096 79.031C90.3096 79.031 87.8884 71.6418 85.0358 71.2991C82.1832 70.9539 86.885 70.3918 86.885 70.3918" fill="url(#paint28_linear)"/>
<path d="M93.4878 83.8708C93.2018 86.467 90.7659 88.3285 89.4666 88.1855C88.1673 88.0425 88.5001 85.9492 88.7861 83.353C89.0721 80.7569 89.2053 78.6414 90.5021 78.7844C91.8014 78.9274 93.7738 81.2746 93.4878 83.8708Z" fill="#01063D"/>
<path d="M89.8981 83.353C90.1298 81.2426 90.2605 79.4526 90.9977 78.9299C90.8251 78.851 90.6574 78.8017 90.5021 78.7844C89.2028 78.6414 89.0721 80.7569 88.7861 83.353C88.5001 85.9492 88.1673 88.0425 89.4666 88.1855C89.6934 88.2101 89.9548 88.1731 90.2334 88.0819C89.3483 87.6135 89.6416 85.6854 89.8981 83.353Z" fill="white"/>
<path d="M68.0114 83.8708C68.2974 86.467 70.7333 88.3285 72.0326 88.1855C73.3319 88.0425 72.9991 85.9492 72.7131 83.353C72.4271 80.7569 72.294 78.6414 70.9971 78.7844C69.6978 78.9274 67.7254 81.2746 68.0114 83.8708Z" fill="#01063D"/>
<path d="M72.7135 83.353C72.4275 80.7569 72.2944 78.6414 70.9975 78.7844C70.8397 78.8017 70.6721 78.851 70.502 78.9299C71.2391 79.4526 71.3698 81.2426 71.6016 83.353C71.858 85.6854 72.1514 87.6135 71.2663 88.0844C71.5449 88.1756 71.8062 88.2126 72.033 88.1879C73.3299 88.0425 72.9995 85.9492 72.7135 83.353Z" fill="white"/>
<path d="M91.4417 80.4019L90.6478 80.143C90.6724 80.0666 93.0886 72.4605 89.7158 67.8179C87.9628 65.4066 84.9302 64.1812 80.7043 64.1812C76.476 64.1812 73.4434 65.4041 71.6904 67.8204C68.3151 72.4703 70.7338 80.0666 70.7584 80.143L69.9645 80.4019C69.8585 80.074 67.3905 72.3199 71.0148 67.3297C72.933 64.6867 76.1924 63.3479 80.7043 63.3479C85.2138 63.3479 88.4732 64.6867 90.3914 67.3297C94.0132 72.3199 91.5477 80.074 91.4417 80.4019Z" fill="#01063D"/>
<path d="M72.3438 67.6994C72.011 67.6994 71.6781 67.5663 71.4316 67.3049C70.9582 66.802 70.9804 66.0081 71.4834 65.5347C73.6136 63.5278 76.7127 62.512 80.7019 62.512C84.6073 62.512 87.667 63.4883 89.7898 65.4163C90.3027 65.8799 90.3397 66.6738 89.8761 67.1841C89.4126 67.6969 88.6187 67.7339 88.1084 67.2704C86.4589 65.7738 83.9663 65.0145 80.7019 65.0145C77.3735 65.0145 74.8513 65.8034 73.2018 67.3567C72.9602 67.586 72.652 67.6994 72.3438 67.6994Z" fill="url(#paint29_linear)"/>
<path d="M81.7217 92.33V91.7728C85.6566 91.7728 88.5733 90.7644 90.1562 88.8586C91.3323 87.4434 91.3668 86.0331 91.3668 86.0183L91.924 86.0257C91.924 86.0923 91.8845 87.648 90.5852 89.2136C89.4042 90.6362 86.9091 92.33 81.7217 92.33Z" fill="#01063D"/>
<path d="M83.1155 91.9601C83.1155 92.574 82.3068 93.0721 81.3058 93.0721C80.3072 93.0721 79.4961 92.574 79.4961 91.9601C79.4961 91.3462 80.3048 90.8482 81.3058 90.8482C82.3043 90.8457 83.1155 91.3437 83.1155 91.9601Z" fill="#01063D"/>
<path opacity="0.5" d="M99.9047 116.388C99.2316 117.399 99.848 112.574 99.5669 110.05C99.5669 110.05 99.207 116.785 97.9249 122.865C98.3539 122.708 98.7582 122.55 99.1379 122.392C99.8011 120.008 100.75 116.184 101.137 112.685C101.137 112.688 100.578 115.38 99.9047 116.388ZM62.705 116.388C62.0319 115.378 61.4697 112.685 61.4697 112.685C61.8815 116.433 62.9441 120.553 63.6049 122.875C63.9747 123.011 64.3642 123.146 64.7711 123.277C63.4175 117.094 63.0403 110.047 63.0403 110.047C62.7617 112.574 63.378 117.399 62.705 116.388Z" fill="url(#paint30_linear)"/>
</g>
<defs>
<filter id="filter0_bd" x="0" y="0" width="162" height="161" filterUnits="userSpaceOnUse" color-interpolation-filters="sRGB">
<feFlood flood-opacity="0" result="BackgroundImageFix"/>
<feGaussianBlur in="BackgroundImage" stdDeviation="6.5"/>
<feComposite in2="SourceAlpha" operator="in" result="effect1_backgroundBlur"/>
<feColorMatrix in="SourceAlpha" type="matrix" values="0 0 0 0 0 0 0 0 0 0 0 0 0 0 0 0 0 0 127 0"/>
<feOffset/>
<feGaussianBlur stdDeviation="10.5"/>
<feColorMatrix type="matrix" values="0 0 0 0 0 0 0 0 0 0 0 0 0 0 0 0 0 0 0.59 0"/>
<feBlend mode="normal" in2="effect1_backgroundBlur" result="effect2_dropShadow"/>
<feBlend mode="normal" in="SourceGraphic" in2="effect2_dropShadow" result="shape"/>
</filter>
<filter id="filter1_d" x="21.5674" y="28" width="117.635" height="120.622" filterUnits="userSpaceOnUse" color-interpolation-filters="sRGB">
<feFlood flood-opacity="0" result="BackgroundImageFix"/>
<feColorMatrix in="SourceAlpha" type="matrix" values="0 0 0 0 0 0 0 0 0 0 0 0 0 0 0 0 0 0 127 0"/>
<feOffset dy="11"/>
<feGaussianBlur stdDeviation="6"/>
<feColorMatrix type="matrix" values="0 0 0 0 0 0 0 0 0 0 0 0 0 0 0 0 0 0 0.34 0"/>
<feBlend mode="normal" in2="BackgroundImageFix" result="effect1_dropShadow"/>
<feBlend mode="normal" in="SourceGraphic" in2="effect1_dropShadow" result="shape"/>
</filter>
<linearGradient id="paint0_linear" x1="40.7145" y1="13.3843" x2="55.8971" y2="35.1579" gradientUnits="userSpaceOnUse">
<stop stop-color="#2EDAE1"/>
<stop offset="1" stop-color="#04276B"/>
</linearGradient>
<linearGradient id="paint1_linear" x1="139.94" y1="126.199" x2="146.152" y2="135.107" gradientUnits="userSpaceOnUse">
<stop stop-color="#2EDAE1"/>
<stop offset="1" stop-color="#04276B"/>
</linearGradient>
<linearGradient id="paint2_linear" x1="129.452" y1="6" x2="153.606" y2="40.6398" gradientUnits="userSpaceOnUse">
<stop stop-color="#2EDAE1"/>
<stop offset="1" stop-color="#04276B"/>
</linearGradient>
<linearGradient id="paint3_linear" x1="81" y1="21" x2="154.308" y2="127.016" gradientUnits="userSpaceOnUse">
<stop stop-color="#2EDAE1"/>
<stop offset="1" stop-color="#04276B"/>
</linearGradient>
<radialGradient id="paint4_angular" cx="0" cy="0" r="1" gradientUnits="userSpaceOnUse" gradientTransform="translate(81 80.5) rotate(85.5001) scale(120.434 135.822)">
<stop offset="0.351733" stop-color="white" stop-opacity="0"/>
<stop offset="0.491186" stop-color="white"/>
<stop offset="0.891676" stop-color="white" stop-opacity="0"/>
<stop offset="0.898828" stop-color="white" stop-opacity="0"/>
<stop offset="1" stop-color="white"/>
</radialGradient>
<linearGradient id="paint5_linear" x1="83.2362" y1="34.37" x2="76.9101" y2="41.1844" gradientUnits="userSpaceOnUse">
<stop stop-color="#FFD571"/>
<stop offset="0.2509" stop-color="#FFBD60"/>
<stop offset="0.7782" stop-color="#FF8035"/>
<stop offset="1" stop-color="#FF6421"/>
</linearGradient>
<linearGradient id="paint6_linear" x1="47.5687" y1="54.5239" x2="41.2353" y2="61.3355" gradientUnits="userSpaceOnUse">
<stop stop-color="#FFD571"/>
<stop offset="0.2509" stop-color="#FFBD60"/>
<stop offset="0.7782" stop-color="#FF8035"/>
<stop offset="1" stop-color="#FF6421"/>
</linearGradient>
<linearGradient id="paint7_linear" x1="125.874" y1="74.6819" x2="119.544" y2="81.49" gradientUnits="userSpaceOnUse">
<stop stop-color="#FFD571"/>
<stop offset="0.2509" stop-color="#FFBD60"/>
<stop offset="0.7782" stop-color="#FF8035"/>
<stop offset="1" stop-color="#FF6421"/>
</linearGradient>
<linearGradient id="paint8_linear" x1="100.019" y1="43.8965" x2="94.722" y2="49.2036" gradientUnits="userSpaceOnUse">
<stop stop-color="#FFD571"/>
<stop offset="0.2509" stop-color="#FFBD60"/>
<stop offset="0.7782" stop-color="#FF8035"/>
<stop offset="1" stop-color="#FF6421"/>
</linearGradient>
<linearGradient id="paint9_linear" x1="102.569" y1="41.5161" x2="93.6144" y2="50.3005" gradientUnits="userSpaceOnUse">
<stop stop-color="#FFD571"/>
<stop offset="0.2509" stop-color="#FFBD60"/>
<stop offset="0.7782" stop-color="#FF8035"/>
<stop offset="1" stop-color="#FF6421"/>
</linearGradient>
<linearGradient id="paint10_linear" x1="105.124" y1="39.1388" x2="92.5141" y2="51.4012" gradientUnits="userSpaceOnUse">
<stop stop-color="#FFD571"/>
<stop offset="0.2509" stop-color="#FFBD60"/>
<stop offset="0.7782" stop-color="#FF8035"/>
<stop offset="1" stop-color="#FF6421"/>
</linearGradient>
<linearGradient id="paint11_linear" x1="116.615" y1="108.419" x2="110.434" y2="114.848" gradientUnits="userSpaceOnUse">
<stop stop-color="#FFD571"/>
<stop offset="0.2509" stop-color="#FFBD60"/>
<stop offset="0.7782" stop-color="#FF8035"/>
<stop offset="1" stop-color="#FF6421"/>
</linearGradient>
<linearGradient id="paint12_linear" x1="119.653" y1="108.551" x2="109.254" y2="119.265" gradientUnits="userSpaceOnUse">
<stop stop-color="#FFD571"/>
<stop offset="0.2509" stop-color="#FFBD60"/>
<stop offset="0.7782" stop-color="#FF8035"/>
<stop offset="1" stop-color="#FF6421"/>
</linearGradient>
<linearGradient id="paint13_linear" x1="122.686" y1="108.674" x2="108.069" y2="123.673" gradientUnits="userSpaceOnUse">
<stop stop-color="#FFD571"/>
<stop offset="0.2509" stop-color="#FFBD60"/>
<stop offset="0.7782" stop-color="#FF8035"/>
<stop offset="1" stop-color="#FF6421"/>
</linearGradient>
<linearGradient id="paint14_linear" x1="90.5143" y1="33.5877" x2="85.3821" y2="37.2835" gradientUnits="userSpaceOnUse">
<stop stop-color="#FFD571"/>
<stop offset="0.2509" stop-color="#FFBD60"/>
<stop offset="0.7782" stop-color="#FF8035"/>
<stop offset="1" stop-color="#FF6421"/>
</linearGradient>
<linearGradient id="paint15_linear" x1="92.8218" y1="31.6437" x2="84.266" y2="37.0844" gradientUnits="userSpaceOnUse">
<stop stop-color="#FFD571"/>
<stop offset="0.2509" stop-color="#FFBD60"/>
<stop offset="0.7782" stop-color="#FF8035"/>
<stop offset="1" stop-color="#FF6421"/>
</linearGradient>
<linearGradient id="paint16_linear" x1="95.1293" y1="29.696" x2="83.212" y2="36.874" gradientUnits="userSpaceOnUse">
<stop stop-color="#FFD571"/>
<stop offset="0.2509" stop-color="#FFBD60"/>
<stop offset="0.7782" stop-color="#FF8035"/>
<stop offset="1" stop-color="#FF6421"/>
</linearGradient>
<linearGradient id="paint17_linear" x1="47.4333" y1="109.195" x2="43.9661" y2="115.78" gradientUnits="userSpaceOnUse">
<stop stop-color="#FFD571"/>
<stop offset="0.2509" stop-color="#FFBD60"/>
<stop offset="0.7782" stop-color="#FF8035"/>
<stop offset="1" stop-color="#FF6421"/>
</linearGradient>
<linearGradient id="paint18_linear" x1="49.0263" y1="110.921" x2="44.5387" y2="121.223" gradientUnits="userSpaceOnUse">
<stop stop-color="#FFD571"/>
<stop offset="0.2509" stop-color="#FFBD60"/>
<stop offset="0.7782" stop-color="#FF8035"/>
<stop offset="1" stop-color="#FF6421"/>
</linearGradient>
<linearGradient id="paint19_linear" x1="50.6211" y1="112.646" x2="45.0739" y2="126.532" gradientUnits="userSpaceOnUse">
<stop stop-color="#FFD571"/>
<stop offset="0.2509" stop-color="#FFBD60"/>
<stop offset="0.7782" stop-color="#FF8035"/>
<stop offset="1" stop-color="#FF6421"/>
</linearGradient>
<linearGradient id="paint20_linear" x1="37.7683" y1="74.067" x2="30.1779" y2="79.9919" gradientUnits="userSpaceOnUse">
<stop stop-color="#FFD571"/>
<stop offset="0.2509" stop-color="#FFBD60"/>
<stop offset="0.7782" stop-color="#FF8035"/>
<stop offset="1" stop-color="#FF6421"/>
</linearGradient>
<linearGradient id="paint21_linear" x1="42.6755" y1="74.1427" x2="35.0847" y2="80.4771" gradientUnits="userSpaceOnUse">
<stop stop-color="#FFD571"/>
<stop offset="0.2509" stop-color="#FFBD60"/>
<stop offset="0.7782" stop-color="#FF8035"/>
<stop offset="1" stop-color="#FF6421"/>
</linearGradient>
<linearGradient id="paint22_linear" x1="47.6812" y1="73.8009" x2="39.7558" y2="79.8639" gradientUnits="userSpaceOnUse">
<stop stop-color="#FFD571"/>
<stop offset="0.2509" stop-color="#FFBD60"/>
<stop offset="0.7782" stop-color="#FF8035"/>
<stop offset="1" stop-color="#FF6421"/>
</linearGradient>
<linearGradient id="paint23_linear" x1="87.1402" y1="69.3181" x2="80.4399" y2="83.738" gradientUnits="userSpaceOnUse">
<stop stop-color="#FFD571"/>
<stop offset="0.2509" stop-color="#FFBD60"/>
<stop offset="0.7782" stop-color="#FF8035"/>
<stop offset="1" stop-color="#FF6421"/>
</linearGradient>
<linearGradient id="paint24_linear" x1="76.2108" y1="71.2793" x2="63.398" y2="76.9623" gradientUnits="userSpaceOnUse">
<stop stop-color="#FFD571"/>
<stop offset="0.2509" stop-color="#FFBD60"/>
<stop offset="0.7782" stop-color="#FF8035"/>
<stop offset="1" stop-color="#FF6421"/>
</linearGradient>
<linearGradient id="paint25_linear" x1="90.4276" y1="71.2793" x2="77.6148" y2="76.9623" gradientUnits="userSpaceOnUse">
<stop stop-color="#FFD571"/>
<stop offset="0.2509" stop-color="#FFBD60"/>
<stop offset="0.7782" stop-color="#FF8035"/>
<stop offset="1" stop-color="#FF6421"/>
</linearGradient>
<linearGradient id="paint26_linear" x1="89.9262" y1="67.3511" x2="79.8847" y2="87.0535" gradientUnits="userSpaceOnUse">
<stop stop-color="#FFD571"/>
<stop offset="0.2509" stop-color="#FFBD60"/>
<stop offset="0.7782" stop-color="#FF8035"/>
<stop offset="1" stop-color="#FF6421"/>
</linearGradient>
<linearGradient id="paint27_linear" x1="77.1195" y1="70.796" x2="65.5595" y2="79.9975" gradientUnits="userSpaceOnUse">
<stop stop-color="#FFD571"/>
<stop offset="0.2509" stop-color="#FFBD60"/>
<stop offset="0.7782" stop-color="#FF8035"/>
<stop offset="1" stop-color="#FF6421"/>
</linearGradient>
<linearGradient id="paint28_linear" x1="90.6117" y1="70.796" x2="79.0517" y2="79.9975" gradientUnits="userSpaceOnUse">
<stop stop-color="#FFD571"/>
<stop offset="0.2509" stop-color="#FFBD60"/>
<stop offset="0.7782" stop-color="#FF8035"/>
<stop offset="1" stop-color="#FF6421"/>
</linearGradient>
<linearGradient id="paint29_linear" x1="90.0545" y1="62.871" x2="86.7553" y2="75.9491" gradientUnits="userSpaceOnUse">
<stop stop-color="#FFD571"/>
<stop offset="0.2509" stop-color="#FFBD60"/>
<stop offset="0.7782" stop-color="#FF8035"/>
<stop offset="1" stop-color="#FF6421"/>
</linearGradient>
<linearGradient id="paint30_linear" x1="100.834" y1="110.963" x2="90.8022" y2="143.33" gradientUnits="userSpaceOnUse">
<stop stop-color="#FFD571"/>
<stop offset="0.2509" stop-color="#FFBD60"/>
<stop offset="0.7782" stop-color="#FF8035"/>
<stop offset="1" stop-color="#FF6421"/>
</linearGradient>
</defs>
</svg>
