<svg width="52" height="19" viewBox="0 0 52 19" fill="none" xmlns="http://www.w3.org/2000/svg">
<path d="M0.63 8V1H3.32C3.84 1 4.32667 1.09 4.78 1.27C5.23333 1.45 5.62333 1.69667 5.95 2.01C6.28333 2.32333 6.54333 2.69667 6.73 3.13C6.92333 3.56333 7.02 4.02667 7.02 4.52C7.02 5.00667 6.92333 5.46333 6.73 5.89C6.54333 6.31667 6.28333 6.68667 5.95 7C5.62333 7.30667 5.23333 7.55 4.78 7.73C4.32667 7.91 3.84 8 3.32 8H0.63ZM3.31 2.29H2.08V6.71H3.31C3.61667 6.71 3.90333 6.65333 4.17 6.54C4.44333 6.42667 4.68 6.27333 4.88 6.08C5.08 5.88 5.23667 5.64667 5.35 5.38C5.46333 5.11333 5.52 4.82667 5.52 4.52C5.52 4.20667 5.46333 3.91333 5.35 3.64C5.23667 3.36667 5.08 3.13 4.88 2.93C4.68 2.73 4.44333 2.57333 4.17 2.46C3.90333 2.34667 3.61667 2.29 3.31 2.29ZM12.5928 7.35C12.2728 7.61 11.9428 7.8 11.6028 7.92C11.2695 8.04 10.8961 8.1 10.4828 8.1C10.0895 8.1 9.71948 8.03 9.37281 7.89C9.03281 7.75 8.73615 7.56 8.48281 7.32C8.23615 7.08 8.03948 6.79667 7.89281 6.47C7.75281 6.13667 7.68281 5.78 7.68281 5.4C7.68281 5.02667 7.74948 4.67667 7.88281 4.35C8.02281 4.01667 8.21281 3.73 8.45281 3.49C8.69281 3.24333 8.97615 3.05 9.30281 2.91C9.63615 2.77 9.98948 2.7 10.3628 2.7C10.7295 2.7 11.0695 2.77333 11.3828 2.92C11.7028 3.06 11.9761 3.25333 12.2028 3.5C12.4361 3.74667 12.6161 4.04333 12.7428 4.39C12.8761 4.73 12.9428 5.1 12.9428 5.5V5.86H9.06281C9.15615 6.18667 9.33615 6.45 9.60281 6.65C9.86948 6.85 10.1828 6.95 10.5428 6.95C10.7695 6.95 10.9828 6.91333 11.1828 6.84C11.3828 6.76667 11.5528 6.66333 11.6928 6.53L12.5928 7.35ZM10.3328 3.83C10.0195 3.83 9.74948 3.92667 9.52281 4.12C9.29615 4.30667 9.13948 4.56 9.05281 4.88H11.6028C11.5161 4.57333 11.3561 4.32333 11.1228 4.13C10.8961 3.93 10.6328 3.83 10.3328 3.83ZM15.2869 8L13.0469 2.79H14.5369L15.9669 6.26L17.3869 2.79H18.8469L16.6069 8H15.2869ZM23.8623 7.35C23.5423 7.61 23.2123 7.8 22.8723 7.92C22.539 8.04 22.1657 8.1 21.7523 8.1C21.359 8.1 20.989 8.03 20.6423 7.89C20.3023 7.75 20.0057 7.56 19.7523 7.32C19.5057 7.08 19.309 6.79667 19.1623 6.47C19.0223 6.13667 18.9523 5.78 18.9523 5.4C18.9523 5.02667 19.019 4.67667 19.1523 4.35C19.2923 4.01667 19.4823 3.73 19.7223 3.49C19.9623 3.24333 20.2457 3.05 20.5723 2.91C20.9057 2.77 21.259 2.7 21.6323 2.7C21.999 2.7 22.339 2.77333 22.6523 2.92C22.9723 3.06 23.2457 3.25333 23.4723 3.5C23.7057 3.74667 23.8857 4.04333 24.0123 4.39C24.1457 4.73 24.2123 5.1 24.2123 5.5V5.86H20.3323C20.4257 6.18667 20.6057 6.45 20.8723 6.65C21.139 6.85 21.4523 6.95 21.8123 6.95C22.039 6.95 22.2523 6.91333 22.4523 6.84C22.6523 6.76667 22.8223 6.66333 22.9623 6.53L23.8623 7.35ZM21.6023 3.83C21.289 3.83 21.019 3.92667 20.7923 4.12C20.5657 4.30667 20.409 4.56 20.3223 4.88H22.8723C22.7857 4.57333 22.6257 4.32333 22.3923 4.13C22.1657 3.93 21.9023 3.83 21.6023 3.83ZM26.4217 0.7V8H25.0517V1L26.4217 0.7ZM27.2531 5.4C27.2531 5.02 27.3231 4.66667 27.4631 4.34C27.6098 4.00667 27.8065 3.72 28.0531 3.48C28.3065 3.23333 28.6031 3.04 28.9431 2.9C29.2831 2.76 29.6465 2.69 30.0331 2.69C30.4198 2.69 30.7831 2.76 31.1231 2.9C31.4631 3.04 31.7565 3.23333 32.0031 3.48C32.2565 3.72 32.4531 4.00667 32.5931 4.34C32.7398 4.66667 32.8131 5.02 32.8131 5.4C32.8131 5.78 32.7398 6.13667 32.5931 6.47C32.4531 6.79667 32.2565 7.08 32.0031 7.32C31.7565 7.56 31.4631 7.75 31.1231 7.89C30.7831 8.03 30.4198 8.1 30.0331 8.1C29.6465 8.1 29.2831 8.03 28.9431 7.89C28.6031 7.75 28.3065 7.56 28.0531 7.32C27.8065 7.08 27.6098 6.79667 27.4631 6.47C27.3231 6.13667 27.2531 5.78 27.2531 5.4ZM30.0331 6.91C30.4331 6.91 30.7731 6.76333 31.0531 6.47C31.3331 6.17667 31.4731 5.82 31.4731 5.4C31.4731 4.97333 31.3331 4.61333 31.0531 4.32C30.7731 4.02667 30.4331 3.88 30.0331 3.88C29.6331 3.88 29.2931 4.02667 29.0131 4.32C28.7331 4.61333 28.5931 4.97333 28.5931 5.4C28.5931 5.82 28.7331 6.17667 29.0131 6.47C29.2931 6.76333 29.6331 6.91 30.0331 6.91ZM33.6552 10.09V2.79H35.0052V3.22C35.2119 3.05333 35.4419 2.93 35.6952 2.85C35.9486 2.76333 36.2119 2.72 36.4852 2.72C36.8519 2.72 37.1952 2.79 37.5152 2.93C37.8419 3.07 38.1252 3.26 38.3652 3.5C38.6052 3.74 38.7919 4.02333 38.9252 4.35C39.0652 4.67667 39.1352 5.02667 39.1352 5.4C39.1352 5.77333 39.0652 6.12333 38.9252 6.45C38.7852 6.77667 38.5952 7.06 38.3552 7.3C38.1152 7.54 37.8286 7.73 37.4952 7.87C37.1686 8.00333 36.8186 8.07 36.4452 8.07C36.1919 8.07 35.9419 8.03667 35.6952 7.97C35.4552 7.89667 35.2319 7.79333 35.0252 7.66V10.09H33.6552ZM36.2652 3.89C36.0186 3.89 35.7886 3.93333 35.5752 4.02C35.3619 4.1 35.1786 4.22 35.0252 4.38V6.43C35.1719 6.57667 35.3519 6.69333 35.5652 6.78C35.7852 6.86667 36.0186 6.91 36.2652 6.91C36.6919 6.91 37.0519 6.76667 37.3452 6.48C37.6386 6.18667 37.7852 5.82667 37.7852 5.4C37.7852 4.97333 37.6352 4.61667 37.3352 4.33C37.0419 4.03667 36.6852 3.89 36.2652 3.89ZM44.6827 7.35C44.3627 7.61 44.0327 7.8 43.6927 7.92C43.3593 8.04 42.986 8.1 42.5727 8.1C42.1793 8.1 41.8093 8.03 41.4627 7.89C41.1227 7.75 40.826 7.56 40.5727 7.32C40.326 7.08 40.1293 6.79667 39.9827 6.47C39.8427 6.13667 39.7727 5.78 39.7727 5.4C39.7727 5.02667 39.8393 4.67667 39.9727 4.35C40.1127 4.01667 40.3027 3.73 40.5427 3.49C40.7827 3.24333 41.066 3.05 41.3927 2.91C41.726 2.77 42.0793 2.7 42.4527 2.7C42.8193 2.7 43.1593 2.77333 43.4727 2.92C43.7927 3.06 44.066 3.25333 44.2927 3.5C44.526 3.74667 44.706 4.04333 44.8327 4.39C44.966 4.73 45.0327 5.1 45.0327 5.5V5.86H41.1527C41.246 6.18667 41.426 6.45 41.6927 6.65C41.9593 6.85 42.2727 6.95 42.6327 6.95C42.8593 6.95 43.0727 6.91333 43.2727 6.84C43.4727 6.76667 43.6427 6.66333 43.7827 6.53L44.6827 7.35ZM42.4227 3.83C42.1093 3.83 41.8393 3.92667 41.6127 4.12C41.386 4.30667 41.2293 4.56 41.1427 4.88H43.6927C43.606 4.57333 43.446 4.32333 43.2127 4.13C42.986 3.93 42.7227 3.83 42.4227 3.83ZM49.8011 8V7.57C49.5944 7.73667 49.3644 7.86333 49.1111 7.95C48.8578 8.03 48.5944 8.07 48.3211 8.07C47.9544 8.07 47.6078 8 47.2811 7.86C46.9611 7.72 46.6811 7.53 46.4411 7.29C46.2011 7.05 46.0111 6.76667 45.8711 6.44C45.7378 6.11333 45.6711 5.76333 45.6711 5.39C45.6711 5.01667 45.7411 4.66667 45.8811 4.34C46.0211 4.01333 46.2111 3.73 46.4511 3.49C46.6911 3.25 46.9744 3.06333 47.3011 2.93C47.6344 2.79 47.9878 2.72 48.3611 2.72C48.6144 2.72 48.8611 2.75667 49.1011 2.83C49.3478 2.89667 49.5744 2.99667 49.7811 3.13V1L51.1511 0.7V8H49.8011ZM47.0211 5.39C47.0211 5.81 47.1678 6.16667 47.4611 6.46C47.7544 6.75333 48.1144 6.9 48.5411 6.9C48.7944 6.9 49.0244 6.85667 49.2311 6.77C49.4444 6.68333 49.6278 6.56 49.7811 6.4V4.37C49.6344 4.21667 49.4511 4.09667 49.2311 4.01C49.0178 3.92333 48.7878 3.88 48.5411 3.88C48.1078 3.88 47.7444 4.02667 47.4511 4.32C47.1644 4.60667 47.0211 4.96333 47.0211 5.39ZM0.54 18.09V10.79H1.89V11.22C2.09667 11.0533 2.32667 10.93 2.58 10.85C2.83333 10.7633 3.09667 10.72 3.37 10.72C3.73667 10.72 4.08 10.79 4.4 10.93C4.72667 11.07 5.01 11.26 5.25 11.5C5.49 11.74 5.67667 12.0233 5.81 12.35C5.95 12.6767 6.02 13.0267 6.02 13.4C6.02 13.7733 5.95 14.1233 5.81 14.45C5.67 14.7767 5.48 15.06 5.24 15.3C5 15.54 4.71333 15.73 4.38 15.87C4.05333 16.0033 3.70333 16.07 3.33 16.07C3.07667 16.07 2.82667 16.0367 2.58 15.97C2.34 15.8967 2.11667 15.7933 1.91 15.66V18.09H0.54ZM3.15 11.89C2.90333 11.89 2.67333 11.9333 2.46 12.02C2.24667 12.1 2.06333 12.22 1.91 12.38V14.43C2.05667 14.5767 2.23667 14.6933 2.45 14.78C2.67 14.8667 2.90333 14.91 3.15 14.91C3.57667 14.91 3.93667 14.7667 4.23 14.48C4.52333 14.1867 4.67 13.8267 4.67 13.4C4.67 12.9733 4.52 12.6167 4.22 12.33C3.92667 12.0367 3.57 11.89 3.15 11.89ZM6.85836 16V10.79H8.22836V11.36C8.39503 11.1333 8.59503 10.9633 8.82836 10.85C9.06836 10.73 9.33169 10.67 9.61836 10.67C9.75169 10.6767 9.86169 10.69 9.94836 10.71C10.0417 10.7233 10.1217 10.75 10.1884 10.79V11.99C10.0884 11.9433 9.97836 11.91 9.85836 11.89C9.73836 11.8633 9.61503 11.85 9.48836 11.85C9.22169 11.85 8.97503 11.9167 8.74836 12.05C8.52836 12.1833 8.35503 12.3767 8.22836 12.63V16H6.85836ZM10.4367 13.4C10.4367 13.02 10.5067 12.6667 10.6467 12.34C10.7934 12.0067 10.9901 11.72 11.2367 11.48C11.4901 11.2333 11.7867 11.04 12.1267 10.9C12.4667 10.76 12.8301 10.69 13.2167 10.69C13.6034 10.69 13.9667 10.76 14.3067 10.9C14.6467 11.04 14.9401 11.2333 15.1867 11.48C15.4401 11.72 15.6367 12.0067 15.7767 12.34C15.9234 12.6667 15.9967 13.02 15.9967 13.4C15.9967 13.78 15.9234 14.1367 15.7767 14.47C15.6367 14.7967 15.4401 15.08 15.1867 15.32C14.9401 15.56 14.6467 15.75 14.3067 15.89C13.9667 16.03 13.6034 16.1 13.2167 16.1C12.8301 16.1 12.4667 16.03 12.1267 15.89C11.7867 15.75 11.4901 15.56 11.2367 15.32C10.9901 15.08 10.7934 14.7967 10.6467 14.47C10.5067 14.1367 10.4367 13.78 10.4367 13.4ZM13.2167 14.91C13.6167 14.91 13.9567 14.7633 14.2367 14.47C14.5167 14.1767 14.6567 13.82 14.6567 13.4C14.6567 12.9733 14.5167 12.6133 14.2367 12.32C13.9567 12.0267 13.6167 11.88 13.2167 11.88C12.8167 11.88 12.4767 12.0267 12.1967 12.32C11.9167 12.6133 11.7767 12.9733 11.7767 13.4C11.7767 13.82 11.9167 14.1767 12.1967 14.47C12.4767 14.7633 12.8167 14.91 13.2167 14.91ZM17.5188 10.17C17.3055 10.17 17.1222 10.0933 16.9688 9.94C16.8155 9.78667 16.7388 9.60333 16.7388 9.39C16.7388 9.17667 16.8155 8.99333 16.9688 8.84C17.1222 8.68667 17.3055 8.61 17.5188 8.61C17.7322 8.61 17.9155 8.68667 18.0688 8.84C18.2222 8.99333 18.2988 9.17667 18.2988 9.39C18.2988 9.60333 18.2222 9.78667 18.0688 9.94C17.9155 10.0933 17.7322 10.17 17.5188 10.17ZM16.5188 18.15C16.3922 18.15 16.2622 18.14 16.1288 18.12C15.9888 18.1067 15.8788 18.0867 15.7988 18.06V17.01C15.8722 17.0233 15.9455 17.0333 16.0188 17.04C16.0855 17.0467 16.1622 17.05 16.2488 17.05C16.4555 17.05 16.6055 17.0067 16.6988 16.92C16.7922 16.84 16.8388 16.7067 16.8388 16.52V10.79H18.2088V16.6C18.2088 17.0933 18.0588 17.4733 17.7588 17.74C17.4655 18.0133 17.0522 18.15 16.5188 18.15ZM23.9502 15.35C23.6302 15.61 23.3002 15.8 22.9602 15.92C22.6269 16.04 22.2536 16.1 21.8402 16.1C21.4469 16.1 21.0769 16.03 20.7302 15.89C20.3902 15.75 20.0936 15.56 19.8402 15.32C19.5936 15.08 19.3969 14.7967 19.2502 14.47C19.1102 14.1367 19.0402 13.78 19.0402 13.4C19.0402 13.0267 19.1069 12.6767 19.2402 12.35C19.3802 12.0167 19.5702 11.73 19.8102 11.49C20.0502 11.2433 20.3336 11.05 20.6602 10.91C20.9936 10.77 21.3469 10.7 21.7202 10.7C22.0869 10.7 22.4269 10.7733 22.7402 10.92C23.0602 11.06 23.3336 11.2533 23.5602 11.5C23.7936 11.7467 23.9736 12.0433 24.1002 12.39C24.2336 12.73 24.3002 13.1 24.3002 13.5V13.86H20.4202C20.5136 14.1867 20.6936 14.45 20.9602 14.65C21.2269 14.85 21.5402 14.95 21.9002 14.95C22.1269 14.95 22.3402 14.9133 22.5402 14.84C22.7402 14.7667 22.9102 14.6633 23.0502 14.53L23.9502 15.35ZM21.6902 11.83C21.3769 11.83 21.1069 11.9267 20.8802 12.12C20.6536 12.3067 20.4969 12.56 20.4102 12.88H22.9602C22.8736 12.5733 22.7136 12.3233 22.4802 12.13C22.2536 11.93 21.9902 11.83 21.6902 11.83ZM27.7287 14.9C27.962 14.9 28.1787 14.8533 28.3787 14.76C28.5853 14.6667 28.782 14.52 28.9687 14.32L29.7887 15.17C29.522 15.4633 29.202 15.6933 28.8287 15.86C28.4553 16.02 28.0687 16.1 27.6687 16.1C27.2887 16.1 26.9287 16.03 26.5887 15.89C26.2553 15.75 25.9653 15.56 25.7187 15.32C25.4787 15.08 25.2887 14.7967 25.1487 14.47C25.0087 14.1367 24.9387 13.78 24.9387 13.4C24.9387 13.02 25.0087 12.6667 25.1487 12.34C25.2887 12.0067 25.4787 11.72 25.7187 11.48C25.9653 11.2333 26.2553 11.04 26.5887 10.9C26.9287 10.76 27.2887 10.69 27.6687 10.69C28.082 10.69 28.4787 10.7733 28.8587 10.94C29.2387 11.1 29.562 11.3267 29.8287 11.62L28.9887 12.51C28.802 12.3033 28.602 12.1467 28.3887 12.04C28.1753 11.9333 27.9453 11.88 27.6987 11.88C27.3053 11.88 26.972 12.0267 26.6987 12.32C26.432 12.6133 26.2987 12.9733 26.2987 13.4C26.2987 13.8267 26.4353 14.1833 26.7087 14.47C26.9887 14.7567 27.3287 14.9 27.7287 14.9ZM31.3086 14.53V11.94H30.2386V10.79H31.3086V9.46L32.6786 9.15V10.79H34.1586V11.94H32.6786V14.25C32.6786 14.4967 32.7319 14.67 32.8386 14.77C32.9453 14.87 33.1319 14.92 33.3986 14.92C33.5253 14.92 33.6453 14.9133 33.7586 14.9C33.8719 14.88 33.9953 14.8467 34.1286 14.8V15.92C33.9819 15.9667 33.8053 16.0033 33.5986 16.03C33.3919 16.0633 33.2153 16.08 33.0686 16.08C32.4886 16.08 32.0486 15.95 31.7486 15.69C31.4553 15.4233 31.3086 15.0367 31.3086 14.53ZM34.4945 15.38L35.1745 14.47C35.4812 14.67 35.7712 14.82 36.0445 14.92C36.3179 15.0133 36.5912 15.06 36.8645 15.06C37.1712 15.06 37.4145 15.01 37.5945 14.91C37.7812 14.81 37.8745 14.6767 37.8745 14.51C37.8745 14.3767 37.8212 14.27 37.7145 14.19C37.6145 14.11 37.4512 14.0533 37.2245 14.02L36.2245 13.87C35.7112 13.79 35.3179 13.6233 35.0445 13.37C34.7779 13.1167 34.6445 12.78 34.6445 12.36C34.6445 11.86 34.8412 11.46 35.2345 11.16C35.6279 10.86 36.1545 10.71 36.8145 10.71C37.1945 10.71 37.5645 10.7667 37.9245 10.88C38.2845 10.9867 38.6279 11.1467 38.9545 11.36L38.2945 12.24C38.0079 12.0733 37.7345 11.95 37.4745 11.87C37.2145 11.7833 36.9512 11.74 36.6845 11.74C36.4379 11.74 36.2379 11.7867 36.0845 11.88C35.9379 11.9733 35.8645 12.0967 35.8645 12.25C35.8645 12.39 35.9179 12.5 36.0245 12.58C36.1379 12.6533 36.3212 12.7067 36.5745 12.74L37.5745 12.89C38.0812 12.9633 38.4712 13.13 38.7445 13.39C39.0245 13.65 39.1645 13.98 39.1645 14.38C39.1645 14.6267 39.1045 14.8567 38.9845 15.07C38.8712 15.2767 38.7145 15.4567 38.5145 15.61C38.3145 15.7633 38.0745 15.8833 37.7945 15.97C37.5145 16.0567 37.2112 16.1 36.8845 16.1C36.4112 16.1 35.9679 16.04 35.5545 15.92C35.1412 15.7933 34.7879 15.6133 34.4945 15.38Z" fill="#F9BC4C" fill-opacity="0.48"/>
</svg>
