<svg width="168" height="169" viewBox="0 0 168 169" fill="none" xmlns="http://www.w3.org/2000/svg">
<circle cx="146.572" cy="58.328" r="13.0902" fill="url(#paint0_linear)"/>
<circle cx="157.645" cy="15.3551" r="5.35509" fill="url(#paint1_linear)"/>
<circle cx="131.961" cy="127.944" r="5.35509" fill="url(#paint2_linear)"/>
<circle cx="28.8254" cy="33.4037" r="20.8254" fill="url(#paint3_linear)"/>
<path d="M31.5211 26.7696V43.5696H27.6331V30.7056L24.1531 32.0976V28.7376L29.0731 26.7696H31.5211Z" fill="white"/>
<g filter="url(#filter0_bd)">
<rect x="21" y="21" width="127" height="127" rx="63.5" fill="url(#paint4_linear)"/>
<rect x="21.5" y="21.5" width="126" height="126" rx="63" stroke="url(#paint5_angular)" stroke-opacity="0.25"/>
</g>
<g filter="url(#filter1_d)">
<path d="M75.5626 80.0929C75.5626 80.0929 84.7583 63.9767 80.9781 53.0244C76.3417 39.5949 69.9329 34.9243 69.9329 34.9243C69.9329 34.9243 51.6961 55.4447 75.5626 80.0929Z" fill="url(#paint6_linear)"/>
<path d="M73.754 42.7157L73.4287 43.0112L70.0014 46.1131C69.4059 38.4785 69.9329 34.9243 69.9329 34.9243C69.2303 38.3162 68.9687 42.0192 69.0042 45.79L66.8553 43.2601L69.0318 47.2232C69.0814 48.9581 69.1901 50.7001 69.3429 52.4264L66.5214 48.1095L69.4768 53.8296C69.6225 55.2446 69.7966 56.6439 69.9912 58.0156L65.5596 52.2885L70.3008 60.0783C70.6017 61.9724 70.9349 63.7947 71.2791 65.5131L67.1066 61.4839L71.8234 68.1084C72.2062 69.8559 72.589 71.4538 72.9419 72.8507L68.7994 67.7034L73.3224 75.2915C73.9565 77.2518 74.8269 79.316 74.8269 79.316L75.5642 80.0937L76.2692 78.7685C75.6579 77.2904 75.1845 76.1007 74.8198 74.6203L77.2892 68.0737L74.4007 72.4197C74.0376 70.8881 73.7021 69.4084 73.3917 67.9768L77.5776 60.7638L72.9624 65.9575C72.5457 63.9468 72.181 62.0409 71.8612 60.2374L75.9769 53.6807L71.5642 58.512C71.3011 56.9386 71.0735 55.4487 70.8766 54.0407L74.6457 46.9687L70.615 52.0671C70.3858 50.2479 70.211 48.5799 70.0802 47.0625L73.754 42.7157Z" fill="#149173"/>
<path d="M76.7237 79.3105C76.7237 79.3105 60.5246 80.6444 52.9926 74.0018C43.7576 65.8558 42.209 59.4133 42.209 59.4133C42.209 59.4133 65.0988 52.8014 76.7237 79.3105Z" fill="url(#paint7_linear)"/>
<path d="M47.1756 64.9908L47.527 64.8482L51.2197 63.3441C45.2623 60.2493 42.21 59.4133 42.21 59.4133C45.1922 60.0602 48.2721 61.1475 51.304 62.4813L50.0066 59.9869L52.4517 62.999C53.8349 63.638 55.2039 64.3234 56.5446 65.0372L54.0373 61.4169L57.6308 65.6242C58.7226 66.2246 59.7915 66.8407 60.832 67.4624L57.7442 62.141L62.3901 68.4102C63.8151 69.2934 65.1715 70.1758 66.4389 71.0307L64.6327 66.4933L68.3451 72.3401C69.6236 73.2344 70.7807 74.0758 71.7858 74.8259L69.0667 69.9229L73.6251 75.9581C74.9878 77.1147 76.3521 78.4856 76.3521 78.4856L76.7239 79.3106L75.4101 79.3815C74.4286 78.4092 73.6322 77.6402 72.5633 76.8524L66.4216 76.4411L70.932 75.7737C69.8213 74.9693 68.7429 74.2043 67.6953 73.4739L60.4209 74.1239L66.2136 72.4512C64.7351 71.4404 63.3228 70.5052 61.9774 69.6393L55.2567 70.4634L60.6871 68.8175C59.5079 68.0737 58.3839 67.3859 57.3157 66.7501L50.2997 67.1346L55.8136 65.8685C54.4241 65.0656 53.1385 64.3557 51.9586 63.7301L47.1756 64.9908Z" fill="#149173"/>
<path d="M76.1782 79.5824C76.1782 79.5824 62.9322 74.4344 59.7522 66.3475C55.8531 56.4304 57.282 50.7876 57.282 50.7876C57.282 50.7876 77.9379 54.3559 76.1782 79.5824Z" fill="url(#paint8_linear)"/>
<path d="M58.8874 57.0584L59.2206 57.0812L62.7321 57.3136C59.3316 52.61 57.2812 50.7876 57.2812 50.7876C59.3537 52.4351 61.3222 54.4647 63.152 56.6699L63.1583 54.2188L63.8397 57.5145C64.662 58.5443 65.4537 59.6048 66.2122 60.6779L65.7317 56.8811L66.8235 61.5532C67.4332 62.4412 68.0184 63.3331 68.5793 64.2179L68.3414 58.8658L69.4119 65.5565C70.1665 66.7935 70.8675 68.0036 71.5111 69.1587L71.9561 64.9112L72.4689 70.9141C73.1046 72.1038 73.6662 73.206 74.1467 74.1783L74.0254 69.295L75.1235 75.769C75.7174 77.1975 76.2247 78.7937 76.2247 78.7937L76.1782 79.5824L75.1188 79.1357C74.7485 77.9979 74.439 77.0911 73.9246 76.0645L69.2787 73.3943L73.0881 74.5959C72.5477 73.5409 72.016 72.5285 71.4937 71.5554L65.5246 69.2832L70.7517 70.1869C70.0074 68.8293 69.2835 67.5561 68.584 66.3625L62.9779 64.4393L67.9097 65.2248C67.2906 64.1911 66.6911 63.222 66.1145 62.3151L60.4565 59.9341L65.2985 61.0498C64.5383 59.8892 63.8215 58.8406 63.1528 57.8998L58.8874 57.0584Z" fill="#149173"/>
<path d="M77.1338 117.658V122.563C77.1338 126.634 80.5375 129.921 84.7548 129.921C88.9722 129.921 92.3758 126.634 92.3758 122.563V117.658C92.3758 116.284 91.2589 115.205 89.8355 115.205H79.6741C78.2515 115.205 77.1338 116.284 77.1338 117.658Z" fill="url(#paint9_linear)"/>
<g filter="url(#filter2_d)">
<path d="M84.7553 56.3381C100.709 56.3381 112.699 68.7489 112.699 83.3184C112.699 92.0498 108.381 100.242 100.81 105.393C98.7268 106.815 97.457 109.318 97.457 112.113V112.751C97.457 116.822 94.0533 120.109 89.836 120.109H79.6746C75.4572 120.109 72.0536 116.822 72.0536 112.751V111.967C72.0536 109.318 70.5806 106.767 68.0402 104.902C60.9273 99.7521 56.8115 91.9032 56.8115 83.3184C56.8123 68.5038 69.158 56.387 84.7553 56.3381Z" fill="url(#paint10_linear)"/>
</g>
<path d="M79.2024 66.1378L94.5437 82.1555C95.4385 83.0899 95.047 84.6042 93.8024 85.0226L82.6588 88.7698C82.172 88.9337 81.9703 89.4915 82.246 89.9122L90.6784 102.768C90.7942 102.945 90.5602 103.139 90.3972 103.002L72.332 87.9133C71.2867 87.0404 71.5837 85.4055 72.8748 84.9281L85.1204 80.4001C85.5607 80.237 85.76 79.7446 85.5513 79.3364L78.896 66.3411C78.7999 66.1543 79.0551 65.9842 79.2024 66.1378Z" fill="url(#paint11_linear)"/>
</g>
<defs>
<filter id="filter0_bd" x="0" y="0" width="169" height="169" filterUnits="userSpaceOnUse" color-interpolation-filters="sRGB">
<feFlood flood-opacity="0" result="BackgroundImageFix"/>
<feGaussianBlur in="BackgroundImage" stdDeviation="6.5"/>
<feComposite in2="SourceAlpha" operator="in" result="effect1_backgroundBlur"/>
<feColorMatrix in="SourceAlpha" type="matrix" values="0 0 0 0 0 0 0 0 0 0 0 0 0 0 0 0 0 0 127 0"/>
<feOffset/>
<feGaussianBlur stdDeviation="10.5"/>
<feColorMatrix type="matrix" values="0 0 0 0 0 0 0 0 0 0 0 0 0 0 0 0 0 0 0.59 0"/>
<feBlend mode="normal" in2="effect1_backgroundBlur" result="effect2_dropShadow"/>
<feBlend mode="normal" in="SourceGraphic" in2="effect2_dropShadow" result="shape"/>
</filter>
<filter id="filter1_d" x="30.209" y="33.9243" width="94.49" height="118.997" filterUnits="userSpaceOnUse" color-interpolation-filters="sRGB">
<feFlood flood-opacity="0" result="BackgroundImageFix"/>
<feColorMatrix in="SourceAlpha" type="matrix" values="0 0 0 0 0 0 0 0 0 0 0 0 0 0 0 0 0 0 127 0"/>
<feOffset dy="11"/>
<feGaussianBlur stdDeviation="6"/>
<feColorMatrix type="matrix" values="0 0 0 0 0 0 0 0 0 0 0 0 0 0 0 0 0 0 0.34 0"/>
<feBlend mode="normal" in2="BackgroundImageFix" result="effect1_dropShadow"/>
<feBlend mode="normal" in="SourceGraphic" in2="effect1_dropShadow" result="shape"/>
</filter>
<filter id="filter2_d" x="40.8115" y="45.3381" width="79.8875" height="87.7713" filterUnits="userSpaceOnUse" color-interpolation-filters="sRGB">
<feFlood flood-opacity="0" result="BackgroundImageFix"/>
<feColorMatrix in="SourceAlpha" type="matrix" values="0 0 0 0 0 0 0 0 0 0 0 0 0 0 0 0 0 0 127 0"/>
<feOffset dx="-4" dy="1"/>
<feGaussianBlur stdDeviation="6"/>
<feColorMatrix type="matrix" values="0 0 0 0 0 0 0 0 0 0 0 0 0 0 0 0 0 0 0.14 0"/>
<feBlend mode="normal" in2="BackgroundImageFix" result="effect1_dropShadow"/>
<feBlend mode="normal" in="SourceGraphic" in2="effect1_dropShadow" result="shape"/>
</filter>
<linearGradient id="paint0_linear" x1="146.572" y1="45.2378" x2="162.747" y2="68.4352" gradientUnits="userSpaceOnUse">
<stop stop-color="#2EDAE1"/>
<stop offset="1" stop-color="#04276B"/>
</linearGradient>
<linearGradient id="paint1_linear" x1="157.645" y1="10" x2="164.262" y2="19.4898" gradientUnits="userSpaceOnUse">
<stop stop-color="#2EDAE1"/>
<stop offset="1" stop-color="#04276B"/>
</linearGradient>
<linearGradient id="paint2_linear" x1="131.961" y1="122.589" x2="138.578" y2="132.079" gradientUnits="userSpaceOnUse">
<stop stop-color="#2EDAE1"/>
<stop offset="1" stop-color="#04276B"/>
</linearGradient>
<linearGradient id="paint3_linear" x1="28.8254" y1="12.5784" x2="54.5588" y2="49.4833" gradientUnits="userSpaceOnUse">
<stop stop-color="#2EDAE1"/>
<stop offset="1" stop-color="#04276B"/>
</linearGradient>
<linearGradient id="paint4_linear" x1="84.5" y1="21" x2="162.966" y2="133.529" gradientUnits="userSpaceOnUse">
<stop stop-color="#2EDAE1"/>
<stop offset="1" stop-color="#04276B"/>
</linearGradient>
<radialGradient id="paint5_angular" cx="0" cy="0" r="1" gradientUnits="userSpaceOnUse" gradientTransform="translate(84.5 84.5) rotate(85.5375) scale(128.524 143.752)">
<stop offset="0.351733" stop-color="white" stop-opacity="0"/>
<stop offset="0.491186" stop-color="white"/>
<stop offset="0.891676" stop-color="white" stop-opacity="0"/>
<stop offset="0.898828" stop-color="white" stop-opacity="0"/>
<stop offset="1" stop-color="white"/>
</radialGradient>
<linearGradient id="paint6_linear" x1="82.0082" y1="75.65" x2="60.1614" y2="33.2144" gradientUnits="userSpaceOnUse">
<stop stop-color="#30944C"/>
<stop offset="0.41" stop-color="#8ABB62"/>
<stop offset="0.8161" stop-color="#DEDF77"/>
<stop offset="1" stop-color="#FFED7F"/>
</linearGradient>
<linearGradient id="paint7_linear" x1="68.4841" y1="70.378" x2="37.2912" y2="65.5554" gradientUnits="userSpaceOnUse">
<stop stop-color="#30944C"/>
<stop offset="0.41" stop-color="#8ABB62"/>
<stop offset="0.8161" stop-color="#DEDF77"/>
<stop offset="1" stop-color="#FFED7F"/>
</linearGradient>
<linearGradient id="paint8_linear" x1="76.895" y1="81.521" x2="56.6039" y2="48.811" gradientUnits="userSpaceOnUse">
<stop stop-color="#30944C"/>
<stop offset="0.41" stop-color="#8ABB62"/>
<stop offset="0.8161" stop-color="#DEDF77"/>
<stop offset="1" stop-color="#FFED7F"/>
</linearGradient>
<linearGradient id="paint9_linear" x1="92.1838" y1="131.332" x2="76.6513" y2="109.458" gradientUnits="userSpaceOnUse">
<stop stop-color="#BE73DE"/>
<stop offset="1" stop-color="#514EB7"/>
</linearGradient>
<linearGradient id="paint10_linear" x1="112.272" y1="60.7522" x2="26.9164" y2="141.245" gradientUnits="userSpaceOnUse">
<stop stop-color="#FFD571"/>
<stop offset="0.2509" stop-color="#FFBD60"/>
<stop offset="0.7782" stop-color="#FF8035"/>
<stop offset="1" stop-color="#FF6421"/>
</linearGradient>
<linearGradient id="paint11_linear" x1="104.063" y1="97.5996" x2="63.8996" y2="70.4416" gradientUnits="userSpaceOnUse">
<stop offset="0.0027027" stop-color="white"/>
<stop offset="0.367" stop-color="#F2F2FF"/>
<stop offset="1" stop-color="#D2D2FF"/>
</linearGradient>
</defs>
</svg>
