<svg width="490" height="1048" viewBox="0 0 490 1048" fill="none" xmlns="http://www.w3.org/2000/svg">
<circle cx="276.5" cy="327.5" r="19.5" transform="rotate(-90 276.5 327.5)" fill="url(#paint0_linear)" fill-opacity="0.62"/>
<circle cx="143.147" cy="829.853" r="62.1474" transform="rotate(-90 143.147 829.853)" fill="url(#paint1_linear)" fill-opacity="0.42"/>
<circle cx="397" cy="58" r="36" transform="rotate(-90 397 58)" fill="url(#paint2_linear)" fill-opacity="0.27"/>
<circle cx="473.981" cy="1032.02" r="15.9808" transform="rotate(-90 473.981 1032.02)" fill="url(#paint3_linear)" fill-opacity="0.59"/>
<path d="M20.6388 36V10.8H40.6548V16.164H26.8308V20.88H36.0468V26.064H26.8308V36H20.6388ZM42.0422 36V16.956H47.8742V18.864C48.4982 18.12 49.2302 17.544 50.0702 17.136C50.9102 16.728 51.8462 16.524 52.8782 16.524C53.4302 16.548 53.8742 16.596 54.2102 16.668C54.5462 16.716 54.8342 16.824 55.0742 16.992V22.068C54.6902 21.9 54.2582 21.768 53.7782 21.672C53.2982 21.552 52.8062 21.492 52.3022 21.492C51.3902 21.492 50.5382 21.708 49.7462 22.14C48.9782 22.572 48.3542 23.16 47.8742 23.904V36H42.0422ZM56.0141 26.496C56.0141 25.128 56.2781 23.844 56.8061 22.644C57.3581 21.42 58.0901 20.364 59.0021 19.476C59.9381 18.588 61.0301 17.892 62.2781 17.388C63.5501 16.86 64.9061 16.596 66.3461 16.596C67.7861 16.596 69.1301 16.86 70.3781 17.388C71.6501 17.892 72.7421 18.588 73.6541 19.476C74.5901 20.364 75.3221 21.42 75.8501 22.644C76.4021 23.844 76.6781 25.128 76.6781 26.496C76.6781 27.864 76.4021 29.16 75.8501 30.384C75.3221 31.584 74.5901 32.628 73.6541 33.516C72.7421 34.404 71.6501 35.1 70.3781 35.604C69.1301 36.108 67.7861 36.36 66.3461 36.36C64.9061 36.36 63.5501 36.108 62.2781 35.604C61.0301 35.1 59.9381 34.404 59.0021 33.516C58.0901 32.628 57.3581 31.584 56.8061 30.384C56.2781 29.16 56.0141 27.864 56.0141 26.496ZM66.3461 31.32C67.6421 31.32 68.7341 30.852 69.6221 29.916C70.5341 28.98 70.9901 27.84 70.9901 26.496C70.9901 25.128 70.5341 23.976 69.6221 23.04C68.7341 22.104 67.6421 21.636 66.3461 21.636C65.0501 21.636 63.9461 22.104 63.0341 23.04C62.1461 23.976 61.7021 25.128 61.7021 26.496C61.7021 27.84 62.1461 28.98 63.0341 29.916C63.9461 30.852 65.0501 31.32 66.3461 31.32ZM79.4133 36V16.956H85.2453V18.18C85.9173 17.652 86.6493 17.256 87.4413 16.992C88.2573 16.728 89.1093 16.596 89.9973 16.596C91.1733 16.596 92.2413 16.836 93.2013 17.316C94.1853 17.772 95.0013 18.408 95.6493 19.224C96.4173 18.384 97.3293 17.736 98.3853 17.28C99.4413 16.824 100.593 16.596 101.841 16.596C104.001 16.596 105.765 17.316 107.133 18.756C108.525 20.196 109.221 22.032 109.221 24.264V36H103.389V25.056C103.389 24.024 103.101 23.196 102.525 22.572C101.973 21.924 101.229 21.6 100.293 21.6C99.6453 21.6 99.0573 21.732 98.5293 21.996C98.0013 22.236 97.5453 22.584 97.1613 23.04C97.1853 23.232 97.1973 23.436 97.1973 23.652C97.2213 23.844 97.2333 24.048 97.2333 24.264V36H91.4013V25.056C91.4013 24.024 91.1133 23.196 90.5373 22.572C89.9853 21.924 89.2413 21.6 88.3053 21.6C87.6573 21.6 87.0693 21.72 86.5413 21.96C86.0373 22.176 85.6053 22.512 85.2453 22.968V36H79.4133ZM125.138 36.288V36.252L117.83 16.956H124.274L128.486 28.944L133.382 16.956H139.682L131.15 36.972C130.094 39.444 128.87 41.196 127.478 42.228C126.086 43.26 124.25 43.776 121.97 43.776C121.514 43.776 121.07 43.752 120.638 43.704C120.206 43.68 119.846 43.632 119.558 43.56V38.592C119.822 38.64 120.086 38.676 120.35 38.7C120.638 38.724 120.974 38.736 121.358 38.736C122.27 38.736 123.05 38.532 123.698 38.124C124.346 37.716 124.826 37.104 125.138 36.288ZM139.827 26.496C139.827 25.128 140.091 23.844 140.619 22.644C141.171 21.42 141.903 20.364 142.815 19.476C143.751 18.588 144.843 17.892 146.091 17.388C147.363 16.86 148.719 16.596 150.159 16.596C151.599 16.596 152.943 16.86 154.191 17.388C155.463 17.892 156.555 18.588 157.467 19.476C158.403 20.364 159.135 21.42 159.663 22.644C160.215 23.844 160.491 25.128 160.491 26.496C160.491 27.864 160.215 29.16 159.663 30.384C159.135 31.584 158.403 32.628 157.467 33.516C156.555 34.404 155.463 35.1 154.191 35.604C152.943 36.108 151.599 36.36 150.159 36.36C148.719 36.36 147.363 36.108 146.091 35.604C144.843 35.1 143.751 34.404 142.815 33.516C141.903 32.628 141.171 31.584 140.619 30.384C140.091 29.16 139.827 27.864 139.827 26.496ZM150.159 31.32C151.455 31.32 152.547 30.852 153.435 29.916C154.347 28.98 154.803 27.84 154.803 26.496C154.803 25.128 154.347 23.976 153.435 23.04C152.547 22.104 151.455 21.636 150.159 21.636C148.863 21.636 147.759 22.104 146.847 23.04C145.959 23.976 145.515 25.128 145.515 26.496C145.515 27.84 145.959 28.98 146.847 29.916C147.759 30.852 148.863 31.32 150.159 31.32ZM168.914 16.956V27.9C168.914 28.932 169.226 29.772 169.85 30.42C170.498 31.044 171.338 31.356 172.37 31.356C173.114 31.356 173.774 31.224 174.35 30.96C174.926 30.696 175.406 30.324 175.79 29.844V16.956H181.622V36H175.79V34.704C175.094 35.232 174.302 35.64 173.414 35.928C172.55 36.216 171.638 36.36 170.678 36.36C168.446 36.36 166.622 35.64 165.206 34.2C163.79 32.76 163.082 30.924 163.082 28.692V16.956H168.914ZM185.234 36V16.956H191.066V18.864C191.69 18.12 192.422 17.544 193.262 17.136C194.102 16.728 195.038 16.524 196.07 16.524C196.622 16.548 197.066 16.596 197.402 16.668C197.738 16.716 198.026 16.824 198.266 16.992V22.068C197.882 21.9 197.45 21.768 196.97 21.672C196.49 21.552 195.998 21.492 195.494 21.492C194.582 21.492 193.73 21.708 192.938 22.14C192.17 22.572 191.546 23.16 191.066 23.904V36H185.234ZM210.72 15.192C209.832 15.192 209.076 14.88 208.452 14.256C207.828 13.632 207.516 12.876 207.516 11.988C207.516 11.1 207.828 10.344 208.452 9.72C209.076 9.096 209.832 8.784 210.72 8.784C211.608 8.784 212.364 9.096 212.988 9.72C213.612 10.344 213.924 11.1 213.924 11.988C213.924 12.876 213.612 13.632 212.988 14.256C212.364 14.88 211.608 15.192 210.72 15.192ZM213.636 16.956V36H207.804V16.956H213.636ZM231.194 36V34.596C230.45 35.124 229.646 35.532 228.782 35.82C227.918 36.108 227.018 36.252 226.082 36.252C224.738 36.252 223.466 36 222.266 35.496C221.09 34.992 220.058 34.296 219.17 33.408C218.306 32.52 217.622 31.488 217.118 30.312C216.614 29.112 216.362 27.828 216.362 26.46C216.362 25.092 216.614 23.82 217.118 22.644C217.646 21.444 218.354 20.412 219.242 19.548C220.13 18.66 221.174 17.964 222.374 17.46C223.598 16.956 224.894 16.704 226.262 16.704C227.15 16.704 228.002 16.812 228.818 17.028C229.634 17.244 230.402 17.556 231.122 17.964V10.8L236.954 9.54V36H231.194ZM222.086 26.46C222.086 27.828 222.566 28.98 223.526 29.916C224.51 30.828 225.698 31.284 227.09 31.284C227.906 31.284 228.65 31.164 229.322 30.924C229.994 30.66 230.594 30.276 231.122 29.772V23.112C230.618 22.656 230.018 22.296 229.322 22.032C228.626 21.768 227.882 21.636 227.09 21.636C225.674 21.636 224.486 22.104 223.526 23.04C222.566 23.952 222.086 25.092 222.086 26.46ZM258.03 33.48C256.83 34.488 255.594 35.22 254.322 35.676C253.074 36.132 251.658 36.36 250.074 36.36C248.634 36.36 247.278 36.108 246.006 35.604C244.734 35.1 243.63 34.404 242.694 33.516C241.782 32.628 241.05 31.584 240.498 30.384C239.97 29.16 239.706 27.864 239.706 26.496C239.706 25.128 239.958 23.844 240.462 22.644C240.99 21.42 241.698 20.364 242.586 19.476C243.474 18.588 244.518 17.892 245.718 17.388C246.942 16.884 248.25 16.632 249.642 16.632C251.034 16.632 252.318 16.896 253.494 17.424C254.67 17.952 255.678 18.672 256.518 19.584C257.382 20.496 258.054 21.6 258.534 22.896C259.014 24.168 259.254 25.548 259.254 27.036V28.476H245.682C246.066 29.364 246.666 30.096 247.482 30.672C248.298 31.224 249.258 31.5 250.362 31.5C251.154 31.5 251.874 31.38 252.522 31.14C253.17 30.876 253.722 30.516 254.178 30.06L258.03 33.48ZM249.534 21.384C248.574 21.384 247.746 21.648 247.05 22.176C246.354 22.704 245.862 23.448 245.574 24.408H253.53C253.218 23.496 252.702 22.764 251.982 22.212C251.286 21.66 250.47 21.384 249.534 21.384ZM268.064 36.324C266.048 36.324 264.392 35.772 263.096 34.668C261.8 33.564 261.152 32.148 261.152 30.42C261.152 28.62 261.836 27.216 263.204 26.208C264.596 25.2 266.528 24.696 269 24.696C269.744 24.696 270.476 24.744 271.196 24.84C271.916 24.936 272.624 25.068 273.32 25.236V24.3C273.32 23.34 273.008 22.632 272.384 22.176C271.784 21.696 270.884 21.456 269.684 21.456C268.94 21.456 268.1 21.576 267.164 21.816C266.228 22.056 265.148 22.44 263.924 22.968L261.836 18.684C263.372 17.988 264.872 17.472 266.336 17.136C267.824 16.776 269.288 16.596 270.728 16.596C273.368 16.596 275.42 17.232 276.884 18.504C278.348 19.752 279.08 21.516 279.08 23.796V36H273.32V34.848C272.552 35.376 271.736 35.76 270.872 36C270.032 36.216 269.096 36.324 268.064 36.324ZM266.696 30.312C266.696 30.912 266.96 31.38 267.488 31.716C268.016 32.052 268.748 32.22 269.684 32.22C270.38 32.22 271.028 32.148 271.628 32.004C272.252 31.86 272.816 31.632 273.32 31.32V28.872C272.768 28.728 272.204 28.62 271.628 28.548C271.052 28.476 270.464 28.44 269.864 28.44C268.856 28.44 268.076 28.608 267.524 28.944C266.972 29.256 266.696 29.712 266.696 30.312ZM292.277 30.204V21.816H288.425V16.956H292.277V12.06L298.109 10.8V16.956H303.437V21.816H298.109V29.052C298.109 29.892 298.289 30.492 298.649 30.852C299.033 31.188 299.693 31.356 300.629 31.356C301.085 31.356 301.517 31.332 301.925 31.284C302.333 31.212 302.777 31.104 303.257 30.96V35.676C302.729 35.844 302.057 35.976 301.241 36.072C300.425 36.192 299.741 36.252 299.189 36.252C296.909 36.252 295.181 35.748 294.005 34.74C292.853 33.708 292.277 32.196 292.277 30.204ZM304.85 26.496C304.85 25.128 305.114 23.844 305.642 22.644C306.194 21.42 306.926 20.364 307.838 19.476C308.774 18.588 309.866 17.892 311.114 17.388C312.386 16.86 313.742 16.596 315.182 16.596C316.622 16.596 317.966 16.86 319.214 17.388C320.486 17.892 321.578 18.588 322.49 19.476C323.426 20.364 324.158 21.42 324.686 22.644C325.238 23.844 325.514 25.128 325.514 26.496C325.514 27.864 325.238 29.16 324.686 30.384C324.158 31.584 323.426 32.628 322.49 33.516C321.578 34.404 320.486 35.1 319.214 35.604C317.966 36.108 316.622 36.36 315.182 36.36C313.742 36.36 312.386 36.108 311.114 35.604C309.866 35.1 308.774 34.404 307.838 33.516C306.926 32.628 306.194 31.584 305.642 30.384C305.114 29.16 304.85 27.864 304.85 26.496ZM315.182 31.32C316.478 31.32 317.57 30.852 318.458 29.916C319.37 28.98 319.826 27.84 319.826 26.496C319.826 25.128 319.37 23.976 318.458 23.04C317.57 22.104 316.478 21.636 315.182 21.636C313.886 21.636 312.782 22.104 311.87 23.04C310.982 23.976 310.538 25.128 310.538 26.496C310.538 27.84 310.982 28.98 311.87 29.916C312.782 30.852 313.886 31.32 315.182 31.32ZM54.2244 80.876L56.9964 76.952C58.1964 77.672 59.2884 78.2 60.2724 78.536C61.2564 78.848 62.2284 79.004 63.1884 79.004C64.1484 79.004 64.9044 78.872 65.4564 78.608C66.0324 78.32 66.3204 77.948 66.3204 77.492C66.3204 77.132 66.1644 76.844 65.8524 76.628C65.5404 76.388 65.0484 76.22 64.3764 76.124L60.5964 75.548C58.7244 75.26 57.2844 74.636 56.2764 73.676C55.2684 72.692 54.7644 71.42 54.7644 69.86C54.7644 67.94 55.4964 66.428 56.9604 65.324C58.4244 64.22 60.4284 63.668 62.9724 63.668C64.3404 63.668 65.7084 63.872 67.0764 64.28C68.4684 64.664 69.7524 65.228 70.9284 65.972L68.1564 69.716C67.1244 69.116 66.1404 68.684 65.2044 68.42C64.2684 68.132 63.3324 67.988 62.3964 67.988C61.6524 67.988 61.0524 68.12 60.5964 68.384C60.1404 68.624 59.9124 68.948 59.9124 69.356C59.9124 69.74 60.0804 70.052 60.4164 70.292C60.7524 70.508 61.3284 70.676 62.1444 70.796L65.9244 71.372C67.7964 71.636 69.2364 72.26 70.2444 73.244C71.2764 74.204 71.7924 75.428 71.7924 76.916C71.7924 77.828 71.5764 78.68 71.1444 79.472C70.7124 80.264 70.1124 80.948 69.3444 81.524C68.6004 82.1 67.7004 82.556 66.6444 82.892C65.5884 83.204 64.4484 83.36 63.2244 83.36C61.4244 83.36 59.7444 83.156 58.1844 82.748C56.6484 82.316 55.3284 81.692 54.2244 80.876ZM79.7048 63.956V74.9C79.7048 75.932 80.0168 76.772 80.6408 77.42C81.2888 78.044 82.1288 78.356 83.1608 78.356C83.9048 78.356 84.5648 78.224 85.1408 77.96C85.7168 77.696 86.1968 77.324 86.5808 76.844V63.956H92.4128V83H86.5808V81.704C85.8848 82.232 85.0928 82.64 84.2048 82.928C83.3408 83.216 82.4288 83.36 81.4688 83.36C79.2368 83.36 77.4128 82.64 75.9968 81.2C74.5808 79.76 73.8728 77.924 73.8728 75.692V63.956H79.7048ZM105.529 78.32C106.321 78.32 107.053 78.152 107.725 77.816C108.397 77.48 109.045 76.964 109.669 76.268L113.125 79.868C112.165 80.972 110.989 81.836 109.597 82.46C108.205 83.06 106.753 83.36 105.241 83.36C103.825 83.36 102.493 83.108 101.245 82.604C100.021 82.1 98.9526 81.404 98.0406 80.516C97.1526 79.628 96.4446 78.584 95.9166 77.384C95.4126 76.184 95.1606 74.888 95.1606 73.496C95.1606 72.104 95.4126 70.808 95.9166 69.608C96.4446 68.384 97.1526 67.34 98.0406 66.476C98.9526 65.588 100.021 64.892 101.245 64.388C102.493 63.86 103.825 63.596 105.241 63.596C106.801 63.596 108.289 63.908 109.705 64.532C111.121 65.156 112.321 66.02 113.305 67.124L109.741 70.832C109.069 70.088 108.385 69.536 107.689 69.176C106.993 68.816 106.225 68.636 105.385 68.636C104.137 68.636 103.081 69.104 102.217 70.04C101.377 70.976 100.957 72.128 100.957 73.496C100.957 74.864 101.389 76.016 102.253 76.952C103.141 77.864 104.233 78.32 105.529 78.32ZM124.232 78.32C125.024 78.32 125.756 78.152 126.428 77.816C127.1 77.48 127.748 76.964 128.372 76.268L131.828 79.868C130.868 80.972 129.692 81.836 128.3 82.46C126.908 83.06 125.456 83.36 123.944 83.36C122.528 83.36 121.196 83.108 119.948 82.604C118.724 82.1 117.656 81.404 116.744 80.516C115.856 79.628 115.148 78.584 114.62 77.384C114.116 76.184 113.864 74.888 113.864 73.496C113.864 72.104 114.116 70.808 114.62 69.608C115.148 68.384 115.856 67.34 116.744 66.476C117.656 65.588 118.724 64.892 119.948 64.388C121.196 63.86 122.528 63.596 123.944 63.596C125.504 63.596 126.992 63.908 128.408 64.532C129.824 65.156 131.024 66.02 132.008 67.124L128.444 70.832C127.772 70.088 127.088 69.536 126.392 69.176C125.696 68.816 124.928 68.636 124.088 68.636C122.84 68.636 121.784 69.104 120.92 70.04C120.08 70.976 119.66 72.128 119.66 73.496C119.66 74.864 120.092 76.016 120.956 76.952C121.844 77.864 122.936 78.32 124.232 78.32ZM150.891 80.48C149.691 81.488 148.455 82.22 147.183 82.676C145.935 83.132 144.519 83.36 142.935 83.36C141.495 83.36 140.139 83.108 138.867 82.604C137.595 82.1 136.491 81.404 135.555 80.516C134.643 79.628 133.911 78.584 133.359 77.384C132.831 76.16 132.567 74.864 132.567 73.496C132.567 72.128 132.819 70.844 133.323 69.644C133.851 68.42 134.559 67.364 135.447 66.476C136.335 65.588 137.379 64.892 138.579 64.388C139.803 63.884 141.111 63.632 142.503 63.632C143.895 63.632 145.179 63.896 146.355 64.424C147.531 64.952 148.539 65.672 149.379 66.584C150.243 67.496 150.915 68.6 151.395 69.896C151.875 71.168 152.115 72.548 152.115 74.036V75.476H138.543C138.927 76.364 139.527 77.096 140.343 77.672C141.159 78.224 142.119 78.5 143.223 78.5C144.015 78.5 144.735 78.38 145.383 78.14C146.031 77.876 146.583 77.516 147.039 77.06L150.891 80.48ZM142.395 68.384C141.435 68.384 140.607 68.648 139.911 69.176C139.215 69.704 138.723 70.448 138.435 71.408H146.391C146.079 70.496 145.563 69.764 144.843 69.212C144.147 68.66 143.331 68.384 142.395 68.384ZM153.541 80.876L156.313 76.952C157.513 77.672 158.605 78.2 159.589 78.536C160.573 78.848 161.545 79.004 162.505 79.004C163.465 79.004 164.221 78.872 164.773 78.608C165.349 78.32 165.637 77.948 165.637 77.492C165.637 77.132 165.481 76.844 165.169 76.628C164.857 76.388 164.365 76.22 163.693 76.124L159.913 75.548C158.041 75.26 156.601 74.636 155.593 73.676C154.585 72.692 154.081 71.42 154.081 69.86C154.081 67.94 154.813 66.428 156.277 65.324C157.741 64.22 159.745 63.668 162.289 63.668C163.657 63.668 165.025 63.872 166.393 64.28C167.785 64.664 169.069 65.228 170.245 65.972L167.473 69.716C166.441 69.116 165.457 68.684 164.521 68.42C163.585 68.132 162.649 67.988 161.713 67.988C160.969 67.988 160.369 68.12 159.913 68.384C159.457 68.624 159.229 68.948 159.229 69.356C159.229 69.74 159.397 70.052 159.733 70.292C160.069 70.508 160.645 70.676 161.461 70.796L165.241 71.372C167.113 71.636 168.553 72.26 169.561 73.244C170.593 74.204 171.109 75.428 171.109 76.916C171.109 77.828 170.893 78.68 170.461 79.472C170.029 80.264 169.429 80.948 168.661 81.524C167.917 82.1 167.017 82.556 165.961 82.892C164.905 83.204 163.765 83.36 162.541 83.36C160.741 83.36 159.061 83.156 157.501 82.748C155.965 82.316 154.645 81.692 153.541 80.876ZM171.857 80.876L174.629 76.952C175.829 77.672 176.921 78.2 177.905 78.536C178.889 78.848 179.861 79.004 180.821 79.004C181.781 79.004 182.537 78.872 183.089 78.608C183.665 78.32 183.953 77.948 183.953 77.492C183.953 77.132 183.797 76.844 183.485 76.628C183.173 76.388 182.681 76.22 182.009 76.124L178.229 75.548C176.357 75.26 174.917 74.636 173.909 73.676C172.901 72.692 172.397 71.42 172.397 69.86C172.397 67.94 173.129 66.428 174.593 65.324C176.057 64.22 178.061 63.668 180.605 63.668C181.973 63.668 183.341 63.872 184.709 64.28C186.101 64.664 187.385 65.228 188.561 65.972L185.789 69.716C184.757 69.116 183.773 68.684 182.837 68.42C181.901 68.132 180.965 67.988 180.029 67.988C179.285 67.988 178.685 68.12 178.229 68.384C177.773 68.624 177.545 68.948 177.545 69.356C177.545 69.74 177.713 70.052 178.049 70.292C178.385 70.508 178.961 70.676 179.777 70.796L183.557 71.372C185.429 71.636 186.869 72.26 187.877 73.244C188.909 74.204 189.425 75.428 189.425 76.916C189.425 77.828 189.209 78.68 188.777 79.472C188.345 80.264 187.745 80.948 186.977 81.524C186.233 82.1 185.333 82.556 184.277 82.892C183.221 83.204 182.081 83.36 180.857 83.36C179.057 83.36 177.377 83.156 175.817 82.748C174.281 82.316 172.961 81.692 171.857 80.876ZM197.205 80.876L199.977 76.952C201.177 77.672 202.269 78.2 203.253 78.536C204.237 78.848 205.209 79.004 206.169 79.004C207.129 79.004 207.885 78.872 208.437 78.608C209.013 78.32 209.301 77.948 209.301 77.492C209.301 77.132 209.145 76.844 208.833 76.628C208.521 76.388 208.029 76.22 207.357 76.124L203.577 75.548C201.705 75.26 200.265 74.636 199.257 73.676C198.249 72.692 197.745 71.42 197.745 69.86C197.745 67.94 198.477 66.428 199.941 65.324C201.405 64.22 203.409 63.668 205.953 63.668C207.321 63.668 208.689 63.872 210.057 64.28C211.449 64.664 212.733 65.228 213.909 65.972L211.137 69.716C210.105 69.116 209.121 68.684 208.185 68.42C207.249 68.132 206.313 67.988 205.377 67.988C204.633 67.988 204.033 68.12 203.577 68.384C203.121 68.624 202.893 68.948 202.893 69.356C202.893 69.74 203.061 70.052 203.397 70.292C203.733 70.508 204.309 70.676 205.125 70.796L208.905 71.372C210.777 71.636 212.217 72.26 213.225 73.244C214.257 74.204 214.773 75.428 214.773 76.916C214.773 77.828 214.557 78.68 214.125 79.472C213.693 80.264 213.093 80.948 212.325 81.524C211.581 82.1 210.681 82.556 209.625 82.892C208.569 83.204 207.429 83.36 206.205 83.36C204.405 83.36 202.725 83.156 201.165 82.748C199.629 82.316 198.309 81.692 197.205 80.876ZM219.346 77.204V68.816H215.494V63.956H219.346V59.06L225.178 57.8V63.956H230.506V68.816H225.178V76.052C225.178 76.892 225.358 77.492 225.718 77.852C226.102 78.188 226.762 78.356 227.698 78.356C228.154 78.356 228.586 78.332 228.994 78.284C229.402 78.212 229.846 78.104 230.326 77.96V82.676C229.798 82.844 229.126 82.976 228.31 83.072C227.494 83.192 226.81 83.252 226.258 83.252C223.978 83.252 222.25 82.748 221.074 81.74C219.922 80.708 219.346 79.196 219.346 77.204ZM231.918 73.496C231.918 72.128 232.182 70.844 232.71 69.644C233.262 68.42 233.994 67.364 234.906 66.476C235.842 65.588 236.934 64.892 238.182 64.388C239.454 63.86 240.81 63.596 242.25 63.596C243.69 63.596 245.034 63.86 246.282 64.388C247.554 64.892 248.646 65.588 249.558 66.476C250.494 67.364 251.226 68.42 251.754 69.644C252.306 70.844 252.582 72.128 252.582 73.496C252.582 74.864 252.306 76.16 251.754 77.384C251.226 78.584 250.494 79.628 249.558 80.516C248.646 81.404 247.554 82.1 246.282 82.604C245.034 83.108 243.69 83.36 242.25 83.36C240.81 83.36 239.454 83.108 238.182 82.604C236.934 82.1 235.842 81.404 234.906 80.516C233.994 79.628 233.262 78.584 232.71 77.384C232.182 76.16 231.918 74.864 231.918 73.496ZM242.25 78.32C243.546 78.32 244.638 77.852 245.526 76.916C246.438 75.98 246.894 74.84 246.894 73.496C246.894 72.128 246.438 70.976 245.526 70.04C244.638 69.104 243.546 68.636 242.25 68.636C240.954 68.636 239.85 69.104 238.938 70.04C238.05 70.976 237.606 72.128 237.606 73.496C237.606 74.84 238.05 75.98 238.938 76.916C239.85 77.852 240.954 78.32 242.25 78.32ZM255.318 83V63.956H261.15V65.864C261.774 65.12 262.506 64.544 263.346 64.136C264.186 63.728 265.122 63.524 266.154 63.524C266.706 63.548 267.15 63.596 267.486 63.668C267.822 63.716 268.11 63.824 268.35 63.992V69.068C267.966 68.9 267.534 68.768 267.054 68.672C266.574 68.552 266.082 68.492 265.578 68.492C264.666 68.492 263.814 68.708 263.022 69.14C262.254 69.572 261.63 70.16 261.15 70.904V83H255.318ZM276.644 83.288V83.252L269.336 63.956H275.78L279.992 75.944L284.888 63.956H291.188L282.656 83.972C281.6 86.444 280.376 88.196 278.984 89.228C277.592 90.26 275.756 90.776 273.476 90.776C273.02 90.776 272.576 90.752 272.144 90.704C271.712 90.68 271.352 90.632 271.064 90.56V85.592C271.328 85.64 271.592 85.676 271.856 85.7C272.144 85.724 272.48 85.736 272.864 85.736C273.776 85.736 274.556 85.532 275.204 85.124C275.852 84.716 276.332 84.104 276.644 83.288Z" fill="white" fill-opacity="0.5"/>
<defs>
<linearGradient id="paint0_linear" x1="276.5" y1="308" x2="304.913" y2="349.987" gradientUnits="userSpaceOnUse">
<stop stop-color="#00D5E2"/>
<stop offset="1" stop-color="#3281BA"/>
</linearGradient>
<linearGradient id="paint1_linear" x1="143.147" y1="767.705" x2="233.703" y2="901.521" gradientUnits="userSpaceOnUse">
<stop stop-color="#00D5E2"/>
<stop offset="1" stop-color="#3281BA"/>
</linearGradient>
<linearGradient id="paint2_linear" x1="397" y1="22" x2="449.456" y2="99.5153" gradientUnits="userSpaceOnUse">
<stop stop-color="#00D5E2"/>
<stop offset="1" stop-color="#3281BA"/>
</linearGradient>
<linearGradient id="paint3_linear" x1="473.981" y1="1016.04" x2="497.266" y2="1050.45" gradientUnits="userSpaceOnUse">
<stop stop-color="#00D5E2"/>
<stop offset="1" stop-color="#3281BA"/>
</linearGradient>
</defs>
</svg>
