<svg width="1578" height="1026" viewBox="0 0 1578 1026" fill="none" xmlns="http://www.w3.org/2000/svg">
<circle cx="61.5" cy="745.5" r="25.5" transform="rotate(-90 61.5 745.5)" fill="url(#paint0_linear)" fill-opacity="0.62"/>
<circle cx="1515.85" cy="717.147" r="62.1474" transform="rotate(90 1515.85 717.147)" fill="url(#paint1_linear)" fill-opacity="0.42"/>
<circle cx="1074.5" cy="1005.5" r="14.5" transform="rotate(90 1074.5 1005.5)" fill="url(#paint2_linear)" fill-opacity="0.84"/>
<circle cx="1262" cy="36" r="36" transform="rotate(90 1262 36)" fill="url(#paint3_linear)" fill-opacity="0.27"/>
<circle cx="1278.46" cy="838.5" r="22.5" transform="rotate(90 1278.46 838.5)" fill="url(#paint4_linear)" fill-opacity="0.59"/>
<circle cx="195.5" cy="305.5" r="19.5" transform="rotate(-90 195.5 305.5)" fill="url(#paint5_linear)" fill-opacity="0.62"/>
<circle cx="62.1474" cy="807.853" r="62.1474" transform="rotate(-90 62.1474 807.853)" fill="url(#paint6_linear)" fill-opacity="0.42"/>
<circle cx="503.5" cy="519.5" r="14.5" transform="rotate(-90 503.5 519.5)" fill="url(#paint7_linear)" fill-opacity="0.84"/>
<circle cx="316" cy="36" r="36" transform="rotate(-90 316 36)" fill="url(#paint8_linear)" fill-opacity="0.27"/>
<circle cx="392.981" cy="1010.02" r="15.9808" transform="rotate(-90 392.981 1010.02)" fill="url(#paint9_linear)" fill-opacity="0.59"/>
<defs>
<linearGradient id="paint0_linear" x1="61.5" y1="720" x2="98.6561" y2="774.907" gradientUnits="userSpaceOnUse">
<stop stop-color="#00D5E2"/>
<stop offset="1" stop-color="#3281BA"/>
</linearGradient>
<linearGradient id="paint1_linear" x1="1515.85" y1="655" x2="1606.41" y2="788.816" gradientUnits="userSpaceOnUse">
<stop stop-color="#00D5E2"/>
<stop offset="1" stop-color="#3281BA"/>
</linearGradient>
<linearGradient id="paint2_linear" x1="1074.5" y1="991" x2="1095.63" y2="1022.22" gradientUnits="userSpaceOnUse">
<stop stop-color="#00D5E2"/>
<stop offset="1" stop-color="#3281BA"/>
</linearGradient>
<linearGradient id="paint3_linear" x1="1262" y1="2.24293e-06" x2="1314.46" y2="77.5153" gradientUnits="userSpaceOnUse">
<stop stop-color="#00D5E2"/>
<stop offset="1" stop-color="#3281BA"/>
</linearGradient>
<linearGradient id="paint4_linear" x1="1278.46" y1="816" x2="1311.25" y2="864.447" gradientUnits="userSpaceOnUse">
<stop stop-color="#00D5E2"/>
<stop offset="1" stop-color="#3281BA"/>
</linearGradient>
<linearGradient id="paint5_linear" x1="195.5" y1="286" x2="223.913" y2="327.987" gradientUnits="userSpaceOnUse">
<stop stop-color="#00D5E2"/>
<stop offset="1" stop-color="#3281BA"/>
</linearGradient>
<linearGradient id="paint6_linear" x1="62.1474" y1="745.705" x2="152.703" y2="879.521" gradientUnits="userSpaceOnUse">
<stop stop-color="#00D5E2"/>
<stop offset="1" stop-color="#3281BA"/>
</linearGradient>
<linearGradient id="paint7_linear" x1="503.5" y1="505" x2="524.628" y2="536.221" gradientUnits="userSpaceOnUse">
<stop stop-color="#00D5E2"/>
<stop offset="1" stop-color="#3281BA"/>
</linearGradient>
<linearGradient id="paint8_linear" x1="316" y1="2.24293e-06" x2="368.456" y2="77.5153" gradientUnits="userSpaceOnUse">
<stop stop-color="#00D5E2"/>
<stop offset="1" stop-color="#3281BA"/>
</linearGradient>
<linearGradient id="paint9_linear" x1="392.981" y1="994.038" x2="416.266" y2="1028.45" gradientUnits="userSpaceOnUse">
<stop stop-color="#00D5E2"/>
<stop offset="1" stop-color="#3281BA"/>
</linearGradient>
</defs>
</svg>
