<svg width="709" height="400" viewBox="0 0 709 400" fill="none" xmlns="http://www.w3.org/2000/svg">
<path d="M69.9307 28C69.9307 13.0883 82.019 1 96.9307 1H614.883C629.795 1 641.883 13.0883 641.883 28V385.669C641.883 387.326 640.54 388.669 638.883 388.669H72.9307C71.2738 388.669 69.9307 387.326 69.9307 385.669V28Z" fill="#1A202C" stroke="#4A5568" stroke-width="2"/>
<path d="M72.4473 25.5171C72.4473 13.3668 82.297 3.51709 94.4473 3.51709H617.366C629.516 3.51709 639.366 13.3668 639.366 25.5171V374.898H72.4473V25.5171Z" fill="black"/>
<path d="M0 388.855C0 387.75 0.895431 386.855 2 386.855H707C708.105 386.855 709 387.75 709 388.855V391.075H0V388.855Z" fill="#A3ACB1"/>
<path d="M0 388.855C0 387.75 0.895431 386.855 2 386.855H707C708.105 386.855 709 387.75 709 388.855V391.075H0V388.855Z" fill="url(#paint0_linear)"/>
<path d="M0 391.075H709L706.295 391.621C680.263 396.871 653.772 399.516 627.215 399.516H76.8908C51.0293 399.516 25.2456 396.685 0 391.075Z" fill="#647279"/>
<path d="M0 391.075H709L706.295 391.621C680.263 396.871 653.772 399.516 627.215 399.516H76.8908C51.0293 399.516 25.2456 396.685 0 391.075Z" fill="url(#paint1_linear)"/>
<path fill-rule="evenodd" clip-rule="evenodd" d="M302.474 386.855C302.836 389.212 301.08 391.075 306.671 391.075H403.033C408.623 391.075 406.868 389.212 407.23 386.855H302.474Z" fill="#96A1A8"/>
<path fill-rule="evenodd" clip-rule="evenodd" d="M302.474 386.855C302.836 389.212 301.08 391.075 306.671 391.075H403.033C408.623 391.075 406.868 389.212 407.23 386.855H302.474Z" fill="url(#paint2_linear)"/>
<defs>
<linearGradient id="paint0_linear" x1="-1.36773e-10" y1="388.965" x2="709" y2="388.965" gradientUnits="userSpaceOnUse">
<stop stop-color="#0D1012"/>
<stop offset="0.0295345" stop-color="#CAD4DB"/>
<stop offset="0.0625" stop-color="#242729"/>
<stop offset="0.133609" stop-color="#A3ACB1"/>
<stop offset="0.865967" stop-color="#A3ACB1"/>
<stop offset="0.941937" stop-color="#242729"/>
<stop offset="0.971275" stop-color="#CAD4DB"/>
<stop offset="0.996436" stop-color="#0D1012"/>
</linearGradient>
<linearGradient id="paint1_linear" x1="354.5" y1="391.075" x2="354.5" y2="399.516" gradientUnits="userSpaceOnUse">
<stop stop-color="#7A7F83"/>
<stop offset="1" stop-color="#0B0B0E"/>
</linearGradient>
<linearGradient id="paint2_linear" x1="307.726" y1="389.417" x2="404.088" y2="389.417" gradientUnits="userSpaceOnUse">
<stop stop-color="#3C3C3C"/>
<stop offset="0.317518" stop-color="#3C3C3C" stop-opacity="0"/>
<stop offset="0.660584" stop-color="#3C3C3C" stop-opacity="0"/>
<stop offset="1" stop-color="#444444"/>
</linearGradient>
</defs>
</svg>
