<svg width="157" height="38" viewBox="0 0 157 38" fill="none" xmlns="http://www.w3.org/2000/svg">
<path d="M68.7896 28.8501H65.7656V15.107H68.7896V16.9265C69.4223 16.221 70.2001 15.6607 71.0696 15.284C71.9392 14.9073 72.8799 14.723 73.8273 14.7438C77.0743 14.7438 78.9256 16.901 78.9256 20.4539V28.8501H75.9049V21.1262C75.9049 18.44 74.4773 17.5701 72.6834 17.5701C71.9037 17.6015 71.1431 17.8207 70.4663 18.209C69.7895 18.5974 69.2165 19.1434 68.7959 19.8006L68.7896 28.8501Z" fill="white"/>
<path d="M82.584 28.85V15.1069H85.6079V28.85H82.584Z" fill="white"/>
<path d="M82.584 12.4941V9.59448H85.6079V12.4941H82.584Z" fill="white"/>
<path d="M88.709 27.8147V24.9469C90.3614 26.0589 92.3162 26.6352 94.3076 26.5975C96.2194 26.5975 97.3315 25.9825 97.3315 24.9756C97.3315 24.4435 96.9937 24.1376 96.4903 23.8826C96.0619 23.7159 95.6234 23.5765 95.1775 23.4652L93.4695 23.0446C90.3341 22.2607 88.8524 21.1327 88.8524 18.762C88.8524 16.2702 91.0064 14.7312 94.6708 14.7312C96.7707 14.7312 98.4786 15.1518 99.7372 15.9644V18.7334C98.2355 17.8465 96.5293 17.3645 94.7855 17.3345C92.9087 17.3345 91.956 17.9495 91.956 18.8449C91.956 19.377 92.3224 19.6861 92.8259 19.9378C93.1445 20.078 93.7818 20.2565 94.1419 20.3584L95.7351 20.693C98.8705 21.394 100.438 22.8502 100.438 25.0329C100.438 27.5215 98.0325 29.2008 94.4478 29.2008C92.1248 29.2135 89.9135 28.6272 88.709 27.8147Z" fill="white"/>
<path d="M105.307 17.7678H102.369V15.1071H105.307V11.105H108.331V15.1071H112.668V17.7678H108.331V24.2331C108.331 25.8008 109.029 26.4445 110.485 26.4445C111.206 26.4504 111.918 26.2774 112.556 25.941V28.5443C111.919 28.9904 110.877 29.2135 109.507 29.2135C106.932 29.2135 105.307 27.786 105.307 25.0998V17.7678Z" fill="white"/>
<path d="M116.953 27.1166C116.261 26.4543 115.714 25.6554 115.348 24.7706C114.981 23.8857 114.803 22.9343 114.824 21.9769C114.802 21.0203 114.981 20.0697 115.347 19.1858C115.714 18.3019 116.26 17.5042 116.953 16.8435C118.38 15.4447 120.174 14.7437 122.369 14.7437C124.565 14.7437 126.346 15.4447 127.786 16.8435C128.477 17.5048 129.023 18.3027 129.388 19.1866C129.754 20.0704 129.931 21.0207 129.909 21.9769C129.924 22.933 129.744 23.8822 129.379 24.7661C129.014 25.65 128.472 26.4499 127.786 27.1166C126.359 28.5154 124.568 29.2133 122.369 29.2133C120.171 29.2133 118.377 28.5154 116.953 27.1166ZM125.604 25.2398C126.028 24.8095 126.36 24.297 126.58 23.7337C126.799 23.1704 126.9 22.5682 126.878 21.9641C126.878 20.7649 126.402 19.6148 125.554 18.7669C124.706 17.9189 123.556 17.4426 122.357 17.4426C121.158 17.4426 120.007 17.9189 119.16 18.7669C118.312 19.6148 117.835 20.7649 117.835 21.9641C117.817 22.5671 117.922 23.1673 118.143 23.7287C118.364 24.29 118.696 24.8007 119.12 25.2299C119.544 25.6591 120.05 25.9979 120.609 26.2258C121.167 26.4537 121.766 26.5659 122.369 26.5558C122.969 26.5696 123.566 26.4599 124.122 26.2335C124.678 26.0071 125.181 25.6689 125.601 25.2398H125.604Z" fill="white"/>
<path d="M132.621 28.85V15.1069H135.645V17.4872C136.569 15.894 138.583 14.7437 140.711 14.7437C140.806 14.7376 140.901 14.7473 140.992 14.7724V17.7963C140.713 17.7609 140.432 17.7418 140.151 17.7389C137.997 17.7389 136.289 18.9976 135.645 20.4251V28.85H132.621Z" fill="white"/>
<path d="M48.8618 9.59448H41.6572L43.3875 12.4941H48.8618V9.59448Z" fill="white"/>
<path d="M59.1344 9.59448V21.021C59.1344 24.6886 57.0919 26.677 53.9851 26.677C50.8783 26.677 48.8613 24.6823 48.8613 21.021V15.0497H45.7832V20.9031C45.7832 23.6753 46.5384 25.8007 48.0519 27.3142C49.5655 28.8278 51.557 29.5448 53.9851 29.5448C56.4132 29.5448 58.3792 28.7959 59.915 27.2856C61.4509 25.7752 62.2093 23.6467 62.2093 20.9127V9.59448H59.1344Z" fill="white"/>
<path d="M15.3497 9.74621C15.2412 9.75139 15.1325 9.74068 15.0272 9.71447L13.8954 9.20565C14.0514 9.11705 14.2224 9.05435 14.402 9.02155C14.5353 9.00554 14.6701 9.00863 14.8024 9.03068L15.8759 9.56936C15.7137 9.66186 15.5349 9.72194 15.3497 9.74621Z" stroke="#0CC0D8"/>
<path d="M35.6254 19.1092C35.5823 17.2513 35.2699 15.4095 34.6982 13.6412C34.6422 13.4797 34.5346 13.3412 34.3919 13.247C34.2493 13.1528 34.0796 13.1083 33.9091 13.1202C33.7386 13.1322 33.5768 13.2 33.4487 13.3132C33.3206 13.4264 33.2334 13.5787 33.2006 13.7464C32.802 15.8987 31.7907 17.8902 30.2882 19.482C29.4629 20.3328 26.4581 23.1209 22.2456 22.8373C21.3821 22.7768 19.3778 22.6397 17.5966 21.1103C16.7573 20.385 16.102 19.471 15.6847 18.4432C15.5586 18.1424 15.4522 17.8337 15.3661 17.5191C15.5692 17.5228 15.7724 17.5153 15.9747 17.4968C16.0973 17.4883 16.2157 17.4488 16.3188 17.3821C17.6119 16.5798 19.0802 16.1027 20.5979 15.9917C22.1156 15.8807 23.6377 16.1392 25.0337 16.7448C25.1918 16.8124 25.3677 16.8259 25.5342 16.7833C25.7007 16.7406 25.8485 16.6442 25.9546 16.509L28.0513 13.8292C28.1421 13.7137 28.1979 13.5746 28.2121 13.4283C28.2262 13.282 28.198 13.1347 28.1309 13.004L27.3311 11.4107C27.2573 11.2643 27.1391 11.145 26.9934 11.0698L19.1771 7.03577L21.7262 1.07395C21.7932 0.911606 21.8032 0.731372 21.7547 0.562599C21.7061 0.393827 21.6019 0.246458 21.4589 0.144489C21.3159 0.0425211 21.1426 -0.00803964 20.9673 0.00104047C20.7919 0.0101206 20.6247 0.0783067 20.4931 0.194495L15.1303 5.1271L14.2508 4.7033L14.4643 3.04635C14.4798 2.92144 14.4647 2.79464 14.4203 2.67685C14.3759 2.55906 14.3036 2.4538 14.2096 2.37012C14.1156 2.28644 14.0027 2.22684 13.8805 2.19643C13.7584 2.16603 13.6307 2.16574 13.5084 2.19558C11.4058 2.71439 9.41561 3.61284 7.6358 4.84669C6.51425 5.63837 5.48686 6.55564 4.57364 7.58065C1.76549 10.6326 0.146299 14.5913 0.0106611 18.7364C-0.0442647 20.3527 0.113216 21.9693 0.479067 23.5447C1.19252 26.71 2.76279 29.6182 5.01807 31.951C7.27336 34.2839 10.1268 35.9515 13.2662 36.7716C16.1413 37.5334 19.1599 37.5739 22.0544 36.8895C22.6342 36.7528 23.2064 36.5858 23.7687 36.3892C27.5267 35.0349 30.7414 32.4936 32.9265 29.1496C33.9597 27.5254 34.7137 25.7397 35.157 23.8665C35.5172 22.3075 35.6747 20.7085 35.6254 19.1092ZM22.1404 24.3859C23.5796 24.4824 25.0233 24.2817 26.3816 23.7964C28.2816 23.1067 30.0007 21.9955 31.4098 20.5463C32.4436 19.4648 33.2747 18.2063 33.8633 16.8309C34.2387 19.2053 34.1216 21.6317 33.5192 23.9589C32.7032 24.5354 31.8232 25.0155 30.8968 25.3896C29.1811 26.0878 27.327 26.379 25.4798 26.2404C23.2 26.0531 21.0231 25.2098 19.2121 23.8123C19.3969 23.8793 19.5849 23.943 19.7761 24.0003C20.5479 24.2144 21.3407 24.3437 22.1404 24.3859ZM21.6943 35.3791C19.0136 36.0147 16.2161 35.9667 13.5588 35.2396C10.9014 34.5125 8.46921 33.1295 6.4855 31.2176C4.246 29.0332 2.68574 26.248 1.99262 23.1974C1.66121 21.753 1.52087 20.2714 1.5752 18.7905C1.69241 15.0133 3.16245 11.4038 5.71757 8.61943C6.55476 7.68569 7.49307 6.84783 8.51525 6.12126C9.71166 5.28557 11.0163 4.61665 12.3931 4.13293L12.7755 4.00547L12.6417 5.05062C12.6176 5.21416 12.6468 5.3811 12.7248 5.52682C12.8028 5.67254 12.9256 5.78933 13.075 5.85998L14.9327 6.75536C15.0731 6.82212 15.2301 6.84565 15.3839 6.82295C15.5376 6.80026 15.6812 6.73237 15.7963 6.62791L18.8775 3.79198L17.4628 7.08675C17.386 7.26742 17.38 7.47038 17.4462 7.65522C17.5123 7.84006 17.6457 7.99319 17.8196 8.08411L26.0438 12.338L26.5122 13.2621L25.0911 15.0847C23.5557 14.5189 21.9131 14.3039 20.2838 14.4555C18.6545 14.6072 17.0798 15.1216 15.6752 15.961C15.3116 15.9791 14.9472 15.9567 14.5886 15.8941C14.5611 15.8913 14.5333 15.8913 14.5058 15.8941C13.9392 15.7946 13.4015 15.5718 12.9307 15.2414C12.4599 14.911 12.0675 14.4811 11.7814 13.9822C11.3425 13.1153 11.2371 12.1176 11.485 11.1781C11.5177 11.077 11.5293 10.9703 11.5191 10.8645C11.5089 10.7587 11.4771 10.6562 11.4257 10.5632C11.3744 10.4702 11.3045 10.3887 11.2204 10.3237C11.1363 10.2588 11.0397 10.2118 10.9367 10.1856C10.8338 10.1594 10.7265 10.1546 10.6216 10.1715C10.5167 10.1884 10.4164 10.2266 10.3268 10.2838C10.2372 10.341 10.1603 10.4159 10.1009 10.504C10.0414 10.592 10.0006 10.6913 9.98102 10.7958C9.62781 12.1148 9.78364 13.5184 10.4176 14.7278C10.7707 15.3503 11.2437 15.8967 11.8092 16.3353C12.3747 16.7739 13.0216 17.0962 13.7123 17.2833C13.7378 17.4044 13.7665 17.5287 13.7952 17.6498C13.7606 19.0767 13.9159 20.5018 14.2572 21.8877C14.5461 23.0696 14.9841 24.2099 15.5605 25.2813C16.2396 26.5427 17.1323 27.6769 18.1988 28.6334C19.8837 30.1134 21.9126 31.1475 24.1001 31.6414C25.5418 31.9619 27.0269 32.0395 28.4942 31.8708C26.5428 33.5703 24.2102 34.7738 21.6943 35.3791ZM30.457 29.8857C28.5382 30.4782 26.4993 30.5679 24.5358 30.1461C22.5723 29.7243 20.7502 28.8051 19.244 27.4767C18.0018 26.3571 17.03 24.9702 16.4017 23.4204C18.1351 25.2112 21.1144 27.4576 25.3492 27.789C27.2198 27.932 29.0996 27.6824 30.8681 27.0561C31.072 26.986 31.2728 26.9096 31.4735 26.8299C31.8941 26.661 32.3052 26.4635 32.713 26.2563C32.3991 26.9697 32.0327 27.6588 31.6169 28.318C31.2636 28.8644 30.8762 29.388 30.457 29.8857Z" fill="#2EDAE1"/>
<path d="M157 27.8208C157 27.4257 156.978 27.0274 156.965 26.6291V14.9253H153.944V23.9652C153.524 24.6231 152.95 25.1695 152.273 25.5579C151.595 25.9463 150.834 26.1651 150.054 26.1957C148.26 26.1957 146.835 25.329 146.835 22.6428V14.9253H143.812V23.3215C143.812 25.4055 144.449 27.0083 145.625 27.9801C146.683 28.8468 147.916 28.936 148.903 29.0316C150.197 29.1938 151.511 28.9791 152.686 28.4135C153.127 28.1895 153.54 27.9135 153.916 27.5914V27.7826C153.933 28.2109 153.892 28.6397 153.795 29.0571C153.45 30.5133 152.31 32.1639 150.678 32.5622C150.391 32.6332 150.095 32.6664 149.799 32.661C149.799 32.661 144.382 32.661 143.926 32.6355L146.096 35.6021C146.552 35.6276 149.799 35.6467 149.799 35.6467C151.585 35.6251 153.299 34.9442 154.614 33.7348C155.745 32.5891 156.515 31.1366 156.828 29.5574C156.945 28.986 157.003 28.404 157 27.8208Z" fill="white"/>
</svg>
