<svg width="84" height="97" viewBox="0 0 84 97" fill="none" xmlns="http://www.w3.org/2000/svg">
<circle cx="15.2308" cy="81.2308" r="15.2308" fill="url(#paint0_linear)"/>
<circle cx="20.2308" cy="6.23077" r="6.23077" fill="url(#paint1_linear)"/>
<circle cx="77.2308" cy="87.2308" r="6.23077" fill="url(#paint2_linear)"/>
<circle cx="41.5" cy="48.5" r="41.5" fill="url(#paint3_linear)"/>
<path d="M54.8223 56.544C54.8223 57.984 54.4703 59.312 53.7663 60.528C53.0623 61.744 52.0863 62.8 50.8383 63.696C49.6223 64.56 48.1503 65.248 46.4223 65.76C44.7263 66.24 42.8703 66.48 40.8543 66.48C38.1343 66.48 35.5583 66 33.1263 65.04C30.7263 64.08 28.7423 62.752 27.1743 61.056L32.4062 56.256C33.6863 57.6 34.9343 58.528 36.1503 59.04C37.3983 59.552 38.9343 59.808 40.7583 59.808C42.6143 59.808 44.1023 59.456 45.2223 58.752C46.3743 58.048 46.9503 57.104 46.9503 55.92C46.9503 54.928 46.4543 54.144 45.4623 53.568C44.5023 52.992 43.1583 52.704 41.4303 52.704H38.2623V46.512H40.6143C42.2143 46.512 43.5263 46.128 44.5503 45.36C45.5743 44.56 46.0863 43.552 46.0863 42.336C46.0863 41.248 45.5743 40.368 44.5503 39.696C43.5583 38.992 42.2783 38.64 40.7103 38.64C39.1103 38.64 37.7183 38.928 36.5343 39.504C35.3823 40.048 34.1023 41.04 32.6943 42.48L27.4143 37.728C29.0463 35.904 31.0783 34.48 33.5103 33.456C35.9423 32.4 38.4383 31.872 40.9983 31.872C42.8863 31.872 44.6303 32.112 46.2303 32.592C47.8303 33.04 49.1903 33.68 50.3103 34.512C51.4303 35.344 52.3103 36.352 52.9503 37.536C53.5903 38.72 53.9103 40.016 53.9103 41.424C53.9103 43.056 53.4943 44.56 52.6623 45.936C51.8303 47.28 50.6783 48.368 49.2063 49.2C50.9343 49.872 52.2943 50.848 53.2863 52.128C54.3103 53.408 54.8223 54.88 54.8223 56.544Z" fill="white" fill-opacity="0.73"/>
<defs>
<linearGradient id="paint0_linear" x1="15.2308" y1="66" x2="34.0511" y2="92.9907" gradientUnits="userSpaceOnUse">
<stop stop-color="#2EDAE1"/>
<stop offset="1" stop-color="#04276B"/>
</linearGradient>
<linearGradient id="paint1_linear" x1="20.2308" y1="-1.45545e-07" x2="27.93" y2="11.0416" gradientUnits="userSpaceOnUse">
<stop stop-color="#2EDAE1"/>
<stop offset="1" stop-color="#04276B"/>
</linearGradient>
<linearGradient id="paint2_linear" x1="77.2308" y1="81" x2="84.93" y2="92.0416" gradientUnits="userSpaceOnUse">
<stop stop-color="#2EDAE1"/>
<stop offset="1" stop-color="#04276B"/>
</linearGradient>
<linearGradient id="paint3_linear" x1="41.5" y1="7" x2="92.7807" y2="80.5427" gradientUnits="userSpaceOnUse">
<stop stop-color="#2EDAE1"/>
<stop offset="1" stop-color="#04276B"/>
</linearGradient>
</defs>
</svg>
