<svg width="94" height="110" viewBox="0 0 94 110" fill="none" xmlns="http://www.w3.org/2000/svg">
<circle cx="52.2308" cy="94.2308" r="15.2308" fill="url(#paint0_linear)"/>
<circle cx="6.23077" cy="12.2308" r="6.23077" fill="url(#paint1_linear)"/>
<circle cx="87.2308" cy="6.23077" r="6.23077" fill="url(#paint2_linear)"/>
<circle cx="51.5" cy="47.5" r="41.5" fill="url(#paint3_linear)"/>
<path d="M39.2615 65V59.576L52.7495 47.864C53.9655 46.776 54.8455 45.784 55.3895 44.888C55.9655 43.992 56.2535 43.048 56.2535 42.056C56.2535 40.776 55.7415 39.72 54.7175 38.888C53.6935 38.024 52.3975 37.592 50.8295 37.592C49.2615 37.592 47.7895 37.912 46.4135 38.552C45.0695 39.192 43.5815 40.248 41.9495 41.72L37.6295 36.536C39.6455 34.712 41.7895 33.336 44.0615 32.408C46.3655 31.448 48.7175 30.968 51.1175 30.968C53.0055 30.968 54.7335 31.224 56.3015 31.736C57.8695 32.248 59.1975 32.968 60.2855 33.896C61.4055 34.824 62.2695 35.944 62.8775 37.256C63.5175 38.568 63.8375 40.008 63.8375 41.576C63.8375 43.432 63.3415 45.192 62.3495 46.856C61.3895 48.488 59.8055 50.264 57.5975 52.184L50.2055 58.52H64.1735V65H39.2615Z" fill="white" fill-opacity="0.73"/>
<defs>
<linearGradient id="paint0_linear" x1="52.2308" y1="79" x2="71.0511" y2="105.991" gradientUnits="userSpaceOnUse">
<stop stop-color="#2EDAE1"/>
<stop offset="1" stop-color="#04276B"/>
</linearGradient>
<linearGradient id="paint1_linear" x1="6.23077" y1="6" x2="13.93" y2="17.0416" gradientUnits="userSpaceOnUse">
<stop stop-color="#2EDAE1"/>
<stop offset="1" stop-color="#04276B"/>
</linearGradient>
<linearGradient id="paint2_linear" x1="87.2308" y1="-1.45545e-07" x2="94.93" y2="11.0416" gradientUnits="userSpaceOnUse">
<stop stop-color="#2EDAE1"/>
<stop offset="1" stop-color="#04276B"/>
</linearGradient>
<linearGradient id="paint3_linear" x1="51.5" y1="6" x2="102.781" y2="79.5427" gradientUnits="userSpaceOnUse">
<stop stop-color="#2EDAE1"/>
<stop offset="1" stop-color="#04276B"/>
</linearGradient>
</defs>
</svg>
