<svg width="66" height="66" viewBox="0 0 66 66" fill="none" xmlns="http://www.w3.org/2000/svg">
<g clip-path="url(#clip0)" filter="url(#filter0_d)">
<path d="M51.4236 10.5567C46.5353 5.68652 40.0353 3.00297 33.11 3C18.8394 3 7.226 14.5586 7.22029 28.7658C7.21863 33.3072 8.41047 37.7403 10.6759 41.6479L7.00293 55L20.7274 51.4171C24.5087 53.4702 28.7663 54.5521 33.0989 54.5539H33.1099H33.11C47.3783 54.5539 58.9935 42.9932 58.9996 28.7867C59.002 21.9012 56.3113 15.4272 51.4236 10.5567ZM33.11 50.2019H33.1016C29.2397 50.1999 25.4526 49.1676 22.1494 47.2161L21.3633 46.7522L13.2189 48.8781L15.3933 40.9753L14.8811 40.165C12.7269 36.7549 11.5897 32.814 11.5913 28.7675C11.5961 16.9589 21.2487 7.35211 33.1182 7.35211C38.866 7.35449 44.2683 9.58507 48.3313 13.633C52.3941 17.6809 54.6298 23.062 54.6281 28.7849C54.6231 40.5938 44.9701 50.2019 33.11 50.2019Z" fill="#E0E0E0"/>
<path d="M8.19043 53.5181L11.6956 40.7759C9.53312 37.0468 8.39594 32.8159 8.3973 28.4828C8.40297 14.9248 19.486 3.89453 33.1035 3.89453C39.7128 3.8975 45.916 6.45833 50.58 11.1061C55.2449 15.7539 57.8124 21.9318 57.8098 28.502C57.8041 42.0603 46.7204 53.0916 33.1045 53.0916C33.1035 53.0916 33.1052 53.0916 33.1045 53.0916H33.0935C28.9588 53.0903 24.8961 52.0569 21.2877 50.099L8.19043 53.5181Z" fill="url(#paint0_linear)"/>
<path fill-rule="evenodd" clip-rule="evenodd" d="M26.7114 17.8269C26.2324 16.7666 25.7281 16.7454 25.2724 16.7269C24.8997 16.7109 24.473 16.7119 24.047 16.7119C23.6206 16.7119 22.9278 16.8714 22.3419 17.5085C21.7557 18.1456 20.1035 19.6856 20.1035 22.8179C20.1035 25.9504 22.3952 28.9772 22.7146 29.4023C23.0344 29.8268 27.1384 36.4601 33.6381 39.0119C39.0398 41.1327 40.1391 40.7109 41.3116 40.6047C42.4841 40.4986 45.0948 39.065 45.6278 37.5783C46.1607 36.0919 46.1607 34.8178 46.0008 34.5515C45.841 34.2862 45.4146 34.127 44.7751 33.8087C44.1355 33.4903 40.9918 31.9499 40.4056 31.7376C39.8193 31.5254 39.393 31.4193 38.9666 32.0567C38.5402 32.6934 37.3154 34.127 36.9424 34.5515C36.5693 34.977 36.1962 35.03 35.5567 34.7117C34.9172 34.3923 32.8576 33.7208 30.4144 31.5519C28.5135 29.8646 27.23 27.7806 26.857 27.1432C26.4839 26.5065 26.817 26.1616 27.1378 25.8442C27.4249 25.559 27.7773 25.101 28.0971 24.7293C28.4162 24.3575 28.5227 24.0922 28.7359 23.6677C28.9491 23.2426 28.8425 22.8709 28.6826 22.5525C28.5227 22.2341 27.28 19.0857 26.7114 17.8269Z" fill="white"/>
<path d="M51.211 10.4758C46.3788 5.66156 39.9534 3.00887 33.1077 3.00586C19.0009 3.00586 7.52081 14.4318 7.51514 28.4759C7.51347 32.9652 8.69163 37.3473 10.931 41.2101L7.30029 54.4089L20.8672 50.8671C24.6052 52.8966 28.8138 53.9662 33.0967 53.9678H33.1076H33.1077C47.2122 53.9678 58.694 42.5399 58.7 28.4964C58.7023 21.6901 56.0425 15.2904 51.211 10.4758ZM33.1077 49.666H33.0994C29.2818 49.664 25.5382 48.6436 22.2729 46.7145L21.4957 46.2558L13.4449 48.3574L15.5943 40.5452L15.088 39.7443C12.9586 36.3733 11.8344 32.4777 11.836 28.4776C11.8407 16.8046 21.3825 7.30809 33.1157 7.30809C38.7977 7.31043 44.1378 9.51541 48.1543 13.5169C52.1704 17.5183 54.3804 22.8376 54.3788 28.4949C54.3737 40.1681 44.8316 49.666 33.1077 49.666Z" fill="white"/>
</g>
<defs>
<filter id="filter0_d" x="0" y="0" width="66" height="66" filterUnits="userSpaceOnUse" color-interpolation-filters="sRGB">
<feFlood flood-opacity="0" result="BackgroundImageFix"/>
<feColorMatrix in="SourceAlpha" type="matrix" values="0 0 0 0 0 0 0 0 0 0 0 0 0 0 0 0 0 0 127 0"/>
<feOffset dy="4"/>
<feGaussianBlur stdDeviation="3.5"/>
<feColorMatrix type="matrix" values="0 0 0 0 0 0 0 0 0 0 0 0 0 0 0 0 0 0 0.11 0"/>
<feBlend mode="normal" in2="BackgroundImageFix" result="effect1_dropShadow"/>
<feBlend mode="normal" in="SourceGraphic" in2="effect1_dropShadow" result="shape"/>
</filter>
<linearGradient id="paint0_linear" x1="33.0001" y1="53.5181" x2="33.0001" y2="3.89461" gradientUnits="userSpaceOnUse">
<stop stop-color="#20B038"/>
<stop offset="1" stop-color="#60D66A"/>
</linearGradient>
<clipPath id="clip0">
<rect width="52" height="52" fill="white" transform="translate(7 3)"/>
</clipPath>
</defs>
</svg>
